<?xml version="1.0" encoding="UTF-8" standalone="no"?>
<!-- Created with Inkscape (http://www.inkscape.org/) -->

<svg
   width="180"
   height="180"
   viewBox="0 0 180 180"
   version="1.1"
   id="svg1"
   inkscape:version="1.3.2 (091e20e, 2023-11-25, custom)"
   sodipodi:docname="ernestoLogo.svg"
   inkscape:export-filename="ernestoLogo.png"
   inkscape:export-xdpi="8.5333338"
   inkscape:export-ydpi="8.5333338"
   xmlns:inkscape="http://www.inkscape.org/namespaces/inkscape"
   xmlns:sodipodi="http://sodipodi.sourceforge.net/DTD/sodipodi-0.dtd"
   xmlns="http://www.w3.org/2000/svg"
   xmlns:svg="http://www.w3.org/2000/svg">
  <sodipodi:namedview
     id="namedview1"
     pagecolor="#ffffff"
     bordercolor="#000000"
     borderopacity="0.25"
     inkscape:showpageshadow="2"
     inkscape:pageopacity="0.0"
     inkscape:pagecheckerboard="0"
     inkscape:deskcolor="#d1d1d1"
     inkscape:document-units="px"
     inkscape:zoom="2.1333333"
     inkscape:cx="138.75"
     inkscape:cy="92.812501"
     inkscape:window-width="2400"
     inkscape:window-height="1261"
     inkscape:window-x="2391"
     inkscape:window-y="-9"
     inkscape:window-maximized="1"
     inkscape:current-layer="layer1" />
  <defs
     id="defs1" />
  <g
     inkscape:label="Layer 1"
     inkscape:groupmode="layer"
     id="layer1">
    <rect
       style="fill:#ffffff;stroke:#000000"
       id="rect3"
       width="178.59375"
       height="180"
       x="0.9375"
       y="0.9375" />
    <ellipse
       style="fill:#000000;stroke:#000000"
       id="path1"
       cx="37.03125"
       cy="78.75"
       rx="26.71875"
       ry="25.3125" />
    <circle
       style="fill:#000000;stroke:#000000"
       id="path2"
       cx="134.0625"
       cy="89.53125"
       r="25.3125" />
    <rect
       style="fill:#000000;stroke:#000000"
       id="rect2"
       width="35.15625"
       height="13.59375"
       x="52.03125"
       y="133.125" />
    <path
       style="fill:#000000;stroke:#000000"
       id="path3"
       d="m 50.383948,40.014113 c 1.937158,-0.09298 3.828041,1.023939 5.546223,1.799232 0.592169,0.322988 1.189588,0.636531 1.776507,0.968965 0.666735,0.377641 2.651785,1.536849 1.984029,1.161018 -3.166496,-1.78219 -6.290089,-3.641148 -9.480469,-5.38022 -0.699259,-0.381165 1.334893,0.868944 2.002106,1.303774 0.70386,0.458712 1.406614,0.919122 2.111112,1.376852 0.694809,0.451434 1.391203,0.900425 2.086804,1.350637 6.377766,3.777648 12.471453,8.280604 19.419414,10.93137 1.204229,0.459434 2.675764,0.857372 3.911536,1.214891 2.628878,0.726017 5.25983,1.477941 7.974655,1.802029 1.671267,0.199511 3.501582,0.303711 5.175465,0.41942 4.81585,0.08818 9.71519,-0.06139 14.46121,-0.95287 0.48903,-0.156028 0.99634,-0.263393 1.46708,-0.468084 2.72504,-1.184945 4.8667,-3.881122 6.83748,-6.003414 2.32136,-2.531452 4.64732,-5.079561 7.43239,-7.119238 1.73362,-1.269637 2.48965,-1.589485 4.36117,-2.587666 6.53744,-2.852853 13.70448,-3.742217 20.7277,-4.566004 6.3671,-0.789433 12.77055,-1.124979 19.18185,-1.175185 2.43895,0.07113 4.87444,-0.08076 7.3082,-0.211029 0,0 -11.66405,-8.365989 -11.66405,-8.365989 v 0 c -2.24819,0.154741 -4.47917,0.462276 -6.7293,0.596419 -6.09212,0.500275 -12.17579,1.119855 -18.22729,1.98968 -4.17245,0.573521 -8.34211,1.146 -12.50032,1.81692 -1.31946,0.212893 -2.65026,0.368646 -3.95563,0.655586 -2.38018,0.5232 -3.23928,0.993876 -5.43049,1.912772 -0.73171,0.435912 -1.48442,0.838361 -2.19512,1.307735 -2.30473,1.52212 -4.33505,3.379048 -6.39598,5.203323 -0.68081,0.602632 -1.3889,1.175078 -2.0505,1.798735 -0.53716,0.506347 -1.02863,1.059067 -1.54294,1.588601 -2.43582,2.276769 -4.81072,4.764788 -8.15746,5.600064 -4.470234,1.011578 -9.055849,1.53437 -13.636569,1.053382 -2.353896,-0.254731 -3.058651,-0.284664 -5.358222,-0.711191 -2.70131,-0.501041 -5.346445,-1.273681 -7.988705,-2.013284 -1.664072,-0.538042 -2.206364,-0.671728 -3.817187,-1.359142 -0.599953,-0.256028 -2.330013,-1.167422 -1.773471,-0.827193 18.577774,11.357125 9.937808,5.680143 5.735219,3.364022 C 66.910439,46.165497 64.89514,44.721537 62.787278,43.460298 56.915529,39.94694 51.046968,36.298166 44.963723,33.119657 42.821134,32.172452 40.692402,31.20626 38.301758,31.235887 Z" />
  </g>
</svg>
