<?xml version="1.0" encoding="UTF-8" standalone="no"?>
<!-- Uploaded to: SVG Repo, www.svgrepo.com, Generator: SVG Repo Mixer Tools -->

<svg
   height="800px"
   width="800px"
   version="1.1"
   id="Layer_1"
   viewBox="0 0 512 512"
   xml:space="preserve"
   sodipodi:docname="co2-svgrepo-com.svg"
   inkscape:version="1.3.2 (091e20e, 2023-11-25, custom)"
   xmlns:inkscape="http://www.inkscape.org/namespaces/inkscape"
   xmlns:sodipodi="http://sodipodi.sourceforge.net/DTD/sodipodi-0.dtd"
   xmlns="http://www.w3.org/2000/svg"
   xmlns:svg="http://www.w3.org/2000/svg"><defs
   id="defs8" /><sodipodi:namedview
   id="namedview8"
   pagecolor="#ffffff"
   bordercolor="#000000"
   borderopacity="0.25"
   inkscape:showpageshadow="2"
   inkscape:pageopacity="0.0"
   inkscape:pagecheckerboard="0"
   inkscape:deskcolor="#d1d1d1"
   inkscape:zoom="0.62402173"
   inkscape:cx="343.73803"
   inkscape:cy="391.01202"
   inkscape:window-width="1920"
   inkscape:window-height="991"
   inkscape:window-x="-9"
   inkscape:window-y="-9"
   inkscape:window-maximized="1"
   inkscape:current-layer="g8" />
<path
   style="fill:#DCD2B9;"
   d="M409.921,217.52c-7.451,0-14.664,0.958-21.615,2.595c-16.099-65.282-74.879-113.76-145.132-113.76  c-56.4,0-105.469,31.23-130.975,77.313C54.073,187.289,8.017,235.443,8.017,294.48c0,61.395,49.771,111.165,111.165,111.165  c20.911,0,261.756,0,290.739,0c51.949,0,94.063-42.113,94.063-94.063S461.87,217.52,409.921,217.52z"
   id="path1" />
<path
   style="fill:#CDC3A5;"
   d="M384.267,354.338H207.803c-59.444,0-110.725-45.37-114.092-104.72  c-1.378-24.288,5.089-46.952,17.045-65.79C51.672,188.282,5.426,238.717,8.129,299.547c2.665,59.964,54.445,106.098,114.469,106.098  h261.669c14.168,0,25.653-11.485,25.653-25.653l0,0C409.921,365.823,398.435,354.338,384.267,354.338z"
   id="path2" />
<path
   d="M409.921,209.503c-5.193,0-10.497,0.435-15.843,1.298c-19.842-66.597-80.835-112.463-150.904-112.463  c-55.86,0-107.51,29.656-135.836,77.681C46.799,182.009,0,233.221,0,294.48c0,65.717,53.465,119.182,119.182,119.182h290.739  c56.287,0,102.079-45.792,102.079-102.079S466.208,209.503,409.921,209.503z M409.921,397.628H119.182  c-56.876,0-103.148-46.272-103.148-103.148c0-54.273,42.46-99.434,96.663-102.812c2.733-0.17,5.189-1.723,6.516-4.12  c24.982-45.137,72.482-73.178,123.961-73.178c65.237,0,121.717,44.273,137.35,107.663c1.052,4.267,5.343,6.893,9.621,5.883  c6.708-1.58,13.362-2.381,19.777-2.381c47.446,0,86.046,38.6,86.046,86.046S457.367,397.628,409.921,397.628z"
   id="path3" />
<path
   d="M339.172,244.767c-3.832,2.219-5.139,7.123-2.921,10.955c3.791,6.548,5.796,14.037,5.796,21.656v17.102  c0,23.871-19.42,43.29-43.29,43.29c-23.871,0-43.29-19.42-43.29-43.29v-17.102c0-23.871,19.42-43.29,43.29-43.29  c4.964,0,9.825,0.831,14.453,2.469c4.174,1.478,8.755-0.708,10.233-4.881c1.478-4.174-0.708-8.755-4.881-10.233  c-6.349-2.249-13.013-3.388-19.803-3.388c-32.711,0-59.324,26.612-59.324,59.324v17.102c0,32.711,26.612,59.324,59.324,59.324  s59.324-26.612,59.324-59.324v-17.102c0-10.437-2.75-20.703-7.954-29.69C347.907,243.856,343.002,242.55,339.172,244.767z"
   id="path4" />
<path
   d="M216.449,326.748c-7.941,7.108-18.189,11.022-28.86,11.022c-23.871,0-43.29-19.42-43.29-43.29v-17.102  c0-23.871,19.42-43.29,43.29-43.29c10.666,0,20.913,3.912,28.853,11.016c3.299,2.951,8.366,2.67,11.32-0.628  c2.952-3.3,2.671-8.368-0.628-11.32c-10.883-9.738-24.927-15.1-39.544-15.1c-32.711,0-59.324,26.612-59.324,59.324v17.102  c0,32.711,26.612,59.324,59.324,59.324c14.621,0,28.669-5.367,39.553-15.11c3.299-2.953,3.579-8.021,0.625-11.32  C224.815,324.075,219.746,323.795,216.449,326.748z"
   id="path5" />
<path
   d="M247.159,148.649c5.344,0.195,10.7,0.789,15.92,1.766c0.499,0.093,0.995,0.139,1.485,0.139c3.783,0,7.149-2.689,7.87-6.543  c0.816-4.351-2.051-8.54-6.404-9.355c-6-1.123-12.152-1.806-18.288-2.03c-4.432-0.156-8.142,3.295-8.303,7.72  C239.278,144.77,242.734,148.487,247.159,148.649z"
   id="path6" />
<path
   d="M294.898,161.824c17.914,9.862,32.595,24.543,42.455,42.458c1.46,2.653,4.202,4.153,7.03,4.153  c1.307,0,2.633-0.321,3.859-0.995c3.878-2.135,5.292-7.01,3.158-10.889c-11.327-20.578-28.191-37.444-48.769-48.771  c-3.879-2.137-8.753-0.722-10.889,3.158C289.605,154.813,291.019,159.688,294.898,161.824z"
   id="path7" />
<path
   d="M474.981,292.185c-6.562-22.04-23.639-39.112-45.679-45.668c-4.245-1.263-8.707,1.154-9.97,5.398s1.154,8.707,5.398,9.97  c16.833,5.008,29.873,18.045,34.885,34.876c1.036,3.48,4.225,5.731,7.68,5.731c0.757,0,1.529-0.108,2.291-0.336  C473.83,300.892,476.244,296.429,474.981,292.185z"
   id="path8" />
<g
   id="g8"
   transform="matrix(0.12899968,0,0,0.12899968,365.41074,89.743782)"><path
     d="m 474.9,489.3 m -140.3,0 a 140.3,140.3 0 1 0 280.6,0 140.3,140.3 0 1 0 -280.6,0 z"
     fill="#ffb89a"
     id="path1-9"
     style="fill:#8794ff;fill-opacity:1" /><path
     d="m 435.1,122.6 c 42.2,0 83.1,8.3 121.6,24.5 37.2,15.7 70.6,38.3 99.4,67 28.8,28.7 51.3,62.1 67,99.4 16.3,38.5 24.5,79.4 24.5,121.6 0,42.2 -8.3,83.1 -24.5,121.6 -15.7,37.2 -38.3,70.6 -67,99.4 -28.7,28.7 -62.1,51.3 -99.4,67 -38.5,16.3 -79.4,24.5 -121.6,24.5 -42.2,0 -83.1,-8.3 -121.6,-24.5 -37.2,-15.7 -70.6,-38.3 -99.3,-67 -28.7,-28.7 -51.3,-62.1 -67,-99.3 -16.3,-38.5 -24.5,-79.4 -24.5,-121.6 0,-42.2 8.3,-83.1 24.5,-121.6 15.7,-37.2 38.3,-70.6 67,-99.4 28.7,-28.7 62.1,-51.3 99.4,-67 38.4,-16.3 79.3,-24.6 121.5,-24.6 m 0,-60 c -205.7,0 -372.5,166.8 -372.5,372.5 0,205.7 166.8,372.5 372.5,372.5 205.7,0 372.5,-166.8 372.5,-372.5 C 807.6,229.4 640.8,62.6 435.1,62.6 Z"
     fill="#45484c"
     id="path4-0" /><path
     d="M 906.7,949.4 671.8,714.5 c -11.7,-11.7 -11.7,-30.8 0,-42.4 11.7,-11.7 30.8,-11.7 42.4,0 L 949.1,907 c 11.7,11.7 11.7,30.8 0,42.4 -11.6,11.6 -30.7,11.6 -42.4,0 z"
     fill="#45484c"
     id="path5-0" /></g></svg>
