<?xml version="1.0" encoding="utf-8" standalone="no"?>
<!DOCTYPE svg PUBLIC "-//W3C//DTD SVG 1.1//EN"
  "http://www.w3.org/Graphics/SVG/1.1/DTD/svg11.dtd">
<svg xmlns:xlink="http://www.w3.org/1999/xlink" width="720pt" height="216pt" viewBox="0 0 720 216" xmlns="http://www.w3.org/2000/svg" version="1.1">
 <metadata>
  <rdf:RDF xmlns:dc="http://purl.org/dc/elements/1.1/" xmlns:cc="http://creativecommons.org/ns#" xmlns:rdf="http://www.w3.org/1999/02/22-rdf-syntax-ns#">
   <cc:Work>
    <dc:type rdf:resource="http://purl.org/dc/dcmitype/StillImage"/>
    <dc:date>2024-09-17T19:07:00.843059</dc:date>
    <dc:format>image/svg+xml</dc:format>
    <dc:creator>
     <cc:Agent>
      <dc:title>Matplotlib v3.8.4, https://matplotlib.org/</dc:title>
     </cc:Agent>
    </dc:creator>
   </cc:Work>
  </rdf:RDF>
 </metadata>
 <defs>
  <style type="text/css">*{stroke-linejoin: round; stroke-linecap: butt}</style>
 </defs>
 <g id="figure_1">
  <g id="patch_1">
   <path d="M 0 216 
L 720 216 
L 720 0 
L 0 0 
z
" style="fill: #ffffff"/>
  </g>
  <g id="axes_1">
   <g id="patch_2">
    <path d="M 39.71 173.32 
L 709.2 173.32 
L 709.2 27.6 
L 39.71 27.6 
z
" style="fill: #e5e5e5"/>
   </g>
   <g id="matplotlib.axis_1">
    <g id="xtick_1">
     <g id="line2d_1">
      <path d="M 56.096119 173.32 
L 56.096119 27.6 
" clip-path="url(#pb4a8667521)" style="fill: none; stroke: #ffffff; stroke-width: 0.8; stroke-linecap: square"/>
     </g>
     <g id="line2d_2">
      <defs>
       <path id="med4dc218e8" d="M 0 0 
L 0 3.5 
" style="stroke: #555555; stroke-width: 0.8"/>
      </defs>
      <g>
       <use xlink:href="#med4dc218e8" x="56.096119" y="173.32" style="fill: #555555; stroke: #555555; stroke-width: 0.8"/>
      </g>
     </g>
     <g id="text_1">
      <!-- Mar -->
      <g style="fill: #555555" transform="translate(46.662525 187.918437) scale(0.1 -0.1)">
       <defs>
        <path id="DejaVuSans-4d" d="M 628 4666 
L 1569 4666 
L 2759 1491 
L 3956 4666 
L 4897 4666 
L 4897 0 
L 4281 0 
L 4281 4097 
L 3078 897 
L 2444 897 
L 1241 4097 
L 1241 0 
L 628 0 
L 628 4666 
z
" transform="scale(0.015625)"/>
        <path id="DejaVuSans-61" d="M 2194 1759 
Q 1497 1759 1228 1600 
Q 959 1441 959 1056 
Q 959 750 1161 570 
Q 1363 391 1709 391 
Q 2188 391 2477 730 
Q 2766 1069 2766 1631 
L 2766 1759 
L 2194 1759 
z
M 3341 1997 
L 3341 0 
L 2766 0 
L 2766 531 
Q 2569 213 2275 61 
Q 1981 -91 1556 -91 
Q 1019 -91 701 211 
Q 384 513 384 1019 
Q 384 1609 779 1909 
Q 1175 2209 1959 2209 
L 2766 2209 
L 2766 2266 
Q 2766 2663 2505 2880 
Q 2244 3097 1772 3097 
Q 1472 3097 1187 3025 
Q 903 2953 641 2809 
L 641 3341 
Q 956 3463 1253 3523 
Q 1550 3584 1831 3584 
Q 2591 3584 2966 3190 
Q 3341 2797 3341 1997 
z
" transform="scale(0.015625)"/>
        <path id="DejaVuSans-72" d="M 2631 2963 
Q 2534 3019 2420 3045 
Q 2306 3072 2169 3072 
Q 1681 3072 1420 2755 
Q 1159 2438 1159 1844 
L 1159 0 
L 581 0 
L 581 3500 
L 1159 3500 
L 1159 2956 
Q 1341 3275 1631 3429 
Q 1922 3584 2338 3584 
Q 2397 3584 2469 3576 
Q 2541 3569 2628 3553 
L 2631 2963 
z
" transform="scale(0.015625)"/>
       </defs>
       <use xlink:href="#DejaVuSans-4d"/>
       <use xlink:href="#DejaVuSans-61" x="86.279297"/>
       <use xlink:href="#DejaVuSans-72" x="147.558594"/>
      </g>
     </g>
    </g>
    <g id="xtick_2">
     <g id="line2d_3">
      <path d="M 104.474184 173.32 
L 104.474184 27.6 
" clip-path="url(#pb4a8667521)" style="fill: none; stroke: #ffffff; stroke-width: 0.8; stroke-linecap: square"/>
     </g>
     <g id="line2d_4">
      <g>
       <use xlink:href="#med4dc218e8" x="104.474184" y="173.32" style="fill: #555555; stroke: #555555; stroke-width: 0.8"/>
      </g>
     </g>
     <g id="text_2">
      <!-- Apr -->
      <g style="fill: #555555" transform="translate(95.824184 187.918437) scale(0.1 -0.1)">
       <defs>
        <path id="DejaVuSans-41" d="M 2188 4044 
L 1331 1722 
L 3047 1722 
L 2188 4044 
z
M 1831 4666 
L 2547 4666 
L 4325 0 
L 3669 0 
L 3244 1197 
L 1141 1197 
L 716 0 
L 50 0 
L 1831 4666 
z
" transform="scale(0.015625)"/>
        <path id="DejaVuSans-70" d="M 1159 525 
L 1159 -1331 
L 581 -1331 
L 581 3500 
L 1159 3500 
L 1159 2969 
Q 1341 3281 1617 3432 
Q 1894 3584 2278 3584 
Q 2916 3584 3314 3078 
Q 3713 2572 3713 1747 
Q 3713 922 3314 415 
Q 2916 -91 2278 -91 
Q 1894 -91 1617 61 
Q 1341 213 1159 525 
z
M 3116 1747 
Q 3116 2381 2855 2742 
Q 2594 3103 2138 3103 
Q 1681 3103 1420 2742 
Q 1159 2381 1159 1747 
Q 1159 1113 1420 752 
Q 1681 391 2138 391 
Q 2594 391 2855 752 
Q 3116 1113 3116 1747 
z
" transform="scale(0.015625)"/>
       </defs>
       <use xlink:href="#DejaVuSans-41"/>
       <use xlink:href="#DejaVuSans-70" x="68.408203"/>
       <use xlink:href="#DejaVuSans-72" x="131.884766"/>
      </g>
     </g>
    </g>
    <g id="xtick_3">
     <g id="line2d_5">
      <path d="M 151.291667 173.32 
L 151.291667 27.6 
" clip-path="url(#pb4a8667521)" style="fill: none; stroke: #ffffff; stroke-width: 0.8; stroke-linecap: square"/>
     </g>
     <g id="line2d_6">
      <g>
       <use xlink:href="#med4dc218e8" x="151.291667" y="173.32" style="fill: #555555; stroke: #555555; stroke-width: 0.8"/>
      </g>
     </g>
     <g id="text_3">
      <!-- May -->
      <g style="fill: #555555" transform="translate(140.954167 187.918437) scale(0.1 -0.1)">
       <defs>
        <path id="DejaVuSans-79" d="M 2059 -325 
Q 1816 -950 1584 -1140 
Q 1353 -1331 966 -1331 
L 506 -1331 
L 506 -850 
L 844 -850 
Q 1081 -850 1212 -737 
Q 1344 -625 1503 -206 
L 1606 56 
L 191 3500 
L 800 3500 
L 1894 763 
L 2988 3500 
L 3597 3500 
L 2059 -325 
z
" transform="scale(0.015625)"/>
       </defs>
       <use xlink:href="#DejaVuSans-4d"/>
       <use xlink:href="#DejaVuSans-61" x="86.279297"/>
       <use xlink:href="#DejaVuSans-79" x="147.558594"/>
      </g>
     </g>
    </g>
    <g id="xtick_4">
     <g id="line2d_7">
      <path d="M 199.669732 173.32 
L 199.669732 27.6 
" clip-path="url(#pb4a8667521)" style="fill: none; stroke: #ffffff; stroke-width: 0.8; stroke-linecap: square"/>
     </g>
     <g id="line2d_8">
      <g>
       <use xlink:href="#med4dc218e8" x="199.669732" y="173.32" style="fill: #555555; stroke: #555555; stroke-width: 0.8"/>
      </g>
     </g>
     <g id="text_4">
      <!-- Jun -->
      <g style="fill: #555555" transform="translate(191.857232 187.918437) scale(0.1 -0.1)">
       <defs>
        <path id="DejaVuSans-4a" d="M 628 4666 
L 1259 4666 
L 1259 325 
Q 1259 -519 939 -900 
Q 619 -1281 -91 -1281 
L -331 -1281 
L -331 -750 
L -134 -750 
Q 284 -750 456 -515 
Q 628 -281 628 325 
L 628 4666 
z
" transform="scale(0.015625)"/>
        <path id="DejaVuSans-75" d="M 544 1381 
L 544 3500 
L 1119 3500 
L 1119 1403 
Q 1119 906 1312 657 
Q 1506 409 1894 409 
Q 2359 409 2629 706 
Q 2900 1003 2900 1516 
L 2900 3500 
L 3475 3500 
L 3475 0 
L 2900 0 
L 2900 538 
Q 2691 219 2414 64 
Q 2138 -91 1772 -91 
Q 1169 -91 856 284 
Q 544 659 544 1381 
z
M 1991 3584 
L 1991 3584 
z
" transform="scale(0.015625)"/>
        <path id="DejaVuSans-6e" d="M 3513 2113 
L 3513 0 
L 2938 0 
L 2938 2094 
Q 2938 2591 2744 2837 
Q 2550 3084 2163 3084 
Q 1697 3084 1428 2787 
Q 1159 2491 1159 1978 
L 1159 0 
L 581 0 
L 581 3500 
L 1159 3500 
L 1159 2956 
Q 1366 3272 1645 3428 
Q 1925 3584 2291 3584 
Q 2894 3584 3203 3211 
Q 3513 2838 3513 2113 
z
" transform="scale(0.015625)"/>
       </defs>
       <use xlink:href="#DejaVuSans-4a"/>
       <use xlink:href="#DejaVuSans-75" x="29.492188"/>
       <use xlink:href="#DejaVuSans-6e" x="92.871094"/>
      </g>
     </g>
    </g>
    <g id="xtick_5">
     <g id="line2d_9">
      <path d="M 246.487214 173.32 
L 246.487214 27.6 
" clip-path="url(#pb4a8667521)" style="fill: none; stroke: #ffffff; stroke-width: 0.8; stroke-linecap: square"/>
     </g>
     <g id="line2d_10">
      <g>
       <use xlink:href="#med4dc218e8" x="246.487214" y="173.32" style="fill: #555555; stroke: #555555; stroke-width: 0.8"/>
      </g>
     </g>
     <g id="text_5">
      <!-- Jul -->
      <g style="fill: #555555" transform="translate(240.454402 187.918437) scale(0.1 -0.1)">
       <defs>
        <path id="DejaVuSans-6c" d="M 603 4863 
L 1178 4863 
L 1178 0 
L 603 0 
L 603 4863 
z
" transform="scale(0.015625)"/>
       </defs>
       <use xlink:href="#DejaVuSans-4a"/>
       <use xlink:href="#DejaVuSans-75" x="29.492188"/>
       <use xlink:href="#DejaVuSans-6c" x="92.871094"/>
      </g>
     </g>
    </g>
    <g id="xtick_6">
     <g id="line2d_11">
      <path d="M 294.86528 173.32 
L 294.86528 27.6 
" clip-path="url(#pb4a8667521)" style="fill: none; stroke: #ffffff; stroke-width: 0.8; stroke-linecap: square"/>
     </g>
     <g id="line2d_12">
      <g>
       <use xlink:href="#med4dc218e8" x="294.86528" y="173.32" style="fill: #555555; stroke: #555555; stroke-width: 0.8"/>
      </g>
     </g>
     <g id="text_6">
      <!-- Aug -->
      <g style="fill: #555555" transform="translate(285.101998 187.918437) scale(0.1 -0.1)">
       <defs>
        <path id="DejaVuSans-67" d="M 2906 1791 
Q 2906 2416 2648 2759 
Q 2391 3103 1925 3103 
Q 1463 3103 1205 2759 
Q 947 2416 947 1791 
Q 947 1169 1205 825 
Q 1463 481 1925 481 
Q 2391 481 2648 825 
Q 2906 1169 2906 1791 
z
M 3481 434 
Q 3481 -459 3084 -895 
Q 2688 -1331 1869 -1331 
Q 1566 -1331 1297 -1286 
Q 1028 -1241 775 -1147 
L 775 -588 
Q 1028 -725 1275 -790 
Q 1522 -856 1778 -856 
Q 2344 -856 2625 -561 
Q 2906 -266 2906 331 
L 2906 616 
Q 2728 306 2450 153 
Q 2172 0 1784 0 
Q 1141 0 747 490 
Q 353 981 353 1791 
Q 353 2603 747 3093 
Q 1141 3584 1784 3584 
Q 2172 3584 2450 3431 
Q 2728 3278 2906 2969 
L 2906 3500 
L 3481 3500 
L 3481 434 
z
" transform="scale(0.015625)"/>
       </defs>
       <use xlink:href="#DejaVuSans-41"/>
       <use xlink:href="#DejaVuSans-75" x="68.408203"/>
       <use xlink:href="#DejaVuSans-67" x="131.787109"/>
      </g>
     </g>
    </g>
    <g id="xtick_7">
     <g id="line2d_13">
      <path d="M 343.243345 173.32 
L 343.243345 27.6 
" clip-path="url(#pb4a8667521)" style="fill: none; stroke: #ffffff; stroke-width: 0.8; stroke-linecap: square"/>
     </g>
     <g id="line2d_14">
      <g>
       <use xlink:href="#med4dc218e8" x="343.243345" y="173.32" style="fill: #555555; stroke: #555555; stroke-width: 0.8"/>
      </g>
     </g>
     <g id="text_7">
      <!-- Sep -->
      <g style="fill: #555555" transform="translate(333.818345 187.918437) scale(0.1 -0.1)">
       <defs>
        <path id="DejaVuSans-53" d="M 3425 4513 
L 3425 3897 
Q 3066 4069 2747 4153 
Q 2428 4238 2131 4238 
Q 1616 4238 1336 4038 
Q 1056 3838 1056 3469 
Q 1056 3159 1242 3001 
Q 1428 2844 1947 2747 
L 2328 2669 
Q 3034 2534 3370 2195 
Q 3706 1856 3706 1288 
Q 3706 609 3251 259 
Q 2797 -91 1919 -91 
Q 1588 -91 1214 -16 
Q 841 59 441 206 
L 441 856 
Q 825 641 1194 531 
Q 1563 422 1919 422 
Q 2459 422 2753 634 
Q 3047 847 3047 1241 
Q 3047 1584 2836 1778 
Q 2625 1972 2144 2069 
L 1759 2144 
Q 1053 2284 737 2584 
Q 422 2884 422 3419 
Q 422 4038 858 4394 
Q 1294 4750 2059 4750 
Q 2388 4750 2728 4690 
Q 3069 4631 3425 4513 
z
" transform="scale(0.015625)"/>
        <path id="DejaVuSans-65" d="M 3597 1894 
L 3597 1613 
L 953 1613 
Q 991 1019 1311 708 
Q 1631 397 2203 397 
Q 2534 397 2845 478 
Q 3156 559 3463 722 
L 3463 178 
Q 3153 47 2828 -22 
Q 2503 -91 2169 -91 
Q 1331 -91 842 396 
Q 353 884 353 1716 
Q 353 2575 817 3079 
Q 1281 3584 2069 3584 
Q 2775 3584 3186 3129 
Q 3597 2675 3597 1894 
z
M 3022 2063 
Q 3016 2534 2758 2815 
Q 2500 3097 2075 3097 
Q 1594 3097 1305 2825 
Q 1016 2553 972 2059 
L 3022 2063 
z
" transform="scale(0.015625)"/>
       </defs>
       <use xlink:href="#DejaVuSans-53"/>
       <use xlink:href="#DejaVuSans-65" x="63.476562"/>
       <use xlink:href="#DejaVuSans-70" x="125"/>
      </g>
     </g>
    </g>
    <g id="xtick_8">
     <g id="line2d_15">
      <path d="M 390.060828 173.32 
L 390.060828 27.6 
" clip-path="url(#pb4a8667521)" style="fill: none; stroke: #ffffff; stroke-width: 0.8; stroke-linecap: square"/>
     </g>
     <g id="line2d_16">
      <g>
       <use xlink:href="#med4dc218e8" x="390.060828" y="173.32" style="fill: #555555; stroke: #555555; stroke-width: 0.8"/>
      </g>
     </g>
     <g id="text_8">
      <!-- Oct -->
      <g style="fill: #555555" transform="translate(381.415515 187.918437) scale(0.1 -0.1)">
       <defs>
        <path id="DejaVuSans-4f" d="M 2522 4238 
Q 1834 4238 1429 3725 
Q 1025 3213 1025 2328 
Q 1025 1447 1429 934 
Q 1834 422 2522 422 
Q 3209 422 3611 934 
Q 4013 1447 4013 2328 
Q 4013 3213 3611 3725 
Q 3209 4238 2522 4238 
z
M 2522 4750 
Q 3503 4750 4090 4092 
Q 4678 3434 4678 2328 
Q 4678 1225 4090 567 
Q 3503 -91 2522 -91 
Q 1538 -91 948 565 
Q 359 1222 359 2328 
Q 359 3434 948 4092 
Q 1538 4750 2522 4750 
z
" transform="scale(0.015625)"/>
        <path id="DejaVuSans-63" d="M 3122 3366 
L 3122 2828 
Q 2878 2963 2633 3030 
Q 2388 3097 2138 3097 
Q 1578 3097 1268 2742 
Q 959 2388 959 1747 
Q 959 1106 1268 751 
Q 1578 397 2138 397 
Q 2388 397 2633 464 
Q 2878 531 3122 666 
L 3122 134 
Q 2881 22 2623 -34 
Q 2366 -91 2075 -91 
Q 1284 -91 818 406 
Q 353 903 353 1747 
Q 353 2603 823 3093 
Q 1294 3584 2113 3584 
Q 2378 3584 2631 3529 
Q 2884 3475 3122 3366 
z
" transform="scale(0.015625)"/>
        <path id="DejaVuSans-74" d="M 1172 4494 
L 1172 3500 
L 2356 3500 
L 2356 3053 
L 1172 3053 
L 1172 1153 
Q 1172 725 1289 603 
Q 1406 481 1766 481 
L 2356 481 
L 2356 0 
L 1766 0 
Q 1100 0 847 248 
Q 594 497 594 1153 
L 594 3053 
L 172 3053 
L 172 3500 
L 594 3500 
L 594 4494 
L 1172 4494 
z
" transform="scale(0.015625)"/>
       </defs>
       <use xlink:href="#DejaVuSans-4f"/>
       <use xlink:href="#DejaVuSans-63" x="78.710938"/>
       <use xlink:href="#DejaVuSans-74" x="133.691406"/>
      </g>
     </g>
    </g>
    <g id="xtick_9">
     <g id="line2d_17">
      <path d="M 438.438893 173.32 
L 438.438893 27.6 
" clip-path="url(#pb4a8667521)" style="fill: none; stroke: #ffffff; stroke-width: 0.8; stroke-linecap: square"/>
     </g>
     <g id="line2d_18">
      <g>
       <use xlink:href="#med4dc218e8" x="438.438893" y="173.32" style="fill: #555555; stroke: #555555; stroke-width: 0.8"/>
      </g>
     </g>
     <g id="text_9">
      <!-- Nov -->
      <g style="fill: #555555" transform="translate(428.679518 187.918437) scale(0.1 -0.1)">
       <defs>
        <path id="DejaVuSans-4e" d="M 628 4666 
L 1478 4666 
L 3547 763 
L 3547 4666 
L 4159 4666 
L 4159 0 
L 3309 0 
L 1241 3903 
L 1241 0 
L 628 0 
L 628 4666 
z
" transform="scale(0.015625)"/>
        <path id="DejaVuSans-6f" d="M 1959 3097 
Q 1497 3097 1228 2736 
Q 959 2375 959 1747 
Q 959 1119 1226 758 
Q 1494 397 1959 397 
Q 2419 397 2687 759 
Q 2956 1122 2956 1747 
Q 2956 2369 2687 2733 
Q 2419 3097 1959 3097 
z
M 1959 3584 
Q 2709 3584 3137 3096 
Q 3566 2609 3566 1747 
Q 3566 888 3137 398 
Q 2709 -91 1959 -91 
Q 1206 -91 779 398 
Q 353 888 353 1747 
Q 353 2609 779 3096 
Q 1206 3584 1959 3584 
z
" transform="scale(0.015625)"/>
        <path id="DejaVuSans-76" d="M 191 3500 
L 800 3500 
L 1894 563 
L 2988 3500 
L 3597 3500 
L 2284 0 
L 1503 0 
L 191 3500 
z
" transform="scale(0.015625)"/>
       </defs>
       <use xlink:href="#DejaVuSans-4e"/>
       <use xlink:href="#DejaVuSans-6f" x="74.804688"/>
       <use xlink:href="#DejaVuSans-76" x="135.986328"/>
      </g>
     </g>
    </g>
    <g id="xtick_10">
     <g id="line2d_19">
      <path d="M 485.256375 173.32 
L 485.256375 27.6 
" clip-path="url(#pb4a8667521)" style="fill: none; stroke: #ffffff; stroke-width: 0.8; stroke-linecap: square"/>
     </g>
     <g id="line2d_20">
      <g>
       <use xlink:href="#med4dc218e8" x="485.256375" y="173.32" style="fill: #555555; stroke: #555555; stroke-width: 0.8"/>
      </g>
     </g>
     <g id="text_10">
      <!-- Dec -->
      <g style="fill: #555555" transform="translate(475.580594 187.918437) scale(0.1 -0.1)">
       <defs>
        <path id="DejaVuSans-44" d="M 1259 4147 
L 1259 519 
L 2022 519 
Q 2988 519 3436 956 
Q 3884 1394 3884 2338 
Q 3884 3275 3436 3711 
Q 2988 4147 2022 4147 
L 1259 4147 
z
M 628 4666 
L 1925 4666 
Q 3281 4666 3915 4102 
Q 4550 3538 4550 2338 
Q 4550 1131 3912 565 
Q 3275 0 1925 0 
L 628 0 
L 628 4666 
z
" transform="scale(0.015625)"/>
       </defs>
       <use xlink:href="#DejaVuSans-44"/>
       <use xlink:href="#DejaVuSans-65" x="77.001953"/>
       <use xlink:href="#DejaVuSans-63" x="138.525391"/>
      </g>
     </g>
    </g>
    <g id="xtick_11">
     <g id="line2d_21">
      <path d="M 533.634441 173.32 
L 533.634441 27.6 
" clip-path="url(#pb4a8667521)" style="fill: none; stroke: #ffffff; stroke-width: 0.8; stroke-linecap: square"/>
     </g>
     <g id="line2d_22">
      <g>
       <use xlink:href="#med4dc218e8" x="533.634441" y="173.32" style="fill: #555555; stroke: #555555; stroke-width: 0.8"/>
      </g>
     </g>
     <g id="text_11">
      <!-- Jan -->
      <g style="fill: #555555" transform="translate(525.926628 187.918437) scale(0.1 -0.1)">
       <use xlink:href="#DejaVuSans-4a"/>
       <use xlink:href="#DejaVuSans-61" x="29.492188"/>
       <use xlink:href="#DejaVuSans-6e" x="90.771484"/>
      </g>
     </g>
    </g>
    <g id="xtick_12">
     <g id="line2d_23">
      <path d="M 582.012506 173.32 
L 582.012506 27.6 
" clip-path="url(#pb4a8667521)" style="fill: none; stroke: #ffffff; stroke-width: 0.8; stroke-linecap: square"/>
     </g>
     <g id="line2d_24">
      <g>
       <use xlink:href="#med4dc218e8" x="582.012506" y="173.32" style="fill: #555555; stroke: #555555; stroke-width: 0.8"/>
      </g>
     </g>
     <g id="text_12">
      <!-- Feb -->
      <g style="fill: #555555" transform="translate(573.160943 187.918437) scale(0.1 -0.1)">
       <defs>
        <path id="DejaVuSans-46" d="M 628 4666 
L 3309 4666 
L 3309 4134 
L 1259 4134 
L 1259 2759 
L 3109 2759 
L 3109 2228 
L 1259 2228 
L 1259 0 
L 628 0 
L 628 4666 
z
" transform="scale(0.015625)"/>
        <path id="DejaVuSans-62" d="M 3116 1747 
Q 3116 2381 2855 2742 
Q 2594 3103 2138 3103 
Q 1681 3103 1420 2742 
Q 1159 2381 1159 1747 
Q 1159 1113 1420 752 
Q 1681 391 2138 391 
Q 2594 391 2855 752 
Q 3116 1113 3116 1747 
z
M 1159 2969 
Q 1341 3281 1617 3432 
Q 1894 3584 2278 3584 
Q 2916 3584 3314 3078 
Q 3713 2572 3713 1747 
Q 3713 922 3314 415 
Q 2916 -91 2278 -91 
Q 1894 -91 1617 61 
Q 1341 213 1159 525 
L 1159 0 
L 581 0 
L 581 4863 
L 1159 4863 
L 1159 2969 
z
" transform="scale(0.015625)"/>
       </defs>
       <use xlink:href="#DejaVuSans-46"/>
       <use xlink:href="#DejaVuSans-65" x="52.019531"/>
       <use xlink:href="#DejaVuSans-62" x="113.542969"/>
      </g>
     </g>
    </g>
    <g id="xtick_13">
     <g id="line2d_25">
      <path d="M 625.708823 173.32 
L 625.708823 27.6 
" clip-path="url(#pb4a8667521)" style="fill: none; stroke: #ffffff; stroke-width: 0.8; stroke-linecap: square"/>
     </g>
     <g id="line2d_26">
      <g>
       <use xlink:href="#med4dc218e8" x="625.708823" y="173.32" style="fill: #555555; stroke: #555555; stroke-width: 0.8"/>
      </g>
     </g>
     <g id="text_13">
      <!-- Mar -->
      <g style="fill: #555555" transform="translate(616.275229 187.918437) scale(0.1 -0.1)">
       <use xlink:href="#DejaVuSans-4d"/>
       <use xlink:href="#DejaVuSans-61" x="86.279297"/>
       <use xlink:href="#DejaVuSans-72" x="147.558594"/>
      </g>
     </g>
    </g>
    <g id="xtick_14">
     <g id="line2d_27">
      <path d="M 674.086888 173.32 
L 674.086888 27.6 
" clip-path="url(#pb4a8667521)" style="fill: none; stroke: #ffffff; stroke-width: 0.8; stroke-linecap: square"/>
     </g>
     <g id="line2d_28">
      <g>
       <use xlink:href="#med4dc218e8" x="674.086888" y="173.32" style="fill: #555555; stroke: #555555; stroke-width: 0.8"/>
      </g>
     </g>
     <g id="text_14">
      <!-- Apr -->
      <g style="fill: #555555" transform="translate(665.436888 187.918437) scale(0.1 -0.1)">
       <use xlink:href="#DejaVuSans-41"/>
       <use xlink:href="#DejaVuSans-70" x="68.408203"/>
       <use xlink:href="#DejaVuSans-72" x="131.884766"/>
      </g>
     </g>
    </g>
    <g id="text_15">
     <!-- Date -->
     <g style="fill: #555555" transform="translate(360.114063 203.11625) scale(0.12 -0.12)">
      <use xlink:href="#DejaVuSans-44"/>
      <use xlink:href="#DejaVuSans-61" x="77.001953"/>
      <use xlink:href="#DejaVuSans-74" x="138.28125"/>
      <use xlink:href="#DejaVuSans-65" x="177.490234"/>
     </g>
    </g>
   </g>
   <g id="matplotlib.axis_2">
    <g id="ytick_1">
     <g id="line2d_29">
      <path d="M 39.71 169.08326 
L 709.2 169.08326 
" clip-path="url(#pb4a8667521)" style="fill: none; stroke: #ffffff; stroke-width: 0.8; stroke-linecap: square"/>
     </g>
     <g id="line2d_30">
      <defs>
       <path id="m8d7464a316" d="M 0 0 
L -3.5 0 
" style="stroke: #555555; stroke-width: 0.8"/>
      </defs>
      <g>
       <use xlink:href="#m8d7464a316" x="39.71" y="169.08326" style="fill: #555555; stroke: #555555; stroke-width: 0.8"/>
      </g>
     </g>
     <g id="text_16">
      <!-- 0 -->
      <g style="fill: #555555" transform="translate(26.3475 172.882478) scale(0.1 -0.1)">
       <defs>
        <path id="DejaVuSans-30" d="M 2034 4250 
Q 1547 4250 1301 3770 
Q 1056 3291 1056 2328 
Q 1056 1369 1301 889 
Q 1547 409 2034 409 
Q 2525 409 2770 889 
Q 3016 1369 3016 2328 
Q 3016 3291 2770 3770 
Q 2525 4250 2034 4250 
z
M 2034 4750 
Q 2819 4750 3233 4129 
Q 3647 3509 3647 2328 
Q 3647 1150 3233 529 
Q 2819 -91 2034 -91 
Q 1250 -91 836 529 
Q 422 1150 422 2328 
Q 422 3509 836 4129 
Q 1250 4750 2034 4750 
z
" transform="scale(0.015625)"/>
       </defs>
       <use xlink:href="#DejaVuSans-30"/>
      </g>
     </g>
    </g>
    <g id="ytick_2">
     <g id="line2d_31">
      <path d="M 39.71 145.2143 
L 709.2 145.2143 
" clip-path="url(#pb4a8667521)" style="fill: none; stroke: #ffffff; stroke-width: 0.8; stroke-linecap: square"/>
     </g>
     <g id="line2d_32">
      <g>
       <use xlink:href="#m8d7464a316" x="39.71" y="145.2143" style="fill: #555555; stroke: #555555; stroke-width: 0.8"/>
      </g>
     </g>
     <g id="text_17">
      <!-- 1 -->
      <g style="fill: #555555" transform="translate(26.3475 149.013519) scale(0.1 -0.1)">
       <defs>
        <path id="DejaVuSans-31" d="M 794 531 
L 1825 531 
L 1825 4091 
L 703 3866 
L 703 4441 
L 1819 4666 
L 2450 4666 
L 2450 531 
L 3481 531 
L 3481 0 
L 794 0 
L 794 531 
z
" transform="scale(0.015625)"/>
       </defs>
       <use xlink:href="#DejaVuSans-31"/>
      </g>
     </g>
    </g>
    <g id="ytick_3">
     <g id="line2d_33">
      <path d="M 39.71 121.34534 
L 709.2 121.34534 
" clip-path="url(#pb4a8667521)" style="fill: none; stroke: #ffffff; stroke-width: 0.8; stroke-linecap: square"/>
     </g>
     <g id="line2d_34">
      <g>
       <use xlink:href="#m8d7464a316" x="39.71" y="121.34534" style="fill: #555555; stroke: #555555; stroke-width: 0.8"/>
      </g>
     </g>
     <g id="text_18">
      <!-- 2 -->
      <g style="fill: #555555" transform="translate(26.3475 125.144559) scale(0.1 -0.1)">
       <defs>
        <path id="DejaVuSans-32" d="M 1228 531 
L 3431 531 
L 3431 0 
L 469 0 
L 469 531 
Q 828 903 1448 1529 
Q 2069 2156 2228 2338 
Q 2531 2678 2651 2914 
Q 2772 3150 2772 3378 
Q 2772 3750 2511 3984 
Q 2250 4219 1831 4219 
Q 1534 4219 1204 4116 
Q 875 4013 500 3803 
L 500 4441 
Q 881 4594 1212 4672 
Q 1544 4750 1819 4750 
Q 2544 4750 2975 4387 
Q 3406 4025 3406 3419 
Q 3406 3131 3298 2873 
Q 3191 2616 2906 2266 
Q 2828 2175 2409 1742 
Q 1991 1309 1228 531 
z
" transform="scale(0.015625)"/>
       </defs>
       <use xlink:href="#DejaVuSans-32"/>
      </g>
     </g>
    </g>
    <g id="ytick_4">
     <g id="line2d_35">
      <path d="M 39.71 97.47638 
L 709.2 97.47638 
" clip-path="url(#pb4a8667521)" style="fill: none; stroke: #ffffff; stroke-width: 0.8; stroke-linecap: square"/>
     </g>
     <g id="line2d_36">
      <g>
       <use xlink:href="#m8d7464a316" x="39.71" y="97.47638" style="fill: #555555; stroke: #555555; stroke-width: 0.8"/>
      </g>
     </g>
     <g id="text_19">
      <!-- 3 -->
      <g style="fill: #555555" transform="translate(26.3475 101.275599) scale(0.1 -0.1)">
       <defs>
        <path id="DejaVuSans-33" d="M 2597 2516 
Q 3050 2419 3304 2112 
Q 3559 1806 3559 1356 
Q 3559 666 3084 287 
Q 2609 -91 1734 -91 
Q 1441 -91 1130 -33 
Q 819 25 488 141 
L 488 750 
Q 750 597 1062 519 
Q 1375 441 1716 441 
Q 2309 441 2620 675 
Q 2931 909 2931 1356 
Q 2931 1769 2642 2001 
Q 2353 2234 1838 2234 
L 1294 2234 
L 1294 2753 
L 1863 2753 
Q 2328 2753 2575 2939 
Q 2822 3125 2822 3475 
Q 2822 3834 2567 4026 
Q 2313 4219 1838 4219 
Q 1578 4219 1281 4162 
Q 984 4106 628 3988 
L 628 4550 
Q 988 4650 1302 4700 
Q 1616 4750 1894 4750 
Q 2613 4750 3031 4423 
Q 3450 4097 3450 3541 
Q 3450 3153 3228 2886 
Q 3006 2619 2597 2516 
z
" transform="scale(0.015625)"/>
       </defs>
       <use xlink:href="#DejaVuSans-33"/>
      </g>
     </g>
    </g>
    <g id="ytick_5">
     <g id="line2d_37">
      <path d="M 39.71 73.60742 
L 709.2 73.60742 
" clip-path="url(#pb4a8667521)" style="fill: none; stroke: #ffffff; stroke-width: 0.8; stroke-linecap: square"/>
     </g>
     <g id="line2d_38">
      <g>
       <use xlink:href="#m8d7464a316" x="39.71" y="73.60742" style="fill: #555555; stroke: #555555; stroke-width: 0.8"/>
      </g>
     </g>
     <g id="text_20">
      <!-- 4 -->
      <g style="fill: #555555" transform="translate(26.3475 77.406639) scale(0.1 -0.1)">
       <defs>
        <path id="DejaVuSans-34" d="M 2419 4116 
L 825 1625 
L 2419 1625 
L 2419 4116 
z
M 2253 4666 
L 3047 4666 
L 3047 1625 
L 3713 1625 
L 3713 1100 
L 3047 1100 
L 3047 0 
L 2419 0 
L 2419 1100 
L 313 1100 
L 313 1709 
L 2253 4666 
z
" transform="scale(0.015625)"/>
       </defs>
       <use xlink:href="#DejaVuSans-34"/>
      </g>
     </g>
    </g>
    <g id="ytick_6">
     <g id="line2d_39">
      <path d="M 39.71 49.73846 
L 709.2 49.73846 
" clip-path="url(#pb4a8667521)" style="fill: none; stroke: #ffffff; stroke-width: 0.8; stroke-linecap: square"/>
     </g>
     <g id="line2d_40">
      <g>
       <use xlink:href="#m8d7464a316" x="39.71" y="49.73846" style="fill: #555555; stroke: #555555; stroke-width: 0.8"/>
      </g>
     </g>
     <g id="text_21">
      <!-- 5 -->
      <g style="fill: #555555" transform="translate(26.3475 53.537679) scale(0.1 -0.1)">
       <defs>
        <path id="DejaVuSans-35" d="M 691 4666 
L 3169 4666 
L 3169 4134 
L 1269 4134 
L 1269 2991 
Q 1406 3038 1543 3061 
Q 1681 3084 1819 3084 
Q 2600 3084 3056 2656 
Q 3513 2228 3513 1497 
Q 3513 744 3044 326 
Q 2575 -91 1722 -91 
Q 1428 -91 1123 -41 
Q 819 9 494 109 
L 494 744 
Q 775 591 1075 516 
Q 1375 441 1709 441 
Q 2250 441 2565 725 
Q 2881 1009 2881 1497 
Q 2881 1984 2565 2268 
Q 2250 2553 1709 2553 
Q 1456 2553 1204 2497 
Q 953 2441 691 2322 
L 691 4666 
z
" transform="scale(0.015625)"/>
       </defs>
       <use xlink:href="#DejaVuSans-35"/>
      </g>
     </g>
    </g>
    <g id="text_22">
     <!-- Concentration (µg/m³) -->
     <g style="fill: #555555" transform="translate(19.851875 167.391875) rotate(-90) scale(0.12 -0.12)">
      <defs>
       <path id="DejaVuSans-43" d="M 4122 4306 
L 4122 3641 
Q 3803 3938 3442 4084 
Q 3081 4231 2675 4231 
Q 1875 4231 1450 3742 
Q 1025 3253 1025 2328 
Q 1025 1406 1450 917 
Q 1875 428 2675 428 
Q 3081 428 3442 575 
Q 3803 722 4122 1019 
L 4122 359 
Q 3791 134 3420 21 
Q 3050 -91 2638 -91 
Q 1578 -91 968 557 
Q 359 1206 359 2328 
Q 359 3453 968 4101 
Q 1578 4750 2638 4750 
Q 3056 4750 3426 4639 
Q 3797 4528 4122 4306 
z
" transform="scale(0.015625)"/>
       <path id="DejaVuSans-69" d="M 603 3500 
L 1178 3500 
L 1178 0 
L 603 0 
L 603 3500 
z
M 603 4863 
L 1178 4863 
L 1178 4134 
L 603 4134 
L 603 4863 
z
" transform="scale(0.015625)"/>
       <path id="DejaVuSans-20" transform="scale(0.015625)"/>
       <path id="DejaVuSans-28" d="M 1984 4856 
Q 1566 4138 1362 3434 
Q 1159 2731 1159 2009 
Q 1159 1288 1364 580 
Q 1569 -128 1984 -844 
L 1484 -844 
Q 1016 -109 783 600 
Q 550 1309 550 2009 
Q 550 2706 781 3412 
Q 1013 4119 1484 4856 
L 1984 4856 
z
" transform="scale(0.015625)"/>
       <path id="DejaVuSans-b5" d="M 544 -1331 
L 544 3500 
L 1119 3500 
L 1119 1325 
Q 1119 872 1334 640 
Q 1550 409 1972 409 
Q 2434 409 2667 671 
Q 2900 934 2900 1459 
L 2900 3500 
L 3475 3500 
L 3475 806 
Q 3475 619 3529 530 
Q 3584 441 3700 441 
Q 3728 441 3778 458 
Q 3828 475 3916 513 
L 3916 50 
Q 3788 -22 3673 -56 
Q 3559 -91 3450 -91 
Q 3234 -91 3106 31 
Q 2978 153 2931 403 
Q 2775 156 2548 32 
Q 2322 -91 2016 -91 
Q 1697 -91 1473 31 
Q 1250 153 1119 397 
L 1119 -1331 
L 544 -1331 
z
" transform="scale(0.015625)"/>
       <path id="DejaVuSans-2f" d="M 1625 4666 
L 2156 4666 
L 531 -594 
L 0 -594 
L 1625 4666 
z
" transform="scale(0.015625)"/>
       <path id="DejaVuSans-6d" d="M 3328 2828 
Q 3544 3216 3844 3400 
Q 4144 3584 4550 3584 
Q 5097 3584 5394 3201 
Q 5691 2819 5691 2113 
L 5691 0 
L 5113 0 
L 5113 2094 
Q 5113 2597 4934 2840 
Q 4756 3084 4391 3084 
Q 3944 3084 3684 2787 
Q 3425 2491 3425 1978 
L 3425 0 
L 2847 0 
L 2847 2094 
Q 2847 2600 2669 2842 
Q 2491 3084 2119 3084 
Q 1678 3084 1418 2786 
Q 1159 2488 1159 1978 
L 1159 0 
L 581 0 
L 581 3500 
L 1159 3500 
L 1159 2956 
Q 1356 3278 1631 3431 
Q 1906 3584 2284 3584 
Q 2666 3584 2933 3390 
Q 3200 3197 3328 2828 
z
" transform="scale(0.015625)"/>
       <path id="DejaVuSans-b3" d="M 1638 3500 
Q 1925 3444 2083 3273 
Q 2241 3103 2241 2847 
Q 2241 2459 1944 2250 
Q 1647 2041 1094 2041 
Q 916 2041 720 2073 
Q 525 2106 306 2169 
L 306 2547 
Q 469 2463 655 2422 
Q 841 2381 1050 2381 
Q 1391 2381 1578 2504 
Q 1766 2628 1766 2847 
Q 1766 3078 1592 3197 
Q 1419 3316 1081 3316 
L 813 3316 
L 813 3653 
L 1106 3653 
Q 1400 3653 1551 3751 
Q 1703 3850 1703 4038 
Q 1703 4219 1547 4314 
Q 1391 4409 1094 4409 
Q 969 4409 809 4381 
Q 650 4353 397 4281 
L 397 4641 
Q 625 4694 825 4722 
Q 1025 4750 1197 4750 
Q 1647 4750 1911 4565 
Q 2175 4381 2175 4072 
Q 2175 3856 2034 3706 
Q 1894 3556 1638 3500 
z
" transform="scale(0.015625)"/>
       <path id="DejaVuSans-29" d="M 513 4856 
L 1013 4856 
Q 1481 4119 1714 3412 
Q 1947 2706 1947 2009 
Q 1947 1309 1714 600 
Q 1481 -109 1013 -844 
L 513 -844 
Q 928 -128 1133 580 
Q 1338 1288 1338 2009 
Q 1338 2731 1133 3434 
Q 928 4138 513 4856 
z
" transform="scale(0.015625)"/>
      </defs>
      <use xlink:href="#DejaVuSans-43"/>
      <use xlink:href="#DejaVuSans-6f" x="69.824219"/>
      <use xlink:href="#DejaVuSans-6e" x="131.005859"/>
      <use xlink:href="#DejaVuSans-63" x="194.384766"/>
      <use xlink:href="#DejaVuSans-65" x="249.365234"/>
      <use xlink:href="#DejaVuSans-6e" x="310.888672"/>
      <use xlink:href="#DejaVuSans-74" x="374.267578"/>
      <use xlink:href="#DejaVuSans-72" x="413.476562"/>
      <use xlink:href="#DejaVuSans-61" x="454.589844"/>
      <use xlink:href="#DejaVuSans-74" x="515.869141"/>
      <use xlink:href="#DejaVuSans-69" x="555.078125"/>
      <use xlink:href="#DejaVuSans-6f" x="582.861328"/>
      <use xlink:href="#DejaVuSans-6e" x="644.042969"/>
      <use xlink:href="#DejaVuSans-20" x="707.421875"/>
      <use xlink:href="#DejaVuSans-28" x="739.208984"/>
      <use xlink:href="#DejaVuSans-b5" x="778.222656"/>
      <use xlink:href="#DejaVuSans-67" x="841.845703"/>
      <use xlink:href="#DejaVuSans-2f" x="905.322266"/>
      <use xlink:href="#DejaVuSans-6d" x="939.013672"/>
      <use xlink:href="#DejaVuSans-b3" x="1036.425781"/>
      <use xlink:href="#DejaVuSans-29" x="1076.513672"/>
     </g>
    </g>
   </g>
   <g id="line2d_41">
    <path d="M 70.141364 122.140972 
L 71.701946 115.637545 
L 73.262529 102.141677 
L 74.823112 104.740846 
L 76.383695 110.137307 
L 77.944277 85.438122 
L 79.50486 102.976619 
L 81.065443 95.712153 
L 82.626026 104.637068 
L 84.186608 98.306605 
L 85.747191 118.64711 
L 87.307774 121.552896 
L 88.868357 118.024441 
L 90.428939 121.241562 
L 91.989522 118.958444 
L 93.550105 123.632782 
L 95.110688 124.229506 
L 96.67127 125.081351 
L 98.231853 131.78801 
L 99.792436 134.075452 
L 101.353019 116.571548 
L 102.913601 123.135512 
L 104.474184 108.217412 
L 106.034767 102.250172 
L 107.59535 131.847682 
L 110.716515 103.273127 
L 112.277098 115.775916 
L 113.837681 129.997838 
L 115.398263 107.542854 
L 116.958846 110.504854 
L 118.519429 127.213126 
L 120.080012 140.33673 
L 121.640594 148.496282 
L 123.201177 120.052438 
L 124.76176 117.963904 
L 126.322343 69.151881 
L 127.882925 90.216238 
L 129.443508 115.775916 
L 138.807005 84.034387 
L 140.367587 119.166 
L 141.92817 139.402727 
L 143.488753 133.383598 
L 145.049336 115.948879 
L 146.609918 101.731282 
L 148.170501 94.363037 
L 149.731084 98.202827 
L 151.291667 119.996225 
L 152.852249 130.685368 
L 154.412832 117.297995 
L 155.973415 114.080874 
L 157.533998 118.741453 
L 159.09458 121.449118 
L 160.655163 116.779104 
L 162.215746 135.666716 
L 165.336911 108.296975 
L 166.897494 102.35395 
L 168.458077 106.297517 
L 170.01866 111.693978 
L 171.579242 111.146784 
L 173.139825 126.534244 
L 174.700408 135.666716 
L 176.260991 128.92114 
L 177.821573 114.495986 
L 179.382156 112.627981 
L 180.942739 111.175087 
L 182.503322 115.014877 
L 184.063904 121.137784 
L 185.624487 138.053612 
L 187.18507 142.067937 
L 188.745653 129.898384 
L 190.306235 121.643702 
L 193.427401 128.771239 
L 194.987984 148.903139 
L 196.548566 153.412769 
L 198.109149 132.802441 
L 199.669732 118.958444 
L 201.230315 149.988092 
L 204.35148 100.758362 
L 205.912063 134.473268 
L 207.472646 145.2143 
L 209.033228 115.948879 
L 210.593811 110.4054 
L 212.154394 110.206492 
L 213.714977 105.571071 
L 215.275559 116.882882 
L 216.836142 137.655796 
L 218.396725 151.67881 
L 219.957308 140.129174 
L 221.51789 117.665542 
L 223.078473 117.566088 
L 224.639056 115.533767 
L 226.199639 120.251346 
L 227.760221 139.048152 
L 229.320804 134.421379 
L 230.881387 125.920224 
L 232.44197 116.571548 
L 234.002552 110.448641 
L 235.563135 127.610942 
L 237.123718 119.35626 
L 238.684301 133.694932 
L 240.244883 137.25798 
L 241.805466 118.958444 
L 243.366049 111.486422 
L 244.926632 112.39448 
L 246.487214 117.466634 
L 248.047797 119.581112 
L 249.60838 137.655796 
L 251.168963 144.816484 
L 252.729545 119.684891 
L 254.290128 109.41086 
L 255.850711 110.504854 
L 257.411294 115.429989 
L 258.971876 126.417494 
L 260.532459 145.71157 
L 262.093042 148.794644 
L 263.653625 126.22291 
L 265.214207 112.692842 
L 266.77479 113.985744 
L 268.335373 116.882882 
L 269.895956 116.37264 
L 271.456538 131.489648 
L 273.017121 150.403204 
L 274.577704 136.968659 
L 277.698869 86.337532 
L 279.259452 114.510138 
L 280.820035 122.638242 
L 282.380618 138.053612 
L 283.9412 147.39364 
L 285.501783 141.23614 
L 293.304697 125.491001 
L 294.86528 145.612116 
L 296.425862 138.468724 
L 297.986445 166.696364 
L 302.668193 119.460948 
L 304.228776 139.445968 
L 305.789359 143.424128 
L 307.349942 133.591154 
L 308.910524 133.876544 
L 310.471107 138.053612 
L 312.03169 137.846056 
L 313.592273 144.617576 
L 315.152855 148.496282 
L 316.713438 150.922095 
L 318.274021 142.827404 
L 319.834604 140.223517 
L 321.395186 132.981458 
L 322.955769 142.827404 
L 329.1981 136.860164 
L 330.758683 136.163986 
L 332.319266 132.882004 
L 333.879848 136.704497 
L 335.440431 130.196746 
L 337.001014 146.237255 
L 341.682762 117.526306 
L 343.243345 115.676462 
L 344.803928 125.164373 
L 346.36451 89.974707 
L 347.925093 128.008758 
L 349.485676 137.954158 
L 351.046259 135.147825 
L 352.606841 123.949226 
L 354.167424 89.633722 
L 355.728007 115.676462 
L 357.28859 122.538788 
L 358.849172 130.892924 
L 361.970338 98.21081 
L 363.530921 151.18154 
L 365.091503 81.450078 
L 366.652086 118.759536 
L 368.212669 132.484188 
L 369.773252 136.393162 
L 371.333834 122.140972 
L 372.894417 104.844624 
L 374.455 97.874196 
L 376.015583 103.244712 
L 377.576166 109.722194 
L 379.136748 112.096118 
L 380.697331 139.445968 
L 382.257914 132.242039 
L 383.818497 117.764996 
L 385.379079 101.45454 
L 386.939662 102.872841 
L 388.500245 93.98784 
L 390.060828 104.637068 
L 399.424324 69.13199 
L 400.984907 107.123418 
L 402.54549 108.814136 
L 404.106072 130.477811 
L 405.666655 110.504854 
L 407.227238 138.849244 
L 408.787821 136.860164 
L 419.7119 34.223636 
L 421.272483 93.221478 
L 422.833065 94.674372 
L 425.954231 121.034006 
L 427.514814 81.702111 
L 429.075396 81.390777 
L 430.635979 112.10909 
L 432.196562 105.259736 
L 433.757145 108.165523 
L 435.317727 100.278388 
L 436.87831 117.194216 
L 438.438893 103.495509 
L 439.999476 65.720286 
L 441.560058 108.165523 
L 443.120641 104.487887 
L 444.681224 95.288392 
L 446.241807 113.488474 
L 447.802389 137.223387 
L 449.362972 128.028649 
L 450.923555 107.023964 
L 452.484138 126.616402 
L 454.04472 99.46546 
L 455.605303 121.968008 
L 457.165886 122.638242 
L 458.726469 154.463522 
L 460.287051 128.713584 
L 461.847634 113.587928 
L 463.408217 88.551465 
L 464.9688 88.52552 
L 466.529382 75.497046 
L 468.089965 122.694455 
L 469.650548 144.695409 
L 471.211131 103.769106 
L 472.771713 48.285567 
L 474.332296 85.939716 
L 475.892879 99.067644 
L 477.453462 58.248263 
L 479.014044 79.674114 
L 480.574627 116.675326 
L 482.13521 105.134338 
L 483.695793 106.626148 
L 486.816958 78.977936 
L 488.377541 84.646814 
L 491.498706 135.76617 
L 493.059289 112.096118 
L 494.619872 112.212868 
L 497.741037 135.666716 
L 499.30162 127.883359 
L 500.862203 123.036058 
L 502.422786 101.255632 
L 503.983368 85.645678 
L 505.543951 81.165924 
L 507.104534 95.387846 
L 508.665117 63.437168 
L 510.225699 87.53098 
L 511.786282 127.014218 
L 513.346865 103.910621 
L 514.907448 112.792296 
L 516.46803 120.549708 
L 518.028613 116.052657 
L 519.589196 72.11561 
L 521.149779 42.080502 
L 522.710361 75.475426 
L 524.270944 134.970538 
L 525.831527 131.688556 
L 527.39211 140.440508 
L 533.634441 118.128219 
L 535.195023 120.251346 
L 536.755606 108.580635 
L 538.316189 109.808676 
L 539.876772 97.078564 
L 541.437354 129.232474 
L 542.997937 105.4327 
L 544.55852 102.150718 
L 546.119103 128.298472 
L 547.679685 118.307472 
L 549.240268 101.95181 
L 550.800851 90.938361 
L 552.361434 105.134338 
L 553.922016 93.896036 
L 555.482599 105.05218 
L 557.043182 132.583642 
L 558.603765 101.255632 
L 560.164347 95.504596 
L 561.72493 145.612116 
L 563.285513 108.615228 
L 564.846096 95.815931 
L 566.406678 142.067937 
L 567.967261 149.988092 
L 569.527844 146.407748 
L 571.088427 157.944412 
L 572.649009 156.402875 
L 574.209592 136.317687 
L 575.770175 134.373814 
L 577.330758 145.313754 
L 578.89134 145.73319 
L 580.451923 106.920186 
L 582.012506 100.658908 
L 583.573089 89.122244 
L 585.133671 104.325734 
L 586.694254 124.925684 
L 588.254837 134.871084 
L 589.81542 140.544286 
L 591.376002 135.76617 
L 592.936585 134.77163 
L 594.497168 121.552896 
L 596.057751 98.172558 
L 597.618333 69.728714 
L 599.178916 85.334344 
L 600.739499 113.38902 
L 602.300082 128.80439 
L 603.860664 134.317601 
L 605.421247 116.472094 
L 606.98183 126.914764 
L 608.542413 124.354904 
L 610.102995 126.516948 
L 611.663578 140.73887 
L 613.224161 121.034006 
L 614.784744 121.444794 
L 616.345326 128.207666 
L 617.905909 115.533767 
L 619.466492 111.101578 
L 621.027075 113.190112 
L 622.587657 127.053135 
L 624.14824 144.617576 
L 625.708823 144.71703 
L 627.269406 124.251126 
L 628.829988 117.36718 
L 630.390571 99.366006 
L 631.951154 126.326688 
L 633.511737 137.25798 
L 635.072319 131.986918 
L 636.632902 109.722194 
L 638.193485 106.526694 
L 639.754068 112.991204 
L 641.31465 128.92114 
L 642.875233 151.420229 
L 644.435816 148.396828 
L 645.996399 111.5902 
L 647.556981 109.609768 
L 649.117564 108.714682 
L 650.678147 109.514638 
L 652.23873 105.233792 
L 653.799312 123.433874 
L 655.359895 130.477811 
L 656.920478 108.316866 
L 658.481061 111.002124 
L 660.041643 98.721717 
L 661.602226 105.233792 
L 663.162809 109.311406 
L 664.723392 127.364469 
L 666.283974 137.158526 
L 667.844557 133.27982 
L 669.40514 113.250649 
L 670.965723 123.33442 
L 672.526305 135.965078 
L 674.086888 142.619848 
L 675.647471 148.69519 
L 677.208054 141.832864 
L 678.768636 119.469922 
L 678.768636 119.469922 
" clip-path="url(#pb4a8667521)" style="fill: none; stroke: #4c72b0; stroke-width: 2; stroke-linecap: square"/>
   </g>
   <g id="patch_3">
    <path d="M 39.71 173.32 
L 39.71 27.6 
" style="fill: none; stroke: #ffffff; stroke-linejoin: miter; stroke-linecap: square"/>
   </g>
   <g id="patch_4">
    <path d="M 709.2 173.32 
L 709.2 27.6 
" style="fill: none; stroke: #ffffff; stroke-linejoin: miter; stroke-linecap: square"/>
   </g>
   <g id="patch_5">
    <path d="M 39.71 173.32 
L 709.2 173.32 
" style="fill: none; stroke: #ffffff; stroke-linejoin: miter; stroke-linecap: square"/>
   </g>
   <g id="patch_6">
    <path d="M 39.71 27.6 
L 709.2 27.6 
" style="fill: none; stroke: #ffffff; stroke-linejoin: miter; stroke-linecap: square"/>
   </g>
   <g id="text_23">
    <!-- Daily Average of CO(GT) Concentration -->
    <g transform="translate(237.525156 21.6) scale(0.14 -0.14)">
     <defs>
      <path id="DejaVuSans-66" d="M 2375 4863 
L 2375 4384 
L 1825 4384 
Q 1516 4384 1395 4259 
Q 1275 4134 1275 3809 
L 1275 3500 
L 2222 3500 
L 2222 3053 
L 1275 3053 
L 1275 0 
L 697 0 
L 697 3053 
L 147 3053 
L 147 3500 
L 697 3500 
L 697 3744 
Q 697 4328 969 4595 
Q 1241 4863 1831 4863 
L 2375 4863 
z
" transform="scale(0.015625)"/>
      <path id="DejaVuSans-47" d="M 3809 666 
L 3809 1919 
L 2778 1919 
L 2778 2438 
L 4434 2438 
L 4434 434 
Q 4069 175 3628 42 
Q 3188 -91 2688 -91 
Q 1594 -91 976 548 
Q 359 1188 359 2328 
Q 359 3472 976 4111 
Q 1594 4750 2688 4750 
Q 3144 4750 3555 4637 
Q 3966 4525 4313 4306 
L 4313 3634 
Q 3963 3931 3569 4081 
Q 3175 4231 2741 4231 
Q 1884 4231 1454 3753 
Q 1025 3275 1025 2328 
Q 1025 1384 1454 906 
Q 1884 428 2741 428 
Q 3075 428 3337 486 
Q 3600 544 3809 666 
z
" transform="scale(0.015625)"/>
      <path id="DejaVuSans-54" d="M -19 4666 
L 3928 4666 
L 3928 4134 
L 2272 4134 
L 2272 0 
L 1638 0 
L 1638 4134 
L -19 4134 
L -19 4666 
z
" transform="scale(0.015625)"/>
     </defs>
     <use xlink:href="#DejaVuSans-44"/>
     <use xlink:href="#DejaVuSans-61" x="77.001953"/>
     <use xlink:href="#DejaVuSans-69" x="138.28125"/>
     <use xlink:href="#DejaVuSans-6c" x="166.064453"/>
     <use xlink:href="#DejaVuSans-79" x="193.847656"/>
     <use xlink:href="#DejaVuSans-20" x="253.027344"/>
     <use xlink:href="#DejaVuSans-41" x="284.814453"/>
     <use xlink:href="#DejaVuSans-76" x="347.347656"/>
     <use xlink:href="#DejaVuSans-65" x="406.527344"/>
     <use xlink:href="#DejaVuSans-72" x="468.050781"/>
     <use xlink:href="#DejaVuSans-61" x="509.164062"/>
     <use xlink:href="#DejaVuSans-67" x="570.443359"/>
     <use xlink:href="#DejaVuSans-65" x="633.919922"/>
     <use xlink:href="#DejaVuSans-20" x="695.443359"/>
     <use xlink:href="#DejaVuSans-6f" x="727.230469"/>
     <use xlink:href="#DejaVuSans-66" x="788.412109"/>
     <use xlink:href="#DejaVuSans-20" x="823.617188"/>
     <use xlink:href="#DejaVuSans-43" x="855.404297"/>
     <use xlink:href="#DejaVuSans-4f" x="925.228516"/>
     <use xlink:href="#DejaVuSans-28" x="1003.939453"/>
     <use xlink:href="#DejaVuSans-47" x="1042.953125"/>
     <use xlink:href="#DejaVuSans-54" x="1116.818359"/>
     <use xlink:href="#DejaVuSans-29" x="1177.902344"/>
     <use xlink:href="#DejaVuSans-20" x="1216.916016"/>
     <use xlink:href="#DejaVuSans-43" x="1248.703125"/>
     <use xlink:href="#DejaVuSans-6f" x="1318.527344"/>
     <use xlink:href="#DejaVuSans-6e" x="1379.708984"/>
     <use xlink:href="#DejaVuSans-63" x="1443.087891"/>
     <use xlink:href="#DejaVuSans-65" x="1498.068359"/>
     <use xlink:href="#DejaVuSans-6e" x="1559.591797"/>
     <use xlink:href="#DejaVuSans-74" x="1622.970703"/>
     <use xlink:href="#DejaVuSans-72" x="1662.179688"/>
     <use xlink:href="#DejaVuSans-61" x="1703.292969"/>
     <use xlink:href="#DejaVuSans-74" x="1764.572266"/>
     <use xlink:href="#DejaVuSans-69" x="1803.78125"/>
     <use xlink:href="#DejaVuSans-6f" x="1831.564453"/>
     <use xlink:href="#DejaVuSans-6e" x="1892.746094"/>
    </g>
   </g>
   <g id="legend_1">
    <g id="patch_7">
     <path d="M 634.048438 50.278125 
L 702.2 50.278125 
Q 704.2 50.278125 704.2 48.278125 
L 704.2 34.6 
Q 704.2 32.6 702.2 32.6 
L 634.048438 32.6 
Q 632.048438 32.6 632.048438 34.6 
L 632.048438 48.278125 
Q 632.048438 50.278125 634.048438 50.278125 
z
" style="fill: #e5e5e5; opacity: 0.8; stroke: #cccccc; stroke-width: 0.5; stroke-linejoin: miter"/>
    </g>
    <g id="line2d_42">
     <path d="M 636.048438 40.698437 
L 646.048438 40.698437 
L 656.048438 40.698437 
" style="fill: none; stroke: #4c72b0; stroke-width: 2; stroke-linecap: square"/>
    </g>
    <g id="text_24">
     <!-- CO(GT) -->
     <g transform="translate(664.048438 44.198437) scale(0.1 -0.1)">
      <use xlink:href="#DejaVuSans-43"/>
      <use xlink:href="#DejaVuSans-4f" x="69.824219"/>
      <use xlink:href="#DejaVuSans-28" x="148.535156"/>
      <use xlink:href="#DejaVuSans-47" x="187.548828"/>
      <use xlink:href="#DejaVuSans-54" x="261.414062"/>
      <use xlink:href="#DejaVuSans-29" x="322.498047"/>
     </g>
    </g>
   </g>
  </g>
 </g>
 <defs>
  <clipPath id="pb4a8667521">
   <rect x="39.71" y="27.6" width="669.49" height="145.72"/>
  </clipPath>
 </defs>
</svg>
