<?xml version="1.0" encoding="utf-8" standalone="no"?>
<!DOCTYPE svg PUBLIC "-//W3C//DTD SVG 1.1//EN"
  "http://www.w3.org/Graphics/SVG/1.1/DTD/svg11.dtd">
<svg xmlns:xlink="http://www.w3.org/1999/xlink" width="720pt" height="216pt" viewBox="0 0 720 216" xmlns="http://www.w3.org/2000/svg" version="1.1">
 <metadata>
  <rdf:RDF xmlns:dc="http://purl.org/dc/elements/1.1/" xmlns:cc="http://creativecommons.org/ns#" xmlns:rdf="http://www.w3.org/1999/02/22-rdf-syntax-ns#">
   <cc:Work>
    <dc:type rdf:resource="http://purl.org/dc/dcmitype/StillImage"/>
    <dc:date>2024-09-17T19:07:01.968758</dc:date>
    <dc:format>image/svg+xml</dc:format>
    <dc:creator>
     <cc:Agent>
      <dc:title>Matplotlib v3.8.4, https://matplotlib.org/</dc:title>
     </cc:Agent>
    </dc:creator>
   </cc:Work>
  </rdf:RDF>
 </metadata>
 <defs>
  <style type="text/css">*{stroke-linejoin: round; stroke-linecap: butt}</style>
 </defs>
 <g id="figure_1">
  <g id="patch_1">
   <path d="M 0 216 
L 720 216 
L 720 0 
L 0 0 
z
" style="fill: #ffffff"/>
  </g>
  <g id="axes_1">
   <g id="patch_2">
    <path d="M 52.49 173.32 
L 709.2 173.32 
L 709.2 27.6 
L 52.49 27.6 
z
" style="fill: #e5e5e5"/>
   </g>
   <g id="matplotlib.axis_1">
    <g id="xtick_1">
     <g id="line2d_1">
      <path d="M 68.563322 173.32 
L 68.563322 27.6 
" clip-path="url(#pbe462c0fc1)" style="fill: none; stroke: #ffffff; stroke-width: 0.8; stroke-linecap: square"/>
     </g>
     <g id="line2d_2">
      <defs>
       <path id="mba9e46ff81" d="M 0 0 
L 0 3.5 
" style="stroke: #555555; stroke-width: 0.8"/>
      </defs>
      <g>
       <use xlink:href="#mba9e46ff81" x="68.563322" y="173.32" style="fill: #555555; stroke: #555555; stroke-width: 0.8"/>
      </g>
     </g>
     <g id="text_1">
      <!-- Mar -->
      <g style="fill: #555555" transform="translate(59.129728 187.918437) scale(0.1 -0.1)">
       <defs>
        <path id="DejaVuSans-4d" d="M 628 4666 
L 1569 4666 
L 2759 1491 
L 3956 4666 
L 4897 4666 
L 4897 0 
L 4281 0 
L 4281 4097 
L 3078 897 
L 2444 897 
L 1241 4097 
L 1241 0 
L 628 0 
L 628 4666 
z
" transform="scale(0.015625)"/>
        <path id="DejaVuSans-61" d="M 2194 1759 
Q 1497 1759 1228 1600 
Q 959 1441 959 1056 
Q 959 750 1161 570 
Q 1363 391 1709 391 
Q 2188 391 2477 730 
Q 2766 1069 2766 1631 
L 2766 1759 
L 2194 1759 
z
M 3341 1997 
L 3341 0 
L 2766 0 
L 2766 531 
Q 2569 213 2275 61 
Q 1981 -91 1556 -91 
Q 1019 -91 701 211 
Q 384 513 384 1019 
Q 384 1609 779 1909 
Q 1175 2209 1959 2209 
L 2766 2209 
L 2766 2266 
Q 2766 2663 2505 2880 
Q 2244 3097 1772 3097 
Q 1472 3097 1187 3025 
Q 903 2953 641 2809 
L 641 3341 
Q 956 3463 1253 3523 
Q 1550 3584 1831 3584 
Q 2591 3584 2966 3190 
Q 3341 2797 3341 1997 
z
" transform="scale(0.015625)"/>
        <path id="DejaVuSans-72" d="M 2631 2963 
Q 2534 3019 2420 3045 
Q 2306 3072 2169 3072 
Q 1681 3072 1420 2755 
Q 1159 2438 1159 1844 
L 1159 0 
L 581 0 
L 581 3500 
L 1159 3500 
L 1159 2956 
Q 1341 3275 1631 3429 
Q 1922 3584 2338 3584 
Q 2397 3584 2469 3576 
Q 2541 3569 2628 3553 
L 2631 2963 
z
" transform="scale(0.015625)"/>
       </defs>
       <use xlink:href="#DejaVuSans-4d"/>
       <use xlink:href="#DejaVuSans-61" x="86.279297"/>
       <use xlink:href="#DejaVuSans-72" x="147.558594"/>
      </g>
     </g>
    </g>
    <g id="xtick_2">
     <g id="line2d_3">
      <path d="M 116.01789 173.32 
L 116.01789 27.6 
" clip-path="url(#pbe462c0fc1)" style="fill: none; stroke: #ffffff; stroke-width: 0.8; stroke-linecap: square"/>
     </g>
     <g id="line2d_4">
      <g>
       <use xlink:href="#mba9e46ff81" x="116.01789" y="173.32" style="fill: #555555; stroke: #555555; stroke-width: 0.8"/>
      </g>
     </g>
     <g id="text_2">
      <!-- Apr -->
      <g style="fill: #555555" transform="translate(107.36789 187.918437) scale(0.1 -0.1)">
       <defs>
        <path id="DejaVuSans-41" d="M 2188 4044 
L 1331 1722 
L 3047 1722 
L 2188 4044 
z
M 1831 4666 
L 2547 4666 
L 4325 0 
L 3669 0 
L 3244 1197 
L 1141 1197 
L 716 0 
L 50 0 
L 1831 4666 
z
" transform="scale(0.015625)"/>
        <path id="DejaVuSans-70" d="M 1159 525 
L 1159 -1331 
L 581 -1331 
L 581 3500 
L 1159 3500 
L 1159 2969 
Q 1341 3281 1617 3432 
Q 1894 3584 2278 3584 
Q 2916 3584 3314 3078 
Q 3713 2572 3713 1747 
Q 3713 922 3314 415 
Q 2916 -91 2278 -91 
Q 1894 -91 1617 61 
Q 1341 213 1159 525 
z
M 3116 1747 
Q 3116 2381 2855 2742 
Q 2594 3103 2138 3103 
Q 1681 3103 1420 2742 
Q 1159 2381 1159 1747 
Q 1159 1113 1420 752 
Q 1681 391 2138 391 
Q 2594 391 2855 752 
Q 3116 1113 3116 1747 
z
" transform="scale(0.015625)"/>
       </defs>
       <use xlink:href="#DejaVuSans-41"/>
       <use xlink:href="#DejaVuSans-70" x="68.408203"/>
       <use xlink:href="#DejaVuSans-72" x="131.884766"/>
      </g>
     </g>
    </g>
    <g id="xtick_3">
     <g id="line2d_5">
      <path d="M 161.941667 173.32 
L 161.941667 27.6 
" clip-path="url(#pbe462c0fc1)" style="fill: none; stroke: #ffffff; stroke-width: 0.8; stroke-linecap: square"/>
     </g>
     <g id="line2d_6">
      <g>
       <use xlink:href="#mba9e46ff81" x="161.941667" y="173.32" style="fill: #555555; stroke: #555555; stroke-width: 0.8"/>
      </g>
     </g>
     <g id="text_3">
      <!-- May -->
      <g style="fill: #555555" transform="translate(151.604167 187.918437) scale(0.1 -0.1)">
       <defs>
        <path id="DejaVuSans-79" d="M 2059 -325 
Q 1816 -950 1584 -1140 
Q 1353 -1331 966 -1331 
L 506 -1331 
L 506 -850 
L 844 -850 
Q 1081 -850 1212 -737 
Q 1344 -625 1503 -206 
L 1606 56 
L 191 3500 
L 800 3500 
L 1894 763 
L 2988 3500 
L 3597 3500 
L 2059 -325 
z
" transform="scale(0.015625)"/>
       </defs>
       <use xlink:href="#DejaVuSans-4d"/>
       <use xlink:href="#DejaVuSans-61" x="86.279297"/>
       <use xlink:href="#DejaVuSans-79" x="147.558594"/>
      </g>
     </g>
    </g>
    <g id="xtick_4">
     <g id="line2d_7">
      <path d="M 209.396235 173.32 
L 209.396235 27.6 
" clip-path="url(#pbe462c0fc1)" style="fill: none; stroke: #ffffff; stroke-width: 0.8; stroke-linecap: square"/>
     </g>
     <g id="line2d_8">
      <g>
       <use xlink:href="#mba9e46ff81" x="209.396235" y="173.32" style="fill: #555555; stroke: #555555; stroke-width: 0.8"/>
      </g>
     </g>
     <g id="text_4">
      <!-- Jun -->
      <g style="fill: #555555" transform="translate(201.583735 187.918437) scale(0.1 -0.1)">
       <defs>
        <path id="DejaVuSans-4a" d="M 628 4666 
L 1259 4666 
L 1259 325 
Q 1259 -519 939 -900 
Q 619 -1281 -91 -1281 
L -331 -1281 
L -331 -750 
L -134 -750 
Q 284 -750 456 -515 
Q 628 -281 628 325 
L 628 4666 
z
" transform="scale(0.015625)"/>
        <path id="DejaVuSans-75" d="M 544 1381 
L 544 3500 
L 1119 3500 
L 1119 1403 
Q 1119 906 1312 657 
Q 1506 409 1894 409 
Q 2359 409 2629 706 
Q 2900 1003 2900 1516 
L 2900 3500 
L 3475 3500 
L 3475 0 
L 2900 0 
L 2900 538 
Q 2691 219 2414 64 
Q 2138 -91 1772 -91 
Q 1169 -91 856 284 
Q 544 659 544 1381 
z
M 1991 3584 
L 1991 3584 
z
" transform="scale(0.015625)"/>
        <path id="DejaVuSans-6e" d="M 3513 2113 
L 3513 0 
L 2938 0 
L 2938 2094 
Q 2938 2591 2744 2837 
Q 2550 3084 2163 3084 
Q 1697 3084 1428 2787 
Q 1159 2491 1159 1978 
L 1159 0 
L 581 0 
L 581 3500 
L 1159 3500 
L 1159 2956 
Q 1366 3272 1645 3428 
Q 1925 3584 2291 3584 
Q 2894 3584 3203 3211 
Q 3513 2838 3513 2113 
z
" transform="scale(0.015625)"/>
       </defs>
       <use xlink:href="#DejaVuSans-4a"/>
       <use xlink:href="#DejaVuSans-75" x="29.492188"/>
       <use xlink:href="#DejaVuSans-6e" x="92.871094"/>
      </g>
     </g>
    </g>
    <g id="xtick_5">
     <g id="line2d_9">
      <path d="M 255.320012 173.32 
L 255.320012 27.6 
" clip-path="url(#pbe462c0fc1)" style="fill: none; stroke: #ffffff; stroke-width: 0.8; stroke-linecap: square"/>
     </g>
     <g id="line2d_10">
      <g>
       <use xlink:href="#mba9e46ff81" x="255.320012" y="173.32" style="fill: #555555; stroke: #555555; stroke-width: 0.8"/>
      </g>
     </g>
     <g id="text_5">
      <!-- Jul -->
      <g style="fill: #555555" transform="translate(249.287199 187.918437) scale(0.1 -0.1)">
       <defs>
        <path id="DejaVuSans-6c" d="M 603 4863 
L 1178 4863 
L 1178 0 
L 603 0 
L 603 4863 
z
" transform="scale(0.015625)"/>
       </defs>
       <use xlink:href="#DejaVuSans-4a"/>
       <use xlink:href="#DejaVuSans-75" x="29.492188"/>
       <use xlink:href="#DejaVuSans-6c" x="92.871094"/>
      </g>
     </g>
    </g>
    <g id="xtick_6">
     <g id="line2d_11">
      <path d="M 302.77458 173.32 
L 302.77458 27.6 
" clip-path="url(#pbe462c0fc1)" style="fill: none; stroke: #ffffff; stroke-width: 0.8; stroke-linecap: square"/>
     </g>
     <g id="line2d_12">
      <g>
       <use xlink:href="#mba9e46ff81" x="302.77458" y="173.32" style="fill: #555555; stroke: #555555; stroke-width: 0.8"/>
      </g>
     </g>
     <g id="text_6">
      <!-- Aug -->
      <g style="fill: #555555" transform="translate(293.011299 187.918437) scale(0.1 -0.1)">
       <defs>
        <path id="DejaVuSans-67" d="M 2906 1791 
Q 2906 2416 2648 2759 
Q 2391 3103 1925 3103 
Q 1463 3103 1205 2759 
Q 947 2416 947 1791 
Q 947 1169 1205 825 
Q 1463 481 1925 481 
Q 2391 481 2648 825 
Q 2906 1169 2906 1791 
z
M 3481 434 
Q 3481 -459 3084 -895 
Q 2688 -1331 1869 -1331 
Q 1566 -1331 1297 -1286 
Q 1028 -1241 775 -1147 
L 775 -588 
Q 1028 -725 1275 -790 
Q 1522 -856 1778 -856 
Q 2344 -856 2625 -561 
Q 2906 -266 2906 331 
L 2906 616 
Q 2728 306 2450 153 
Q 2172 0 1784 0 
Q 1141 0 747 490 
Q 353 981 353 1791 
Q 353 2603 747 3093 
Q 1141 3584 1784 3584 
Q 2172 3584 2450 3431 
Q 2728 3278 2906 2969 
L 2906 3500 
L 3481 3500 
L 3481 434 
z
" transform="scale(0.015625)"/>
       </defs>
       <use xlink:href="#DejaVuSans-41"/>
       <use xlink:href="#DejaVuSans-75" x="68.408203"/>
       <use xlink:href="#DejaVuSans-67" x="131.787109"/>
      </g>
     </g>
    </g>
    <g id="xtick_7">
     <g id="line2d_13">
      <path d="M 350.229149 173.32 
L 350.229149 27.6 
" clip-path="url(#pbe462c0fc1)" style="fill: none; stroke: #ffffff; stroke-width: 0.8; stroke-linecap: square"/>
     </g>
     <g id="line2d_14">
      <g>
       <use xlink:href="#mba9e46ff81" x="350.229149" y="173.32" style="fill: #555555; stroke: #555555; stroke-width: 0.8"/>
      </g>
     </g>
     <g id="text_7">
      <!-- Sep -->
      <g style="fill: #555555" transform="translate(340.804149 187.918437) scale(0.1 -0.1)">
       <defs>
        <path id="DejaVuSans-53" d="M 3425 4513 
L 3425 3897 
Q 3066 4069 2747 4153 
Q 2428 4238 2131 4238 
Q 1616 4238 1336 4038 
Q 1056 3838 1056 3469 
Q 1056 3159 1242 3001 
Q 1428 2844 1947 2747 
L 2328 2669 
Q 3034 2534 3370 2195 
Q 3706 1856 3706 1288 
Q 3706 609 3251 259 
Q 2797 -91 1919 -91 
Q 1588 -91 1214 -16 
Q 841 59 441 206 
L 441 856 
Q 825 641 1194 531 
Q 1563 422 1919 422 
Q 2459 422 2753 634 
Q 3047 847 3047 1241 
Q 3047 1584 2836 1778 
Q 2625 1972 2144 2069 
L 1759 2144 
Q 1053 2284 737 2584 
Q 422 2884 422 3419 
Q 422 4038 858 4394 
Q 1294 4750 2059 4750 
Q 2388 4750 2728 4690 
Q 3069 4631 3425 4513 
z
" transform="scale(0.015625)"/>
        <path id="DejaVuSans-65" d="M 3597 1894 
L 3597 1613 
L 953 1613 
Q 991 1019 1311 708 
Q 1631 397 2203 397 
Q 2534 397 2845 478 
Q 3156 559 3463 722 
L 3463 178 
Q 3153 47 2828 -22 
Q 2503 -91 2169 -91 
Q 1331 -91 842 396 
Q 353 884 353 1716 
Q 353 2575 817 3079 
Q 1281 3584 2069 3584 
Q 2775 3584 3186 3129 
Q 3597 2675 3597 1894 
z
M 3022 2063 
Q 3016 2534 2758 2815 
Q 2500 3097 2075 3097 
Q 1594 3097 1305 2825 
Q 1016 2553 972 2059 
L 3022 2063 
z
" transform="scale(0.015625)"/>
       </defs>
       <use xlink:href="#DejaVuSans-53"/>
       <use xlink:href="#DejaVuSans-65" x="63.476562"/>
       <use xlink:href="#DejaVuSans-70" x="125"/>
      </g>
     </g>
    </g>
    <g id="xtick_8">
     <g id="line2d_15">
      <path d="M 396.152925 173.32 
L 396.152925 27.6 
" clip-path="url(#pbe462c0fc1)" style="fill: none; stroke: #ffffff; stroke-width: 0.8; stroke-linecap: square"/>
     </g>
     <g id="line2d_16">
      <g>
       <use xlink:href="#mba9e46ff81" x="396.152925" y="173.32" style="fill: #555555; stroke: #555555; stroke-width: 0.8"/>
      </g>
     </g>
     <g id="text_8">
      <!-- Oct -->
      <g style="fill: #555555" transform="translate(387.507613 187.918437) scale(0.1 -0.1)">
       <defs>
        <path id="DejaVuSans-4f" d="M 2522 4238 
Q 1834 4238 1429 3725 
Q 1025 3213 1025 2328 
Q 1025 1447 1429 934 
Q 1834 422 2522 422 
Q 3209 422 3611 934 
Q 4013 1447 4013 2328 
Q 4013 3213 3611 3725 
Q 3209 4238 2522 4238 
z
M 2522 4750 
Q 3503 4750 4090 4092 
Q 4678 3434 4678 2328 
Q 4678 1225 4090 567 
Q 3503 -91 2522 -91 
Q 1538 -91 948 565 
Q 359 1222 359 2328 
Q 359 3434 948 4092 
Q 1538 4750 2522 4750 
z
" transform="scale(0.015625)"/>
        <path id="DejaVuSans-63" d="M 3122 3366 
L 3122 2828 
Q 2878 2963 2633 3030 
Q 2388 3097 2138 3097 
Q 1578 3097 1268 2742 
Q 959 2388 959 1747 
Q 959 1106 1268 751 
Q 1578 397 2138 397 
Q 2388 397 2633 464 
Q 2878 531 3122 666 
L 3122 134 
Q 2881 22 2623 -34 
Q 2366 -91 2075 -91 
Q 1284 -91 818 406 
Q 353 903 353 1747 
Q 353 2603 823 3093 
Q 1294 3584 2113 3584 
Q 2378 3584 2631 3529 
Q 2884 3475 3122 3366 
z
" transform="scale(0.015625)"/>
        <path id="DejaVuSans-74" d="M 1172 4494 
L 1172 3500 
L 2356 3500 
L 2356 3053 
L 1172 3053 
L 1172 1153 
Q 1172 725 1289 603 
Q 1406 481 1766 481 
L 2356 481 
L 2356 0 
L 1766 0 
Q 1100 0 847 248 
Q 594 497 594 1153 
L 594 3053 
L 172 3053 
L 172 3500 
L 594 3500 
L 594 4494 
L 1172 4494 
z
" transform="scale(0.015625)"/>
       </defs>
       <use xlink:href="#DejaVuSans-4f"/>
       <use xlink:href="#DejaVuSans-63" x="78.710938"/>
       <use xlink:href="#DejaVuSans-74" x="133.691406"/>
      </g>
     </g>
    </g>
    <g id="xtick_9">
     <g id="line2d_17">
      <path d="M 443.607494 173.32 
L 443.607494 27.6 
" clip-path="url(#pbe462c0fc1)" style="fill: none; stroke: #ffffff; stroke-width: 0.8; stroke-linecap: square"/>
     </g>
     <g id="line2d_18">
      <g>
       <use xlink:href="#mba9e46ff81" x="443.607494" y="173.32" style="fill: #555555; stroke: #555555; stroke-width: 0.8"/>
      </g>
     </g>
     <g id="text_9">
      <!-- Nov -->
      <g style="fill: #555555" transform="translate(433.848119 187.918437) scale(0.1 -0.1)">
       <defs>
        <path id="DejaVuSans-4e" d="M 628 4666 
L 1478 4666 
L 3547 763 
L 3547 4666 
L 4159 4666 
L 4159 0 
L 3309 0 
L 1241 3903 
L 1241 0 
L 628 0 
L 628 4666 
z
" transform="scale(0.015625)"/>
        <path id="DejaVuSans-6f" d="M 1959 3097 
Q 1497 3097 1228 2736 
Q 959 2375 959 1747 
Q 959 1119 1226 758 
Q 1494 397 1959 397 
Q 2419 397 2687 759 
Q 2956 1122 2956 1747 
Q 2956 2369 2687 2733 
Q 2419 3097 1959 3097 
z
M 1959 3584 
Q 2709 3584 3137 3096 
Q 3566 2609 3566 1747 
Q 3566 888 3137 398 
Q 2709 -91 1959 -91 
Q 1206 -91 779 398 
Q 353 888 353 1747 
Q 353 2609 779 3096 
Q 1206 3584 1959 3584 
z
" transform="scale(0.015625)"/>
        <path id="DejaVuSans-76" d="M 191 3500 
L 800 3500 
L 1894 563 
L 2988 3500 
L 3597 3500 
L 2284 0 
L 1503 0 
L 191 3500 
z
" transform="scale(0.015625)"/>
       </defs>
       <use xlink:href="#DejaVuSans-4e"/>
       <use xlink:href="#DejaVuSans-6f" x="74.804688"/>
       <use xlink:href="#DejaVuSans-76" x="135.986328"/>
      </g>
     </g>
    </g>
    <g id="xtick_10">
     <g id="line2d_19">
      <path d="M 489.53127 173.32 
L 489.53127 27.6 
" clip-path="url(#pbe462c0fc1)" style="fill: none; stroke: #ffffff; stroke-width: 0.8; stroke-linecap: square"/>
     </g>
     <g id="line2d_20">
      <g>
       <use xlink:href="#mba9e46ff81" x="489.53127" y="173.32" style="fill: #555555; stroke: #555555; stroke-width: 0.8"/>
      </g>
     </g>
     <g id="text_10">
      <!-- Dec -->
      <g style="fill: #555555" transform="translate(479.855489 187.918437) scale(0.1 -0.1)">
       <defs>
        <path id="DejaVuSans-44" d="M 1259 4147 
L 1259 519 
L 2022 519 
Q 2988 519 3436 956 
Q 3884 1394 3884 2338 
Q 3884 3275 3436 3711 
Q 2988 4147 2022 4147 
L 1259 4147 
z
M 628 4666 
L 1925 4666 
Q 3281 4666 3915 4102 
Q 4550 3538 4550 2338 
Q 4550 1131 3912 565 
Q 3275 0 1925 0 
L 628 0 
L 628 4666 
z
" transform="scale(0.015625)"/>
       </defs>
       <use xlink:href="#DejaVuSans-44"/>
       <use xlink:href="#DejaVuSans-65" x="77.001953"/>
       <use xlink:href="#DejaVuSans-63" x="138.525391"/>
      </g>
     </g>
    </g>
    <g id="xtick_11">
     <g id="line2d_21">
      <path d="M 536.985839 173.32 
L 536.985839 27.6 
" clip-path="url(#pbe462c0fc1)" style="fill: none; stroke: #ffffff; stroke-width: 0.8; stroke-linecap: square"/>
     </g>
     <g id="line2d_22">
      <g>
       <use xlink:href="#mba9e46ff81" x="536.985839" y="173.32" style="fill: #555555; stroke: #555555; stroke-width: 0.8"/>
      </g>
     </g>
     <g id="text_11">
      <!-- Jan -->
      <g style="fill: #555555" transform="translate(529.278027 187.918437) scale(0.1 -0.1)">
       <use xlink:href="#DejaVuSans-4a"/>
       <use xlink:href="#DejaVuSans-61" x="29.492188"/>
       <use xlink:href="#DejaVuSans-6e" x="90.771484"/>
      </g>
     </g>
    </g>
    <g id="xtick_12">
     <g id="line2d_23">
      <path d="M 584.440408 173.32 
L 584.440408 27.6 
" clip-path="url(#pbe462c0fc1)" style="fill: none; stroke: #ffffff; stroke-width: 0.8; stroke-linecap: square"/>
     </g>
     <g id="line2d_24">
      <g>
       <use xlink:href="#mba9e46ff81" x="584.440408" y="173.32" style="fill: #555555; stroke: #555555; stroke-width: 0.8"/>
      </g>
     </g>
     <g id="text_12">
      <!-- Feb -->
      <g style="fill: #555555" transform="translate(575.588845 187.918437) scale(0.1 -0.1)">
       <defs>
        <path id="DejaVuSans-46" d="M 628 4666 
L 3309 4666 
L 3309 4134 
L 1259 4134 
L 1259 2759 
L 3109 2759 
L 3109 2228 
L 1259 2228 
L 1259 0 
L 628 0 
L 628 4666 
z
" transform="scale(0.015625)"/>
        <path id="DejaVuSans-62" d="M 3116 1747 
Q 3116 2381 2855 2742 
Q 2594 3103 2138 3103 
Q 1681 3103 1420 2742 
Q 1159 2381 1159 1747 
Q 1159 1113 1420 752 
Q 1681 391 2138 391 
Q 2594 391 2855 752 
Q 3116 1113 3116 1747 
z
M 1159 2969 
Q 1341 3281 1617 3432 
Q 1894 3584 2278 3584 
Q 2916 3584 3314 3078 
Q 3713 2572 3713 1747 
Q 3713 922 3314 415 
Q 2916 -91 2278 -91 
Q 1894 -91 1617 61 
Q 1341 213 1159 525 
L 1159 0 
L 581 0 
L 581 4863 
L 1159 4863 
L 1159 2969 
z
" transform="scale(0.015625)"/>
       </defs>
       <use xlink:href="#DejaVuSans-46"/>
       <use xlink:href="#DejaVuSans-65" x="52.019531"/>
       <use xlink:href="#DejaVuSans-62" x="113.542969"/>
      </g>
     </g>
    </g>
    <g id="xtick_13">
     <g id="line2d_25">
      <path d="M 627.302599 173.32 
L 627.302599 27.6 
" clip-path="url(#pbe462c0fc1)" style="fill: none; stroke: #ffffff; stroke-width: 0.8; stroke-linecap: square"/>
     </g>
     <g id="line2d_26">
      <g>
       <use xlink:href="#mba9e46ff81" x="627.302599" y="173.32" style="fill: #555555; stroke: #555555; stroke-width: 0.8"/>
      </g>
     </g>
     <g id="text_13">
      <!-- Mar -->
      <g style="fill: #555555" transform="translate(617.869005 187.918437) scale(0.1 -0.1)">
       <use xlink:href="#DejaVuSans-4d"/>
       <use xlink:href="#DejaVuSans-61" x="86.279297"/>
       <use xlink:href="#DejaVuSans-72" x="147.558594"/>
      </g>
     </g>
    </g>
    <g id="xtick_14">
     <g id="line2d_27">
      <path d="M 674.757168 173.32 
L 674.757168 27.6 
" clip-path="url(#pbe462c0fc1)" style="fill: none; stroke: #ffffff; stroke-width: 0.8; stroke-linecap: square"/>
     </g>
     <g id="line2d_28">
      <g>
       <use xlink:href="#mba9e46ff81" x="674.757168" y="173.32" style="fill: #555555; stroke: #555555; stroke-width: 0.8"/>
      </g>
     </g>
     <g id="text_14">
      <!-- Apr -->
      <g style="fill: #555555" transform="translate(666.107168 187.918437) scale(0.1 -0.1)">
       <use xlink:href="#DejaVuSans-41"/>
       <use xlink:href="#DejaVuSans-70" x="68.408203"/>
       <use xlink:href="#DejaVuSans-72" x="131.884766"/>
      </g>
     </g>
    </g>
    <g id="text_15">
     <!-- Date -->
     <g style="fill: #555555" transform="translate(366.504063 203.11625) scale(0.12 -0.12)">
      <use xlink:href="#DejaVuSans-44"/>
      <use xlink:href="#DejaVuSans-61" x="77.001953"/>
      <use xlink:href="#DejaVuSans-74" x="138.28125"/>
      <use xlink:href="#DejaVuSans-65" x="177.490234"/>
     </g>
    </g>
   </g>
   <g id="matplotlib.axis_2">
    <g id="ytick_1">
     <g id="line2d_29">
      <path d="M 52.49 158.142913 
L 709.2 158.142913 
" clip-path="url(#pbe462c0fc1)" style="fill: none; stroke: #ffffff; stroke-width: 0.8; stroke-linecap: square"/>
     </g>
     <g id="line2d_30">
      <defs>
       <path id="md3d9156a05" d="M 0 0 
L -3.5 0 
" style="stroke: #555555; stroke-width: 0.8"/>
      </defs>
      <g>
       <use xlink:href="#md3d9156a05" x="52.49" y="158.142913" style="fill: #555555; stroke: #555555; stroke-width: 0.8"/>
      </g>
     </g>
     <g id="text_16">
      <!-- 50 -->
      <g style="fill: #555555" transform="translate(32.765 161.942132) scale(0.1 -0.1)">
       <defs>
        <path id="DejaVuSans-35" d="M 691 4666 
L 3169 4666 
L 3169 4134 
L 1269 4134 
L 1269 2991 
Q 1406 3038 1543 3061 
Q 1681 3084 1819 3084 
Q 2600 3084 3056 2656 
Q 3513 2228 3513 1497 
Q 3513 744 3044 326 
Q 2575 -91 1722 -91 
Q 1428 -91 1123 -41 
Q 819 9 494 109 
L 494 744 
Q 775 591 1075 516 
Q 1375 441 1709 441 
Q 2250 441 2565 725 
Q 2881 1009 2881 1497 
Q 2881 1984 2565 2268 
Q 2250 2553 1709 2553 
Q 1456 2553 1204 2497 
Q 953 2441 691 2322 
L 691 4666 
z
" transform="scale(0.015625)"/>
        <path id="DejaVuSans-30" d="M 2034 4250 
Q 1547 4250 1301 3770 
Q 1056 3291 1056 2328 
Q 1056 1369 1301 889 
Q 1547 409 2034 409 
Q 2525 409 2770 889 
Q 3016 1369 3016 2328 
Q 3016 3291 2770 3770 
Q 2525 4250 2034 4250 
z
M 2034 4750 
Q 2819 4750 3233 4129 
Q 3647 3509 3647 2328 
Q 3647 1150 3233 529 
Q 2819 -91 2034 -91 
Q 1250 -91 836 529 
Q 422 1150 422 2328 
Q 422 3509 836 4129 
Q 1250 4750 2034 4750 
z
" transform="scale(0.015625)"/>
       </defs>
       <use xlink:href="#DejaVuSans-35"/>
       <use xlink:href="#DejaVuSans-30" x="63.623047"/>
      </g>
     </g>
    </g>
    <g id="ytick_2">
     <g id="line2d_31">
      <path d="M 52.49 122.37394 
L 709.2 122.37394 
" clip-path="url(#pbe462c0fc1)" style="fill: none; stroke: #ffffff; stroke-width: 0.8; stroke-linecap: square"/>
     </g>
     <g id="line2d_32">
      <g>
       <use xlink:href="#md3d9156a05" x="52.49" y="122.37394" style="fill: #555555; stroke: #555555; stroke-width: 0.8"/>
      </g>
     </g>
     <g id="text_17">
      <!-- 100 -->
      <g style="fill: #555555" transform="translate(26.4025 126.173158) scale(0.1 -0.1)">
       <defs>
        <path id="DejaVuSans-31" d="M 794 531 
L 1825 531 
L 1825 4091 
L 703 3866 
L 703 4441 
L 1819 4666 
L 2450 4666 
L 2450 531 
L 3481 531 
L 3481 0 
L 794 0 
L 794 531 
z
" transform="scale(0.015625)"/>
       </defs>
       <use xlink:href="#DejaVuSans-31"/>
       <use xlink:href="#DejaVuSans-30" x="63.623047"/>
       <use xlink:href="#DejaVuSans-30" x="127.246094"/>
      </g>
     </g>
    </g>
    <g id="ytick_3">
     <g id="line2d_33">
      <path d="M 52.49 86.604966 
L 709.2 86.604966 
" clip-path="url(#pbe462c0fc1)" style="fill: none; stroke: #ffffff; stroke-width: 0.8; stroke-linecap: square"/>
     </g>
     <g id="line2d_34">
      <g>
       <use xlink:href="#md3d9156a05" x="52.49" y="86.604966" style="fill: #555555; stroke: #555555; stroke-width: 0.8"/>
      </g>
     </g>
     <g id="text_18">
      <!-- 150 -->
      <g style="fill: #555555" transform="translate(26.4025 90.404185) scale(0.1 -0.1)">
       <use xlink:href="#DejaVuSans-31"/>
       <use xlink:href="#DejaVuSans-35" x="63.623047"/>
       <use xlink:href="#DejaVuSans-30" x="127.246094"/>
      </g>
     </g>
    </g>
    <g id="ytick_4">
     <g id="line2d_35">
      <path d="M 52.49 50.835992 
L 709.2 50.835992 
" clip-path="url(#pbe462c0fc1)" style="fill: none; stroke: #ffffff; stroke-width: 0.8; stroke-linecap: square"/>
     </g>
     <g id="line2d_36">
      <g>
       <use xlink:href="#md3d9156a05" x="52.49" y="50.835992" style="fill: #555555; stroke: #555555; stroke-width: 0.8"/>
      </g>
     </g>
     <g id="text_19">
      <!-- 200 -->
      <g style="fill: #555555" transform="translate(26.4025 54.635211) scale(0.1 -0.1)">
       <defs>
        <path id="DejaVuSans-32" d="M 1228 531 
L 3431 531 
L 3431 0 
L 469 0 
L 469 531 
Q 828 903 1448 1529 
Q 2069 2156 2228 2338 
Q 2531 2678 2651 2914 
Q 2772 3150 2772 3378 
Q 2772 3750 2511 3984 
Q 2250 4219 1831 4219 
Q 1534 4219 1204 4116 
Q 875 4013 500 3803 
L 500 4441 
Q 881 4594 1212 4672 
Q 1544 4750 1819 4750 
Q 2544 4750 2975 4387 
Q 3406 4025 3406 3419 
Q 3406 3131 3298 2873 
Q 3191 2616 2906 2266 
Q 2828 2175 2409 1742 
Q 1991 1309 1228 531 
z
" transform="scale(0.015625)"/>
       </defs>
       <use xlink:href="#DejaVuSans-32"/>
       <use xlink:href="#DejaVuSans-30" x="63.623047"/>
       <use xlink:href="#DejaVuSans-30" x="127.246094"/>
      </g>
     </g>
    </g>
    <g id="text_20">
     <!-- Concentration (µg/m³) -->
     <g style="fill: #555555" transform="translate(19.906875 167.391875) rotate(-90) scale(0.12 -0.12)">
      <defs>
       <path id="DejaVuSans-43" d="M 4122 4306 
L 4122 3641 
Q 3803 3938 3442 4084 
Q 3081 4231 2675 4231 
Q 1875 4231 1450 3742 
Q 1025 3253 1025 2328 
Q 1025 1406 1450 917 
Q 1875 428 2675 428 
Q 3081 428 3442 575 
Q 3803 722 4122 1019 
L 4122 359 
Q 3791 134 3420 21 
Q 3050 -91 2638 -91 
Q 1578 -91 968 557 
Q 359 1206 359 2328 
Q 359 3453 968 4101 
Q 1578 4750 2638 4750 
Q 3056 4750 3426 4639 
Q 3797 4528 4122 4306 
z
" transform="scale(0.015625)"/>
       <path id="DejaVuSans-69" d="M 603 3500 
L 1178 3500 
L 1178 0 
L 603 0 
L 603 3500 
z
M 603 4863 
L 1178 4863 
L 1178 4134 
L 603 4134 
L 603 4863 
z
" transform="scale(0.015625)"/>
       <path id="DejaVuSans-20" transform="scale(0.015625)"/>
       <path id="DejaVuSans-28" d="M 1984 4856 
Q 1566 4138 1362 3434 
Q 1159 2731 1159 2009 
Q 1159 1288 1364 580 
Q 1569 -128 1984 -844 
L 1484 -844 
Q 1016 -109 783 600 
Q 550 1309 550 2009 
Q 550 2706 781 3412 
Q 1013 4119 1484 4856 
L 1984 4856 
z
" transform="scale(0.015625)"/>
       <path id="DejaVuSans-b5" d="M 544 -1331 
L 544 3500 
L 1119 3500 
L 1119 1325 
Q 1119 872 1334 640 
Q 1550 409 1972 409 
Q 2434 409 2667 671 
Q 2900 934 2900 1459 
L 2900 3500 
L 3475 3500 
L 3475 806 
Q 3475 619 3529 530 
Q 3584 441 3700 441 
Q 3728 441 3778 458 
Q 3828 475 3916 513 
L 3916 50 
Q 3788 -22 3673 -56 
Q 3559 -91 3450 -91 
Q 3234 -91 3106 31 
Q 2978 153 2931 403 
Q 2775 156 2548 32 
Q 2322 -91 2016 -91 
Q 1697 -91 1473 31 
Q 1250 153 1119 397 
L 1119 -1331 
L 544 -1331 
z
" transform="scale(0.015625)"/>
       <path id="DejaVuSans-2f" d="M 1625 4666 
L 2156 4666 
L 531 -594 
L 0 -594 
L 1625 4666 
z
" transform="scale(0.015625)"/>
       <path id="DejaVuSans-6d" d="M 3328 2828 
Q 3544 3216 3844 3400 
Q 4144 3584 4550 3584 
Q 5097 3584 5394 3201 
Q 5691 2819 5691 2113 
L 5691 0 
L 5113 0 
L 5113 2094 
Q 5113 2597 4934 2840 
Q 4756 3084 4391 3084 
Q 3944 3084 3684 2787 
Q 3425 2491 3425 1978 
L 3425 0 
L 2847 0 
L 2847 2094 
Q 2847 2600 2669 2842 
Q 2491 3084 2119 3084 
Q 1678 3084 1418 2786 
Q 1159 2488 1159 1978 
L 1159 0 
L 581 0 
L 581 3500 
L 1159 3500 
L 1159 2956 
Q 1356 3278 1631 3431 
Q 1906 3584 2284 3584 
Q 2666 3584 2933 3390 
Q 3200 3197 3328 2828 
z
" transform="scale(0.015625)"/>
       <path id="DejaVuSans-b3" d="M 1638 3500 
Q 1925 3444 2083 3273 
Q 2241 3103 2241 2847 
Q 2241 2459 1944 2250 
Q 1647 2041 1094 2041 
Q 916 2041 720 2073 
Q 525 2106 306 2169 
L 306 2547 
Q 469 2463 655 2422 
Q 841 2381 1050 2381 
Q 1391 2381 1578 2504 
Q 1766 2628 1766 2847 
Q 1766 3078 1592 3197 
Q 1419 3316 1081 3316 
L 813 3316 
L 813 3653 
L 1106 3653 
Q 1400 3653 1551 3751 
Q 1703 3850 1703 4038 
Q 1703 4219 1547 4314 
Q 1391 4409 1094 4409 
Q 969 4409 809 4381 
Q 650 4353 397 4281 
L 397 4641 
Q 625 4694 825 4722 
Q 1025 4750 1197 4750 
Q 1647 4750 1911 4565 
Q 2175 4381 2175 4072 
Q 2175 3856 2034 3706 
Q 1894 3556 1638 3500 
z
" transform="scale(0.015625)"/>
       <path id="DejaVuSans-29" d="M 513 4856 
L 1013 4856 
Q 1481 4119 1714 3412 
Q 1947 2706 1947 2009 
Q 1947 1309 1714 600 
Q 1481 -109 1013 -844 
L 513 -844 
Q 928 -128 1133 580 
Q 1338 1288 1338 2009 
Q 1338 2731 1133 3434 
Q 928 4138 513 4856 
z
" transform="scale(0.015625)"/>
      </defs>
      <use xlink:href="#DejaVuSans-43"/>
      <use xlink:href="#DejaVuSans-6f" x="69.824219"/>
      <use xlink:href="#DejaVuSans-6e" x="131.005859"/>
      <use xlink:href="#DejaVuSans-63" x="194.384766"/>
      <use xlink:href="#DejaVuSans-65" x="249.365234"/>
      <use xlink:href="#DejaVuSans-6e" x="310.888672"/>
      <use xlink:href="#DejaVuSans-74" x="374.267578"/>
      <use xlink:href="#DejaVuSans-72" x="413.476562"/>
      <use xlink:href="#DejaVuSans-61" x="454.589844"/>
      <use xlink:href="#DejaVuSans-74" x="515.869141"/>
      <use xlink:href="#DejaVuSans-69" x="555.078125"/>
      <use xlink:href="#DejaVuSans-6f" x="582.861328"/>
      <use xlink:href="#DejaVuSans-6e" x="644.042969"/>
      <use xlink:href="#DejaVuSans-20" x="707.421875"/>
      <use xlink:href="#DejaVuSans-28" x="739.208984"/>
      <use xlink:href="#DejaVuSans-b5" x="778.222656"/>
      <use xlink:href="#DejaVuSans-67" x="841.845703"/>
      <use xlink:href="#DejaVuSans-2f" x="905.322266"/>
      <use xlink:href="#DejaVuSans-6d" x="939.013672"/>
      <use xlink:href="#DejaVuSans-b3" x="1036.425781"/>
      <use xlink:href="#DejaVuSans-29" x="1076.513672"/>
     </g>
    </g>
   </g>
   <g id="line2d_37">
    <path d="M 82.340455 116.054754 
L 83.871247 122.46725 
L 85.40204 110.732764 
L 86.932832 108.87504 
L 88.463625 114.940214 
L 89.994417 108.96835 
L 91.52521 109.372695 
L 93.056002 108.097453 
L 94.586795 104.396142 
L 96.117587 109.434902 
L 97.64838 124.302354 
L 99.179172 130.1187 
L 100.709965 129.154493 
L 102.240758 124.520078 
L 103.77155 124.862216 
L 105.302343 130.02539 
L 106.833135 127.785941 
L 108.363928 127.350492 
L 109.89472 137.303598 
L 111.425513 133.415666 
L 112.956305 120.75656 
L 114.487098 124.924423 
L 116.01789 124.706699 
L 117.548683 109.123868 
L 119.079476 132.150792 
L 122.141061 116.702002 
L 123.671853 125.204354 
L 125.202646 132.918011 
L 126.733438 118.14387 
L 128.264231 113.136213 
L 131.325816 145.297186 
L 132.856608 146.603531 
L 134.387401 126.69732 
L 135.918193 134.177701 
L 137.448986 100.53102 
L 138.979779 112.576351 
L 140.510571 129.289275 
L 149.695326 97.335658 
L 151.226119 128.283596 
L 152.756911 148.407532 
L 154.287704 138.609943 
L 157.349289 113.882696 
L 158.880082 118.703732 
L 160.410874 119.792353 
L 161.941667 133.135735 
L 163.472459 136.899253 
L 165.003252 129.776562 
L 166.534044 133.477873 
L 168.064837 133.397287 
L 169.595629 129.807665 
L 171.126422 124.675595 
L 172.657214 146.696842 
L 175.7188 117.652435 
L 178.780385 122.218422 
L 180.311177 119.13918 
L 181.84197 111.057937 
L 183.372762 126.79063 
L 184.903555 135.655115 
L 186.434347 128.3147 
L 187.96514 121.596353 
L 189.495932 112.918489 
L 191.026725 112.731868 
L 192.557517 116.43318 
L 194.08831 128.221389 
L 195.619103 144.923945 
L 197.149895 139.232012 
L 198.680688 130.856296 
L 200.21148 108.986124 
L 203.273065 116.015011 
L 204.803858 137.583529 
L 206.33465 140.413944 
L 207.865443 127.319389 
L 209.396235 139.636357 
L 210.927028 158.764982 
L 212.457821 146.482228 
L 215.519406 138.899205 
L 217.050198 148.905187 
L 218.580991 120.974284 
L 220.111783 112.651282 
L 221.642576 102.965383 
L 223.173368 104.302832 
L 224.704161 112.631152 
L 226.234953 137.179184 
L 227.765746 154.348292 
L 229.296538 145.701531 
L 230.827331 119.481318 
L 232.358124 123.742492 
L 233.888916 119.481318 
L 235.419709 112.327523 
L 236.950501 138.361116 
L 238.481294 142.186841 
L 240.012086 126.541803 
L 241.542879 118.579318 
L 243.073671 114.598076 
L 244.604464 135.903943 
L 246.135256 118.548215 
L 247.666049 131.673873 
L 249.196841 134.099942 
L 250.727634 114.069317 
L 252.258427 108.999454 
L 253.789219 100.539314 
L 255.320012 112.762972 
L 256.850804 108.128557 
L 258.381597 129.465527 
L 259.912389 145.51491 
L 261.443182 109.963661 
L 262.973974 101.005866 
L 264.504767 96.589175 
L 266.035559 101.565728 
L 267.566352 107.546074 
L 269.097145 139.38753 
L 270.627937 146.105876 
L 272.15873 129.123389 
L 273.689522 115.62449 
L 275.220315 106.573384 
L 276.751107 105.764694 
L 278.2819 103.369728 
L 279.812692 125.484285 
L 281.343485 141.90691 
L 282.874277 106.604488 
L 284.40507 106.480074 
L 285.935862 112.980696 
L 287.466655 105.45366 
L 288.997448 117.708421 
L 290.52824 143.742013 
L 292.059033 153.539602 
L 293.589825 126.479596 
L 295.120618 129.869872 
L 296.65141 118.569421 
L 298.182203 115.780007 
L 299.712995 114.72249 
L 301.243788 123.835802 
L 302.77458 152.046636 
L 304.305373 123.349457 
L 305.836166 113.204075 
L 307.366958 135.48923 
L 308.897751 126.501129 
L 310.428543 130.1187 
L 311.959336 145.079462 
L 313.490128 153.88174 
L 316.551713 147.350014 
L 318.082506 155.934568 
L 319.613298 150.211532 
L 321.144091 145.110566 
L 322.674883 154.939257 
L 324.205676 160.848914 
L 325.736469 145.919255 
L 327.267261 148.986056 
L 328.798054 146.786264 
L 330.328846 162.721342 
L 336.452016 146.916959 
L 337.982809 134.037735 
L 339.513601 140.102909 
L 341.044394 143.524289 
L 342.575186 131.362838 
L 344.105979 151.044148 
L 348.698357 125.791864 
L 350.229149 115.686697 
L 351.759942 138.430234 
L 359.413904 141.927645 
L 360.944697 79.570401 
L 362.47549 96.558072 
L 364.006282 105.142625 
L 365.537075 121.65856 
L 368.59866 93.758761 
L 370.129452 151.346808 
L 371.660245 109.497109 
L 373.191037 129.5618 
L 374.72183 131.73608 
L 376.252622 132.233735 
L 377.783415 120.974284 
L 379.314207 105.82266 
L 380.845 99.637314 
L 382.375793 104.085108 
L 383.906585 112.700765 
L 385.437378 122.342836 
L 386.96817 166.696364 
L 388.498963 137.739047 
L 390.029755 116.495386 
L 391.560548 98.424279 
L 393.09134 100.010555 
L 394.622133 104.489453 
L 396.152925 118.839123 
L 405.337681 123.536431 
L 406.868473 135.997253 
L 408.399266 136.121667 
L 409.930058 146.168083 
L 411.460851 142.591186 
L 412.991643 148.84298 
L 414.522436 140.258426 
L 425.237984 93.937605 
L 426.768776 125.137906 
L 428.299569 127.69263 
L 429.830361 130.523045 
L 431.361154 141.004909 
L 432.891946 125.670906 
L 434.422739 115.468972 
L 435.953531 126.448492 
L 437.484324 128.190286 
L 439.015117 119.356904 
L 440.545909 115.313455 
L 442.076702 144.457393 
L 443.607494 140.507254 
L 445.138287 120.787663 
L 446.669079 135.499598 
L 448.199872 121.160905 
L 449.730664 124.457871 
L 451.261457 130.491941 
L 452.792249 145.51491 
L 454.323042 126.785446 
L 457.384627 102.343314 
L 458.91542 82.561517 
L 460.446212 112.20311 
L 461.977005 109.963661 
L 463.507797 154.597119 
L 465.03859 114.784696 
L 466.569382 90.586208 
L 468.100175 69.500893 
L 469.630967 61.877719 
L 471.16176 85.578552 
L 472.692552 85.391931 
L 474.223345 90.835036 
L 475.754138 61.100132 
L 477.28493 77.305033 
L 478.815723 103.463039 
L 480.346515 102.374418 
L 481.877308 79.637792 
L 483.4081 100.352693 
L 484.938893 126.479596 
L 486.469685 114.380352 
L 488.000478 113.229524 
L 489.53127 102.778763 
L 491.062063 105.889108 
L 492.592855 106.884419 
L 494.123648 122.094008 
L 495.654441 135.499598 
L 497.185233 119.076973 
L 498.716026 120.352215 
L 500.246818 128.003665 
L 501.777611 130.243114 
L 503.308403 120.103387 
L 504.839196 107.630902 
L 506.369988 99.60621 
L 507.900781 84.614345 
L 509.431573 84.738758 
L 510.962366 98.113244 
L 512.493159 77.336136 
L 514.023951 89.093242 
L 515.554744 113.789386 
L 517.085536 101.627935 
L 518.616329 118.392697 
L 520.147121 98.921934 
L 521.677914 97.553382 
L 523.208706 70.80441 
L 524.739499 74.785653 
L 526.270291 88.315656 
L 527.801084 119.232491 
L 529.331876 116.370973 
L 530.862669 121.65856 
L 536.985839 102.001883 
L 538.516632 99.677748 
L 540.047424 94.586112 
L 541.578217 88.676456 
L 543.109009 88.16947 
L 544.639802 109.534433 
L 546.170594 103.522135 
L 547.701387 92.343553 
L 549.232179 113.341496 
L 550.762972 105.372791 
L 552.293765 100.013665 
L 553.824557 87.345228 
L 555.35535 102.461507 
L 556.886142 92.788333 
L 558.416935 87.506966 
L 559.947727 104.078887 
L 561.47852 79.43873 
L 563.009312 71.554004 
L 564.540105 113.3726 
L 566.070897 96.153727 
L 567.60169 77.155736 
L 569.132483 61.566684 
L 570.663275 91.86456 
L 572.194068 102.39209 
L 573.72486 123.978878 
L 575.255653 115.857766 
L 576.786445 104.489453 
L 578.317238 95.453899 
L 579.84803 129.540176 
L 581.378823 124.734692 
L 582.909615 63.049471 
L 584.440408 77.398343 
L 585.9712 77.955095 
L 587.501993 49.10975 
L 589.032786 64.636595 
L 590.563578 75.351736 
L 592.094371 98.592237 
L 593.625163 85.796276 
L 595.155956 85.245745 
L 596.686748 81.535103 
L 598.217541 69.622479 
L 599.748333 34.223636 
L 601.279126 39.806707 
L 602.809918 86.953324 
L 604.340711 95.64674 
L 605.871503 98.567355 
L 607.402296 66.157554 
L 608.933089 86.402793 
L 610.463881 86.878676 
L 611.994674 71.451362 
L 613.525466 114.246607 
L 615.056259 79.221005 
L 616.587051 67.694065 
L 618.117844 67.678513 
L 619.648636 48.720957 
L 621.179429 77.437889 
L 622.710221 101.204928 
L 624.241014 102.747659 
L 625.771807 121.524815 
L 627.302599 122.762733 
L 628.833392 86.900449 
L 630.364184 79.89284 
L 631.894977 72.029887 
L 633.425769 85.245745 
L 634.956562 107.755315 
L 636.487354 89.422939 
L 638.018147 66.745409 
L 639.548939 82.720144 
L 641.079732 86.019655 
L 642.610524 79.868476 
L 644.141317 100.897652 
L 645.67211 105.025987 
L 647.202902 88.554375 
L 648.733695 88.676585 
L 650.264487 77.278206 
L 651.79528 81.409522 
L 653.326072 75.051587 
L 654.856865 92.661845 
L 656.387657 112.707374 
L 657.91845 96.322204 
L 659.449242 105.425407 
L 660.980035 93.180495 
L 662.510828 96.793162 
L 664.04162 95.705189 
L 665.572413 117.700127 
L 667.103205 127.739286 
L 668.633998 120.257609 
L 670.16479 105.953 
L 671.695583 106.587899 
L 673.226375 121.917885 
L 674.757168 117.217246 
L 676.28796 122.317305 
L 679.349545 106.750052 
L 679.349545 106.750052 
" clip-path="url(#pbe462c0fc1)" style="fill: none; stroke: #4c72b0; stroke-width: 2; stroke-linecap: square"/>
   </g>
   <g id="patch_3">
    <path d="M 52.49 173.32 
L 52.49 27.6 
" style="fill: none; stroke: #ffffff; stroke-linejoin: miter; stroke-linecap: square"/>
   </g>
   <g id="patch_4">
    <path d="M 709.2 173.32 
L 709.2 27.6 
" style="fill: none; stroke: #ffffff; stroke-linejoin: miter; stroke-linecap: square"/>
   </g>
   <g id="patch_5">
    <path d="M 52.49 173.32 
L 709.2 173.32 
" style="fill: none; stroke: #ffffff; stroke-linejoin: miter; stroke-linecap: square"/>
   </g>
   <g id="patch_6">
    <path d="M 52.49 27.6 
L 709.2 27.6 
" style="fill: none; stroke: #ffffff; stroke-linejoin: miter; stroke-linecap: square"/>
   </g>
   <g id="text_21">
    <!-- Daily Average of NO2(GT) Concentration -->
    <g transform="translate(239.1125 21.6) scale(0.14 -0.14)">
     <defs>
      <path id="DejaVuSans-66" d="M 2375 4863 
L 2375 4384 
L 1825 4384 
Q 1516 4384 1395 4259 
Q 1275 4134 1275 3809 
L 1275 3500 
L 2222 3500 
L 2222 3053 
L 1275 3053 
L 1275 0 
L 697 0 
L 697 3053 
L 147 3053 
L 147 3500 
L 697 3500 
L 697 3744 
Q 697 4328 969 4595 
Q 1241 4863 1831 4863 
L 2375 4863 
z
" transform="scale(0.015625)"/>
      <path id="DejaVuSans-47" d="M 3809 666 
L 3809 1919 
L 2778 1919 
L 2778 2438 
L 4434 2438 
L 4434 434 
Q 4069 175 3628 42 
Q 3188 -91 2688 -91 
Q 1594 -91 976 548 
Q 359 1188 359 2328 
Q 359 3472 976 4111 
Q 1594 4750 2688 4750 
Q 3144 4750 3555 4637 
Q 3966 4525 4313 4306 
L 4313 3634 
Q 3963 3931 3569 4081 
Q 3175 4231 2741 4231 
Q 1884 4231 1454 3753 
Q 1025 3275 1025 2328 
Q 1025 1384 1454 906 
Q 1884 428 2741 428 
Q 3075 428 3337 486 
Q 3600 544 3809 666 
z
" transform="scale(0.015625)"/>
      <path id="DejaVuSans-54" d="M -19 4666 
L 3928 4666 
L 3928 4134 
L 2272 4134 
L 2272 0 
L 1638 0 
L 1638 4134 
L -19 4134 
L -19 4666 
z
" transform="scale(0.015625)"/>
     </defs>
     <use xlink:href="#DejaVuSans-44"/>
     <use xlink:href="#DejaVuSans-61" x="77.001953"/>
     <use xlink:href="#DejaVuSans-69" x="138.28125"/>
     <use xlink:href="#DejaVuSans-6c" x="166.064453"/>
     <use xlink:href="#DejaVuSans-79" x="193.847656"/>
     <use xlink:href="#DejaVuSans-20" x="253.027344"/>
     <use xlink:href="#DejaVuSans-41" x="284.814453"/>
     <use xlink:href="#DejaVuSans-76" x="347.347656"/>
     <use xlink:href="#DejaVuSans-65" x="406.527344"/>
     <use xlink:href="#DejaVuSans-72" x="468.050781"/>
     <use xlink:href="#DejaVuSans-61" x="509.164062"/>
     <use xlink:href="#DejaVuSans-67" x="570.443359"/>
     <use xlink:href="#DejaVuSans-65" x="633.919922"/>
     <use xlink:href="#DejaVuSans-20" x="695.443359"/>
     <use xlink:href="#DejaVuSans-6f" x="727.230469"/>
     <use xlink:href="#DejaVuSans-66" x="788.412109"/>
     <use xlink:href="#DejaVuSans-20" x="823.617188"/>
     <use xlink:href="#DejaVuSans-4e" x="855.404297"/>
     <use xlink:href="#DejaVuSans-4f" x="930.208984"/>
     <use xlink:href="#DejaVuSans-32" x="1008.919922"/>
     <use xlink:href="#DejaVuSans-28" x="1072.542969"/>
     <use xlink:href="#DejaVuSans-47" x="1111.556641"/>
     <use xlink:href="#DejaVuSans-54" x="1185.421875"/>
     <use xlink:href="#DejaVuSans-29" x="1246.505859"/>
     <use xlink:href="#DejaVuSans-20" x="1285.519531"/>
     <use xlink:href="#DejaVuSans-43" x="1317.306641"/>
     <use xlink:href="#DejaVuSans-6f" x="1387.130859"/>
     <use xlink:href="#DejaVuSans-6e" x="1448.3125"/>
     <use xlink:href="#DejaVuSans-63" x="1511.691406"/>
     <use xlink:href="#DejaVuSans-65" x="1566.671875"/>
     <use xlink:href="#DejaVuSans-6e" x="1628.195312"/>
     <use xlink:href="#DejaVuSans-74" x="1691.574219"/>
     <use xlink:href="#DejaVuSans-72" x="1730.783203"/>
     <use xlink:href="#DejaVuSans-61" x="1771.896484"/>
     <use xlink:href="#DejaVuSans-74" x="1833.175781"/>
     <use xlink:href="#DejaVuSans-69" x="1872.384766"/>
     <use xlink:href="#DejaVuSans-6f" x="1900.167969"/>
     <use xlink:href="#DejaVuSans-6e" x="1961.349609"/>
    </g>
   </g>
   <g id="legend_1">
    <g id="patch_7">
     <path d="M 627.1875 50.278125 
L 702.2 50.278125 
Q 704.2 50.278125 704.2 48.278125 
L 704.2 34.6 
Q 704.2 32.6 702.2 32.6 
L 627.1875 32.6 
Q 625.1875 32.6 625.1875 34.6 
L 625.1875 48.278125 
Q 625.1875 50.278125 627.1875 50.278125 
z
" style="fill: #e5e5e5; opacity: 0.8; stroke: #cccccc; stroke-width: 0.5; stroke-linejoin: miter"/>
    </g>
    <g id="line2d_38">
     <path d="M 629.1875 40.698437 
L 639.1875 40.698437 
L 649.1875 40.698437 
" style="fill: none; stroke: #4c72b0; stroke-width: 2; stroke-linecap: square"/>
    </g>
    <g id="text_22">
     <!-- NO2(GT) -->
     <g transform="translate(657.1875 44.198437) scale(0.1 -0.1)">
      <use xlink:href="#DejaVuSans-4e"/>
      <use xlink:href="#DejaVuSans-4f" x="74.804688"/>
      <use xlink:href="#DejaVuSans-32" x="153.515625"/>
      <use xlink:href="#DejaVuSans-28" x="217.138672"/>
      <use xlink:href="#DejaVuSans-47" x="256.152344"/>
      <use xlink:href="#DejaVuSans-54" x="330.017578"/>
      <use xlink:href="#DejaVuSans-29" x="391.101562"/>
     </g>
    </g>
   </g>
  </g>
 </g>
 <defs>
  <clipPath id="pbe462c0fc1">
   <rect x="52.49" y="27.6" width="656.71" height="145.72"/>
  </clipPath>
 </defs>
</svg>
