<?xml version="1.0" encoding="utf-8" standalone="no"?>
<!DOCTYPE svg PUBLIC "-//W3C//DTD SVG 1.1//EN"
  "http://www.w3.org/Graphics/SVG/1.1/DTD/svg11.dtd">
<svg xmlns:xlink="http://www.w3.org/1999/xlink" width="720pt" height="216pt" viewBox="0 0 720 216" xmlns="http://www.w3.org/2000/svg" version="1.1">
 <metadata>
  <rdf:RDF xmlns:dc="http://purl.org/dc/elements/1.1/" xmlns:cc="http://creativecommons.org/ns#" xmlns:rdf="http://www.w3.org/1999/02/22-rdf-syntax-ns#">
   <cc:Work>
    <dc:type rdf:resource="http://purl.org/dc/dcmitype/StillImage"/>
    <dc:date>2024-09-17T19:07:04.252479</dc:date>
    <dc:format>image/svg+xml</dc:format>
    <dc:creator>
     <cc:Agent>
      <dc:title>Matplotlib v3.8.4, https://matplotlib.org/</dc:title>
     </cc:Agent>
    </dc:creator>
   </cc:Work>
  </rdf:RDF>
 </metadata>
 <defs>
  <style type="text/css">*{stroke-linejoin: round; stroke-linecap: butt}</style>
 </defs>
 <g id="figure_1">
  <g id="patch_1">
   <path d="M 0 216 
L 720 216 
L 720 0 
L 0 0 
z
" style="fill: #ffffff"/>
  </g>
  <g id="axes_1">
   <g id="patch_2">
    <path d="M 58.88 173.32 
L 709.2 173.32 
L 709.2 27.6 
L 58.88 27.6 
z
" style="fill: #e5e5e5"/>
   </g>
   <g id="matplotlib.axis_1">
    <g id="xtick_1">
     <g id="line2d_1">
      <path d="M 74.796923 173.32 
L 74.796923 27.6 
" clip-path="url(#p728523c902)" style="fill: none; stroke: #ffffff; stroke-width: 0.8; stroke-linecap: square"/>
     </g>
     <g id="line2d_2">
      <defs>
       <path id="m0e211c6a02" d="M 0 0 
L 0 3.5 
" style="stroke: #555555; stroke-width: 0.8"/>
      </defs>
      <g>
       <use xlink:href="#m0e211c6a02" x="74.796923" y="173.32" style="fill: #555555; stroke: #555555; stroke-width: 0.8"/>
      </g>
     </g>
     <g id="text_1">
      <!-- Mar -->
      <g style="fill: #555555" transform="translate(65.363329 187.918437) scale(0.1 -0.1)">
       <defs>
        <path id="DejaVuSans-4d" d="M 628 4666 
L 1569 4666 
L 2759 1491 
L 3956 4666 
L 4897 4666 
L 4897 0 
L 4281 0 
L 4281 4097 
L 3078 897 
L 2444 897 
L 1241 4097 
L 1241 0 
L 628 0 
L 628 4666 
z
" transform="scale(0.015625)"/>
        <path id="DejaVuSans-61" d="M 2194 1759 
Q 1497 1759 1228 1600 
Q 959 1441 959 1056 
Q 959 750 1161 570 
Q 1363 391 1709 391 
Q 2188 391 2477 730 
Q 2766 1069 2766 1631 
L 2766 1759 
L 2194 1759 
z
M 3341 1997 
L 3341 0 
L 2766 0 
L 2766 531 
Q 2569 213 2275 61 
Q 1981 -91 1556 -91 
Q 1019 -91 701 211 
Q 384 513 384 1019 
Q 384 1609 779 1909 
Q 1175 2209 1959 2209 
L 2766 2209 
L 2766 2266 
Q 2766 2663 2505 2880 
Q 2244 3097 1772 3097 
Q 1472 3097 1187 3025 
Q 903 2953 641 2809 
L 641 3341 
Q 956 3463 1253 3523 
Q 1550 3584 1831 3584 
Q 2591 3584 2966 3190 
Q 3341 2797 3341 1997 
z
" transform="scale(0.015625)"/>
        <path id="DejaVuSans-72" d="M 2631 2963 
Q 2534 3019 2420 3045 
Q 2306 3072 2169 3072 
Q 1681 3072 1420 2755 
Q 1159 2438 1159 1844 
L 1159 0 
L 581 0 
L 581 3500 
L 1159 3500 
L 1159 2956 
Q 1341 3275 1631 3429 
Q 1922 3584 2338 3584 
Q 2397 3584 2469 3576 
Q 2541 3569 2628 3553 
L 2631 2963 
z
" transform="scale(0.015625)"/>
       </defs>
       <use xlink:href="#DejaVuSans-4d"/>
       <use xlink:href="#DejaVuSans-61" x="86.279297"/>
       <use xlink:href="#DejaVuSans-72" x="147.558594"/>
      </g>
     </g>
    </g>
    <g id="xtick_2">
     <g id="line2d_3">
      <path d="M 121.789744 173.32 
L 121.789744 27.6 
" clip-path="url(#p728523c902)" style="fill: none; stroke: #ffffff; stroke-width: 0.8; stroke-linecap: square"/>
     </g>
     <g id="line2d_4">
      <g>
       <use xlink:href="#m0e211c6a02" x="121.789744" y="173.32" style="fill: #555555; stroke: #555555; stroke-width: 0.8"/>
      </g>
     </g>
     <g id="text_2">
      <!-- Apr -->
      <g style="fill: #555555" transform="translate(113.139744 187.918437) scale(0.1 -0.1)">
       <defs>
        <path id="DejaVuSans-41" d="M 2188 4044 
L 1331 1722 
L 3047 1722 
L 2188 4044 
z
M 1831 4666 
L 2547 4666 
L 4325 0 
L 3669 0 
L 3244 1197 
L 1141 1197 
L 716 0 
L 50 0 
L 1831 4666 
z
" transform="scale(0.015625)"/>
        <path id="DejaVuSans-70" d="M 1159 525 
L 1159 -1331 
L 581 -1331 
L 581 3500 
L 1159 3500 
L 1159 2969 
Q 1341 3281 1617 3432 
Q 1894 3584 2278 3584 
Q 2916 3584 3314 3078 
Q 3713 2572 3713 1747 
Q 3713 922 3314 415 
Q 2916 -91 2278 -91 
Q 1894 -91 1617 61 
Q 1341 213 1159 525 
z
M 3116 1747 
Q 3116 2381 2855 2742 
Q 2594 3103 2138 3103 
Q 1681 3103 1420 2742 
Q 1159 2381 1159 1747 
Q 1159 1113 1420 752 
Q 1681 391 2138 391 
Q 2594 391 2855 752 
Q 3116 1113 3116 1747 
z
" transform="scale(0.015625)"/>
       </defs>
       <use xlink:href="#DejaVuSans-41"/>
       <use xlink:href="#DejaVuSans-70" x="68.408203"/>
       <use xlink:href="#DejaVuSans-72" x="131.884766"/>
      </g>
     </g>
    </g>
    <g id="xtick_3">
     <g id="line2d_5">
      <path d="M 167.266667 173.32 
L 167.266667 27.6 
" clip-path="url(#p728523c902)" style="fill: none; stroke: #ffffff; stroke-width: 0.8; stroke-linecap: square"/>
     </g>
     <g id="line2d_6">
      <g>
       <use xlink:href="#m0e211c6a02" x="167.266667" y="173.32" style="fill: #555555; stroke: #555555; stroke-width: 0.8"/>
      </g>
     </g>
     <g id="text_3">
      <!-- May -->
      <g style="fill: #555555" transform="translate(156.929167 187.918437) scale(0.1 -0.1)">
       <defs>
        <path id="DejaVuSans-79" d="M 2059 -325 
Q 1816 -950 1584 -1140 
Q 1353 -1331 966 -1331 
L 506 -1331 
L 506 -850 
L 844 -850 
Q 1081 -850 1212 -737 
Q 1344 -625 1503 -206 
L 1606 56 
L 191 3500 
L 800 3500 
L 1894 763 
L 2988 3500 
L 3597 3500 
L 2059 -325 
z
" transform="scale(0.015625)"/>
       </defs>
       <use xlink:href="#DejaVuSans-4d"/>
       <use xlink:href="#DejaVuSans-61" x="86.279297"/>
       <use xlink:href="#DejaVuSans-79" x="147.558594"/>
      </g>
     </g>
    </g>
    <g id="xtick_4">
     <g id="line2d_7">
      <path d="M 214.259487 173.32 
L 214.259487 27.6 
" clip-path="url(#p728523c902)" style="fill: none; stroke: #ffffff; stroke-width: 0.8; stroke-linecap: square"/>
     </g>
     <g id="line2d_8">
      <g>
       <use xlink:href="#m0e211c6a02" x="214.259487" y="173.32" style="fill: #555555; stroke: #555555; stroke-width: 0.8"/>
      </g>
     </g>
     <g id="text_4">
      <!-- Jun -->
      <g style="fill: #555555" transform="translate(206.446987 187.918437) scale(0.1 -0.1)">
       <defs>
        <path id="DejaVuSans-4a" d="M 628 4666 
L 1259 4666 
L 1259 325 
Q 1259 -519 939 -900 
Q 619 -1281 -91 -1281 
L -331 -1281 
L -331 -750 
L -134 -750 
Q 284 -750 456 -515 
Q 628 -281 628 325 
L 628 4666 
z
" transform="scale(0.015625)"/>
        <path id="DejaVuSans-75" d="M 544 1381 
L 544 3500 
L 1119 3500 
L 1119 1403 
Q 1119 906 1312 657 
Q 1506 409 1894 409 
Q 2359 409 2629 706 
Q 2900 1003 2900 1516 
L 2900 3500 
L 3475 3500 
L 3475 0 
L 2900 0 
L 2900 538 
Q 2691 219 2414 64 
Q 2138 -91 1772 -91 
Q 1169 -91 856 284 
Q 544 659 544 1381 
z
M 1991 3584 
L 1991 3584 
z
" transform="scale(0.015625)"/>
        <path id="DejaVuSans-6e" d="M 3513 2113 
L 3513 0 
L 2938 0 
L 2938 2094 
Q 2938 2591 2744 2837 
Q 2550 3084 2163 3084 
Q 1697 3084 1428 2787 
Q 1159 2491 1159 1978 
L 1159 0 
L 581 0 
L 581 3500 
L 1159 3500 
L 1159 2956 
Q 1366 3272 1645 3428 
Q 1925 3584 2291 3584 
Q 2894 3584 3203 3211 
Q 3513 2838 3513 2113 
z
" transform="scale(0.015625)"/>
       </defs>
       <use xlink:href="#DejaVuSans-4a"/>
       <use xlink:href="#DejaVuSans-75" x="29.492188"/>
       <use xlink:href="#DejaVuSans-6e" x="92.871094"/>
      </g>
     </g>
    </g>
    <g id="xtick_5">
     <g id="line2d_9">
      <path d="M 259.73641 173.32 
L 259.73641 27.6 
" clip-path="url(#p728523c902)" style="fill: none; stroke: #ffffff; stroke-width: 0.8; stroke-linecap: square"/>
     </g>
     <g id="line2d_10">
      <g>
       <use xlink:href="#m0e211c6a02" x="259.73641" y="173.32" style="fill: #555555; stroke: #555555; stroke-width: 0.8"/>
      </g>
     </g>
     <g id="text_5">
      <!-- Jul -->
      <g style="fill: #555555" transform="translate(253.703598 187.918437) scale(0.1 -0.1)">
       <defs>
        <path id="DejaVuSans-6c" d="M 603 4863 
L 1178 4863 
L 1178 0 
L 603 0 
L 603 4863 
z
" transform="scale(0.015625)"/>
       </defs>
       <use xlink:href="#DejaVuSans-4a"/>
       <use xlink:href="#DejaVuSans-75" x="29.492188"/>
       <use xlink:href="#DejaVuSans-6c" x="92.871094"/>
      </g>
     </g>
    </g>
    <g id="xtick_6">
     <g id="line2d_11">
      <path d="M 306.729231 173.32 
L 306.729231 27.6 
" clip-path="url(#p728523c902)" style="fill: none; stroke: #ffffff; stroke-width: 0.8; stroke-linecap: square"/>
     </g>
     <g id="line2d_12">
      <g>
       <use xlink:href="#m0e211c6a02" x="306.729231" y="173.32" style="fill: #555555; stroke: #555555; stroke-width: 0.8"/>
      </g>
     </g>
     <g id="text_6">
      <!-- Aug -->
      <g style="fill: #555555" transform="translate(296.96595 187.918437) scale(0.1 -0.1)">
       <defs>
        <path id="DejaVuSans-67" d="M 2906 1791 
Q 2906 2416 2648 2759 
Q 2391 3103 1925 3103 
Q 1463 3103 1205 2759 
Q 947 2416 947 1791 
Q 947 1169 1205 825 
Q 1463 481 1925 481 
Q 2391 481 2648 825 
Q 2906 1169 2906 1791 
z
M 3481 434 
Q 3481 -459 3084 -895 
Q 2688 -1331 1869 -1331 
Q 1566 -1331 1297 -1286 
Q 1028 -1241 775 -1147 
L 775 -588 
Q 1028 -725 1275 -790 
Q 1522 -856 1778 -856 
Q 2344 -856 2625 -561 
Q 2906 -266 2906 331 
L 2906 616 
Q 2728 306 2450 153 
Q 2172 0 1784 0 
Q 1141 0 747 490 
Q 353 981 353 1791 
Q 353 2603 747 3093 
Q 1141 3584 1784 3584 
Q 2172 3584 2450 3431 
Q 2728 3278 2906 2969 
L 2906 3500 
L 3481 3500 
L 3481 434 
z
" transform="scale(0.015625)"/>
       </defs>
       <use xlink:href="#DejaVuSans-41"/>
       <use xlink:href="#DejaVuSans-75" x="68.408203"/>
       <use xlink:href="#DejaVuSans-67" x="131.787109"/>
      </g>
     </g>
    </g>
    <g id="xtick_7">
     <g id="line2d_13">
      <path d="M 353.722051 173.32 
L 353.722051 27.6 
" clip-path="url(#p728523c902)" style="fill: none; stroke: #ffffff; stroke-width: 0.8; stroke-linecap: square"/>
     </g>
     <g id="line2d_14">
      <g>
       <use xlink:href="#m0e211c6a02" x="353.722051" y="173.32" style="fill: #555555; stroke: #555555; stroke-width: 0.8"/>
      </g>
     </g>
     <g id="text_7">
      <!-- Sep -->
      <g style="fill: #555555" transform="translate(344.297051 187.918437) scale(0.1 -0.1)">
       <defs>
        <path id="DejaVuSans-53" d="M 3425 4513 
L 3425 3897 
Q 3066 4069 2747 4153 
Q 2428 4238 2131 4238 
Q 1616 4238 1336 4038 
Q 1056 3838 1056 3469 
Q 1056 3159 1242 3001 
Q 1428 2844 1947 2747 
L 2328 2669 
Q 3034 2534 3370 2195 
Q 3706 1856 3706 1288 
Q 3706 609 3251 259 
Q 2797 -91 1919 -91 
Q 1588 -91 1214 -16 
Q 841 59 441 206 
L 441 856 
Q 825 641 1194 531 
Q 1563 422 1919 422 
Q 2459 422 2753 634 
Q 3047 847 3047 1241 
Q 3047 1584 2836 1778 
Q 2625 1972 2144 2069 
L 1759 2144 
Q 1053 2284 737 2584 
Q 422 2884 422 3419 
Q 422 4038 858 4394 
Q 1294 4750 2059 4750 
Q 2388 4750 2728 4690 
Q 3069 4631 3425 4513 
z
" transform="scale(0.015625)"/>
        <path id="DejaVuSans-65" d="M 3597 1894 
L 3597 1613 
L 953 1613 
Q 991 1019 1311 708 
Q 1631 397 2203 397 
Q 2534 397 2845 478 
Q 3156 559 3463 722 
L 3463 178 
Q 3153 47 2828 -22 
Q 2503 -91 2169 -91 
Q 1331 -91 842 396 
Q 353 884 353 1716 
Q 353 2575 817 3079 
Q 1281 3584 2069 3584 
Q 2775 3584 3186 3129 
Q 3597 2675 3597 1894 
z
M 3022 2063 
Q 3016 2534 2758 2815 
Q 2500 3097 2075 3097 
Q 1594 3097 1305 2825 
Q 1016 2553 972 2059 
L 3022 2063 
z
" transform="scale(0.015625)"/>
       </defs>
       <use xlink:href="#DejaVuSans-53"/>
       <use xlink:href="#DejaVuSans-65" x="63.476562"/>
       <use xlink:href="#DejaVuSans-70" x="125"/>
      </g>
     </g>
    </g>
    <g id="xtick_8">
     <g id="line2d_15">
      <path d="M 399.198974 173.32 
L 399.198974 27.6 
" clip-path="url(#p728523c902)" style="fill: none; stroke: #ffffff; stroke-width: 0.8; stroke-linecap: square"/>
     </g>
     <g id="line2d_16">
      <g>
       <use xlink:href="#m0e211c6a02" x="399.198974" y="173.32" style="fill: #555555; stroke: #555555; stroke-width: 0.8"/>
      </g>
     </g>
     <g id="text_8">
      <!-- Oct -->
      <g style="fill: #555555" transform="translate(390.553662 187.918437) scale(0.1 -0.1)">
       <defs>
        <path id="DejaVuSans-4f" d="M 2522 4238 
Q 1834 4238 1429 3725 
Q 1025 3213 1025 2328 
Q 1025 1447 1429 934 
Q 1834 422 2522 422 
Q 3209 422 3611 934 
Q 4013 1447 4013 2328 
Q 4013 3213 3611 3725 
Q 3209 4238 2522 4238 
z
M 2522 4750 
Q 3503 4750 4090 4092 
Q 4678 3434 4678 2328 
Q 4678 1225 4090 567 
Q 3503 -91 2522 -91 
Q 1538 -91 948 565 
Q 359 1222 359 2328 
Q 359 3434 948 4092 
Q 1538 4750 2522 4750 
z
" transform="scale(0.015625)"/>
        <path id="DejaVuSans-63" d="M 3122 3366 
L 3122 2828 
Q 2878 2963 2633 3030 
Q 2388 3097 2138 3097 
Q 1578 3097 1268 2742 
Q 959 2388 959 1747 
Q 959 1106 1268 751 
Q 1578 397 2138 397 
Q 2388 397 2633 464 
Q 2878 531 3122 666 
L 3122 134 
Q 2881 22 2623 -34 
Q 2366 -91 2075 -91 
Q 1284 -91 818 406 
Q 353 903 353 1747 
Q 353 2603 823 3093 
Q 1294 3584 2113 3584 
Q 2378 3584 2631 3529 
Q 2884 3475 3122 3366 
z
" transform="scale(0.015625)"/>
        <path id="DejaVuSans-74" d="M 1172 4494 
L 1172 3500 
L 2356 3500 
L 2356 3053 
L 1172 3053 
L 1172 1153 
Q 1172 725 1289 603 
Q 1406 481 1766 481 
L 2356 481 
L 2356 0 
L 1766 0 
Q 1100 0 847 248 
Q 594 497 594 1153 
L 594 3053 
L 172 3053 
L 172 3500 
L 594 3500 
L 594 4494 
L 1172 4494 
z
" transform="scale(0.015625)"/>
       </defs>
       <use xlink:href="#DejaVuSans-4f"/>
       <use xlink:href="#DejaVuSans-63" x="78.710938"/>
       <use xlink:href="#DejaVuSans-74" x="133.691406"/>
      </g>
     </g>
    </g>
    <g id="xtick_9">
     <g id="line2d_17">
      <path d="M 446.191795 173.32 
L 446.191795 27.6 
" clip-path="url(#p728523c902)" style="fill: none; stroke: #ffffff; stroke-width: 0.8; stroke-linecap: square"/>
     </g>
     <g id="line2d_18">
      <g>
       <use xlink:href="#m0e211c6a02" x="446.191795" y="173.32" style="fill: #555555; stroke: #555555; stroke-width: 0.8"/>
      </g>
     </g>
     <g id="text_9">
      <!-- Nov -->
      <g style="fill: #555555" transform="translate(436.43242 187.918437) scale(0.1 -0.1)">
       <defs>
        <path id="DejaVuSans-4e" d="M 628 4666 
L 1478 4666 
L 3547 763 
L 3547 4666 
L 4159 4666 
L 4159 0 
L 3309 0 
L 1241 3903 
L 1241 0 
L 628 0 
L 628 4666 
z
" transform="scale(0.015625)"/>
        <path id="DejaVuSans-6f" d="M 1959 3097 
Q 1497 3097 1228 2736 
Q 959 2375 959 1747 
Q 959 1119 1226 758 
Q 1494 397 1959 397 
Q 2419 397 2687 759 
Q 2956 1122 2956 1747 
Q 2956 2369 2687 2733 
Q 2419 3097 1959 3097 
z
M 1959 3584 
Q 2709 3584 3137 3096 
Q 3566 2609 3566 1747 
Q 3566 888 3137 398 
Q 2709 -91 1959 -91 
Q 1206 -91 779 398 
Q 353 888 353 1747 
Q 353 2609 779 3096 
Q 1206 3584 1959 3584 
z
" transform="scale(0.015625)"/>
        <path id="DejaVuSans-76" d="M 191 3500 
L 800 3500 
L 1894 563 
L 2988 3500 
L 3597 3500 
L 2284 0 
L 1503 0 
L 191 3500 
z
" transform="scale(0.015625)"/>
       </defs>
       <use xlink:href="#DejaVuSans-4e"/>
       <use xlink:href="#DejaVuSans-6f" x="74.804688"/>
       <use xlink:href="#DejaVuSans-76" x="135.986328"/>
      </g>
     </g>
    </g>
    <g id="xtick_10">
     <g id="line2d_19">
      <path d="M 491.668718 173.32 
L 491.668718 27.6 
" clip-path="url(#p728523c902)" style="fill: none; stroke: #ffffff; stroke-width: 0.8; stroke-linecap: square"/>
     </g>
     <g id="line2d_20">
      <g>
       <use xlink:href="#m0e211c6a02" x="491.668718" y="173.32" style="fill: #555555; stroke: #555555; stroke-width: 0.8"/>
      </g>
     </g>
     <g id="text_10">
      <!-- Dec -->
      <g style="fill: #555555" transform="translate(481.992937 187.918437) scale(0.1 -0.1)">
       <defs>
        <path id="DejaVuSans-44" d="M 1259 4147 
L 1259 519 
L 2022 519 
Q 2988 519 3436 956 
Q 3884 1394 3884 2338 
Q 3884 3275 3436 3711 
Q 2988 4147 2022 4147 
L 1259 4147 
z
M 628 4666 
L 1925 4666 
Q 3281 4666 3915 4102 
Q 4550 3538 4550 2338 
Q 4550 1131 3912 565 
Q 3275 0 1925 0 
L 628 0 
L 628 4666 
z
" transform="scale(0.015625)"/>
       </defs>
       <use xlink:href="#DejaVuSans-44"/>
       <use xlink:href="#DejaVuSans-65" x="77.001953"/>
       <use xlink:href="#DejaVuSans-63" x="138.525391"/>
      </g>
     </g>
    </g>
    <g id="xtick_11">
     <g id="line2d_21">
      <path d="M 538.661538 173.32 
L 538.661538 27.6 
" clip-path="url(#p728523c902)" style="fill: none; stroke: #ffffff; stroke-width: 0.8; stroke-linecap: square"/>
     </g>
     <g id="line2d_22">
      <g>
       <use xlink:href="#m0e211c6a02" x="538.661538" y="173.32" style="fill: #555555; stroke: #555555; stroke-width: 0.8"/>
      </g>
     </g>
     <g id="text_11">
      <!-- Jan -->
      <g style="fill: #555555" transform="translate(530.953726 187.918437) scale(0.1 -0.1)">
       <use xlink:href="#DejaVuSans-4a"/>
       <use xlink:href="#DejaVuSans-61" x="29.492188"/>
       <use xlink:href="#DejaVuSans-6e" x="90.771484"/>
      </g>
     </g>
    </g>
    <g id="xtick_12">
     <g id="line2d_23">
      <path d="M 585.654359 173.32 
L 585.654359 27.6 
" clip-path="url(#p728523c902)" style="fill: none; stroke: #ffffff; stroke-width: 0.8; stroke-linecap: square"/>
     </g>
     <g id="line2d_24">
      <g>
       <use xlink:href="#m0e211c6a02" x="585.654359" y="173.32" style="fill: #555555; stroke: #555555; stroke-width: 0.8"/>
      </g>
     </g>
     <g id="text_12">
      <!-- Feb -->
      <g style="fill: #555555" transform="translate(576.802796 187.918437) scale(0.1 -0.1)">
       <defs>
        <path id="DejaVuSans-46" d="M 628 4666 
L 3309 4666 
L 3309 4134 
L 1259 4134 
L 1259 2759 
L 3109 2759 
L 3109 2228 
L 1259 2228 
L 1259 0 
L 628 0 
L 628 4666 
z
" transform="scale(0.015625)"/>
        <path id="DejaVuSans-62" d="M 3116 1747 
Q 3116 2381 2855 2742 
Q 2594 3103 2138 3103 
Q 1681 3103 1420 2742 
Q 1159 2381 1159 1747 
Q 1159 1113 1420 752 
Q 1681 391 2138 391 
Q 2594 391 2855 752 
Q 3116 1113 3116 1747 
z
M 1159 2969 
Q 1341 3281 1617 3432 
Q 1894 3584 2278 3584 
Q 2916 3584 3314 3078 
Q 3713 2572 3713 1747 
Q 3713 922 3314 415 
Q 2916 -91 2278 -91 
Q 1894 -91 1617 61 
Q 1341 213 1159 525 
L 1159 0 
L 581 0 
L 581 4863 
L 1159 4863 
L 1159 2969 
z
" transform="scale(0.015625)"/>
       </defs>
       <use xlink:href="#DejaVuSans-46"/>
       <use xlink:href="#DejaVuSans-65" x="52.019531"/>
       <use xlink:href="#DejaVuSans-62" x="113.542969"/>
      </g>
     </g>
    </g>
    <g id="xtick_13">
     <g id="line2d_25">
      <path d="M 628.099487 173.32 
L 628.099487 27.6 
" clip-path="url(#p728523c902)" style="fill: none; stroke: #ffffff; stroke-width: 0.8; stroke-linecap: square"/>
     </g>
     <g id="line2d_26">
      <g>
       <use xlink:href="#m0e211c6a02" x="628.099487" y="173.32" style="fill: #555555; stroke: #555555; stroke-width: 0.8"/>
      </g>
     </g>
     <g id="text_13">
      <!-- Mar -->
      <g style="fill: #555555" transform="translate(618.665893 187.918437) scale(0.1 -0.1)">
       <use xlink:href="#DejaVuSans-4d"/>
       <use xlink:href="#DejaVuSans-61" x="86.279297"/>
       <use xlink:href="#DejaVuSans-72" x="147.558594"/>
      </g>
     </g>
    </g>
    <g id="xtick_14">
     <g id="line2d_27">
      <path d="M 675.092308 173.32 
L 675.092308 27.6 
" clip-path="url(#p728523c902)" style="fill: none; stroke: #ffffff; stroke-width: 0.8; stroke-linecap: square"/>
     </g>
     <g id="line2d_28">
      <g>
       <use xlink:href="#m0e211c6a02" x="675.092308" y="173.32" style="fill: #555555; stroke: #555555; stroke-width: 0.8"/>
      </g>
     </g>
     <g id="text_14">
      <!-- Apr -->
      <g style="fill: #555555" transform="translate(666.442308 187.918437) scale(0.1 -0.1)">
       <use xlink:href="#DejaVuSans-41"/>
       <use xlink:href="#DejaVuSans-70" x="68.408203"/>
       <use xlink:href="#DejaVuSans-72" x="131.884766"/>
      </g>
     </g>
    </g>
    <g id="text_15">
     <!-- Date -->
     <g style="fill: #555555" transform="translate(369.699063 203.11625) scale(0.12 -0.12)">
      <use xlink:href="#DejaVuSans-44"/>
      <use xlink:href="#DejaVuSans-61" x="77.001953"/>
      <use xlink:href="#DejaVuSans-74" x="138.28125"/>
      <use xlink:href="#DejaVuSans-65" x="177.490234"/>
     </g>
    </g>
   </g>
   <g id="matplotlib.axis_2">
    <g id="ytick_1">
     <g id="line2d_29">
      <path d="M 58.88 154.653388 
L 709.2 154.653388 
" clip-path="url(#p728523c902)" style="fill: none; stroke: #ffffff; stroke-width: 0.8; stroke-linecap: square"/>
     </g>
     <g id="line2d_30">
      <defs>
       <path id="m9df20079b1" d="M 0 0 
L -3.5 0 
" style="stroke: #555555; stroke-width: 0.8"/>
      </defs>
      <g>
       <use xlink:href="#m9df20079b1" x="58.88" y="154.653388" style="fill: #555555; stroke: #555555; stroke-width: 0.8"/>
      </g>
     </g>
     <g id="text_16">
      <!-- 600 -->
      <g style="fill: #555555" transform="translate(32.7925 158.452607) scale(0.1 -0.1)">
       <defs>
        <path id="DejaVuSans-36" d="M 2113 2584 
Q 1688 2584 1439 2293 
Q 1191 2003 1191 1497 
Q 1191 994 1439 701 
Q 1688 409 2113 409 
Q 2538 409 2786 701 
Q 3034 994 3034 1497 
Q 3034 2003 2786 2293 
Q 2538 2584 2113 2584 
z
M 3366 4563 
L 3366 3988 
Q 3128 4100 2886 4159 
Q 2644 4219 2406 4219 
Q 1781 4219 1451 3797 
Q 1122 3375 1075 2522 
Q 1259 2794 1537 2939 
Q 1816 3084 2150 3084 
Q 2853 3084 3261 2657 
Q 3669 2231 3669 1497 
Q 3669 778 3244 343 
Q 2819 -91 2113 -91 
Q 1303 -91 875 529 
Q 447 1150 447 2328 
Q 447 3434 972 4092 
Q 1497 4750 2381 4750 
Q 2619 4750 2861 4703 
Q 3103 4656 3366 4563 
z
" transform="scale(0.015625)"/>
        <path id="DejaVuSans-30" d="M 2034 4250 
Q 1547 4250 1301 3770 
Q 1056 3291 1056 2328 
Q 1056 1369 1301 889 
Q 1547 409 2034 409 
Q 2525 409 2770 889 
Q 3016 1369 3016 2328 
Q 3016 3291 2770 3770 
Q 2525 4250 2034 4250 
z
M 2034 4750 
Q 2819 4750 3233 4129 
Q 3647 3509 3647 2328 
Q 3647 1150 3233 529 
Q 2819 -91 2034 -91 
Q 1250 -91 836 529 
Q 422 1150 422 2328 
Q 422 3509 836 4129 
Q 1250 4750 2034 4750 
z
" transform="scale(0.015625)"/>
       </defs>
       <use xlink:href="#DejaVuSans-36"/>
       <use xlink:href="#DejaVuSans-30" x="63.623047"/>
       <use xlink:href="#DejaVuSans-30" x="127.246094"/>
      </g>
     </g>
    </g>
    <g id="ytick_2">
     <g id="line2d_31">
      <path d="M 58.88 122.755868 
L 709.2 122.755868 
" clip-path="url(#p728523c902)" style="fill: none; stroke: #ffffff; stroke-width: 0.8; stroke-linecap: square"/>
     </g>
     <g id="line2d_32">
      <g>
       <use xlink:href="#m9df20079b1" x="58.88" y="122.755868" style="fill: #555555; stroke: #555555; stroke-width: 0.8"/>
      </g>
     </g>
     <g id="text_17">
      <!-- 800 -->
      <g style="fill: #555555" transform="translate(32.7925 126.555087) scale(0.1 -0.1)">
       <defs>
        <path id="DejaVuSans-38" d="M 2034 2216 
Q 1584 2216 1326 1975 
Q 1069 1734 1069 1313 
Q 1069 891 1326 650 
Q 1584 409 2034 409 
Q 2484 409 2743 651 
Q 3003 894 3003 1313 
Q 3003 1734 2745 1975 
Q 2488 2216 2034 2216 
z
M 1403 2484 
Q 997 2584 770 2862 
Q 544 3141 544 3541 
Q 544 4100 942 4425 
Q 1341 4750 2034 4750 
Q 2731 4750 3128 4425 
Q 3525 4100 3525 3541 
Q 3525 3141 3298 2862 
Q 3072 2584 2669 2484 
Q 3125 2378 3379 2068 
Q 3634 1759 3634 1313 
Q 3634 634 3220 271 
Q 2806 -91 2034 -91 
Q 1263 -91 848 271 
Q 434 634 434 1313 
Q 434 1759 690 2068 
Q 947 2378 1403 2484 
z
M 1172 3481 
Q 1172 3119 1398 2916 
Q 1625 2713 2034 2713 
Q 2441 2713 2670 2916 
Q 2900 3119 2900 3481 
Q 2900 3844 2670 4047 
Q 2441 4250 2034 4250 
Q 1625 4250 1398 4047 
Q 1172 3844 1172 3481 
z
" transform="scale(0.015625)"/>
       </defs>
       <use xlink:href="#DejaVuSans-38"/>
       <use xlink:href="#DejaVuSans-30" x="63.623047"/>
       <use xlink:href="#DejaVuSans-30" x="127.246094"/>
      </g>
     </g>
    </g>
    <g id="ytick_3">
     <g id="line2d_33">
      <path d="M 58.88 90.858348 
L 709.2 90.858348 
" clip-path="url(#p728523c902)" style="fill: none; stroke: #ffffff; stroke-width: 0.8; stroke-linecap: square"/>
     </g>
     <g id="line2d_34">
      <g>
       <use xlink:href="#m9df20079b1" x="58.88" y="90.858348" style="fill: #555555; stroke: #555555; stroke-width: 0.8"/>
      </g>
     </g>
     <g id="text_18">
      <!-- 1000 -->
      <g style="fill: #555555" transform="translate(26.43 94.657567) scale(0.1 -0.1)">
       <defs>
        <path id="DejaVuSans-31" d="M 794 531 
L 1825 531 
L 1825 4091 
L 703 3866 
L 703 4441 
L 1819 4666 
L 2450 4666 
L 2450 531 
L 3481 531 
L 3481 0 
L 794 0 
L 794 531 
z
" transform="scale(0.015625)"/>
       </defs>
       <use xlink:href="#DejaVuSans-31"/>
       <use xlink:href="#DejaVuSans-30" x="63.623047"/>
       <use xlink:href="#DejaVuSans-30" x="127.246094"/>
       <use xlink:href="#DejaVuSans-30" x="190.869141"/>
      </g>
     </g>
    </g>
    <g id="ytick_4">
     <g id="line2d_35">
      <path d="M 58.88 58.960828 
L 709.2 58.960828 
" clip-path="url(#p728523c902)" style="fill: none; stroke: #ffffff; stroke-width: 0.8; stroke-linecap: square"/>
     </g>
     <g id="line2d_36">
      <g>
       <use xlink:href="#m9df20079b1" x="58.88" y="58.960828" style="fill: #555555; stroke: #555555; stroke-width: 0.8"/>
      </g>
     </g>
     <g id="text_19">
      <!-- 1200 -->
      <g style="fill: #555555" transform="translate(26.43 62.760047) scale(0.1 -0.1)">
       <defs>
        <path id="DejaVuSans-32" d="M 1228 531 
L 3431 531 
L 3431 0 
L 469 0 
L 469 531 
Q 828 903 1448 1529 
Q 2069 2156 2228 2338 
Q 2531 2678 2651 2914 
Q 2772 3150 2772 3378 
Q 2772 3750 2511 3984 
Q 2250 4219 1831 4219 
Q 1534 4219 1204 4116 
Q 875 4013 500 3803 
L 500 4441 
Q 881 4594 1212 4672 
Q 1544 4750 1819 4750 
Q 2544 4750 2975 4387 
Q 3406 4025 3406 3419 
Q 3406 3131 3298 2873 
Q 3191 2616 2906 2266 
Q 2828 2175 2409 1742 
Q 1991 1309 1228 531 
z
" transform="scale(0.015625)"/>
       </defs>
       <use xlink:href="#DejaVuSans-31"/>
       <use xlink:href="#DejaVuSans-32" x="63.623047"/>
       <use xlink:href="#DejaVuSans-30" x="127.246094"/>
       <use xlink:href="#DejaVuSans-30" x="190.869141"/>
      </g>
     </g>
    </g>
    <g id="text_20">
     <!-- Concentration (µg/m³) -->
     <g style="fill: #555555" transform="translate(19.934375 167.391875) rotate(-90) scale(0.12 -0.12)">
      <defs>
       <path id="DejaVuSans-43" d="M 4122 4306 
L 4122 3641 
Q 3803 3938 3442 4084 
Q 3081 4231 2675 4231 
Q 1875 4231 1450 3742 
Q 1025 3253 1025 2328 
Q 1025 1406 1450 917 
Q 1875 428 2675 428 
Q 3081 428 3442 575 
Q 3803 722 4122 1019 
L 4122 359 
Q 3791 134 3420 21 
Q 3050 -91 2638 -91 
Q 1578 -91 968 557 
Q 359 1206 359 2328 
Q 359 3453 968 4101 
Q 1578 4750 2638 4750 
Q 3056 4750 3426 4639 
Q 3797 4528 4122 4306 
z
" transform="scale(0.015625)"/>
       <path id="DejaVuSans-69" d="M 603 3500 
L 1178 3500 
L 1178 0 
L 603 0 
L 603 3500 
z
M 603 4863 
L 1178 4863 
L 1178 4134 
L 603 4134 
L 603 4863 
z
" transform="scale(0.015625)"/>
       <path id="DejaVuSans-20" transform="scale(0.015625)"/>
       <path id="DejaVuSans-28" d="M 1984 4856 
Q 1566 4138 1362 3434 
Q 1159 2731 1159 2009 
Q 1159 1288 1364 580 
Q 1569 -128 1984 -844 
L 1484 -844 
Q 1016 -109 783 600 
Q 550 1309 550 2009 
Q 550 2706 781 3412 
Q 1013 4119 1484 4856 
L 1984 4856 
z
" transform="scale(0.015625)"/>
       <path id="DejaVuSans-b5" d="M 544 -1331 
L 544 3500 
L 1119 3500 
L 1119 1325 
Q 1119 872 1334 640 
Q 1550 409 1972 409 
Q 2434 409 2667 671 
Q 2900 934 2900 1459 
L 2900 3500 
L 3475 3500 
L 3475 806 
Q 3475 619 3529 530 
Q 3584 441 3700 441 
Q 3728 441 3778 458 
Q 3828 475 3916 513 
L 3916 50 
Q 3788 -22 3673 -56 
Q 3559 -91 3450 -91 
Q 3234 -91 3106 31 
Q 2978 153 2931 403 
Q 2775 156 2548 32 
Q 2322 -91 2016 -91 
Q 1697 -91 1473 31 
Q 1250 153 1119 397 
L 1119 -1331 
L 544 -1331 
z
" transform="scale(0.015625)"/>
       <path id="DejaVuSans-2f" d="M 1625 4666 
L 2156 4666 
L 531 -594 
L 0 -594 
L 1625 4666 
z
" transform="scale(0.015625)"/>
       <path id="DejaVuSans-6d" d="M 3328 2828 
Q 3544 3216 3844 3400 
Q 4144 3584 4550 3584 
Q 5097 3584 5394 3201 
Q 5691 2819 5691 2113 
L 5691 0 
L 5113 0 
L 5113 2094 
Q 5113 2597 4934 2840 
Q 4756 3084 4391 3084 
Q 3944 3084 3684 2787 
Q 3425 2491 3425 1978 
L 3425 0 
L 2847 0 
L 2847 2094 
Q 2847 2600 2669 2842 
Q 2491 3084 2119 3084 
Q 1678 3084 1418 2786 
Q 1159 2488 1159 1978 
L 1159 0 
L 581 0 
L 581 3500 
L 1159 3500 
L 1159 2956 
Q 1356 3278 1631 3431 
Q 1906 3584 2284 3584 
Q 2666 3584 2933 3390 
Q 3200 3197 3328 2828 
z
" transform="scale(0.015625)"/>
       <path id="DejaVuSans-b3" d="M 1638 3500 
Q 1925 3444 2083 3273 
Q 2241 3103 2241 2847 
Q 2241 2459 1944 2250 
Q 1647 2041 1094 2041 
Q 916 2041 720 2073 
Q 525 2106 306 2169 
L 306 2547 
Q 469 2463 655 2422 
Q 841 2381 1050 2381 
Q 1391 2381 1578 2504 
Q 1766 2628 1766 2847 
Q 1766 3078 1592 3197 
Q 1419 3316 1081 3316 
L 813 3316 
L 813 3653 
L 1106 3653 
Q 1400 3653 1551 3751 
Q 1703 3850 1703 4038 
Q 1703 4219 1547 4314 
Q 1391 4409 1094 4409 
Q 969 4409 809 4381 
Q 650 4353 397 4281 
L 397 4641 
Q 625 4694 825 4722 
Q 1025 4750 1197 4750 
Q 1647 4750 1911 4565 
Q 2175 4381 2175 4072 
Q 2175 3856 2034 3706 
Q 1894 3556 1638 3500 
z
" transform="scale(0.015625)"/>
       <path id="DejaVuSans-29" d="M 513 4856 
L 1013 4856 
Q 1481 4119 1714 3412 
Q 1947 2706 1947 2009 
Q 1947 1309 1714 600 
Q 1481 -109 1013 -844 
L 513 -844 
Q 928 -128 1133 580 
Q 1338 1288 1338 2009 
Q 1338 2731 1133 3434 
Q 928 4138 513 4856 
z
" transform="scale(0.015625)"/>
      </defs>
      <use xlink:href="#DejaVuSans-43"/>
      <use xlink:href="#DejaVuSans-6f" x="69.824219"/>
      <use xlink:href="#DejaVuSans-6e" x="131.005859"/>
      <use xlink:href="#DejaVuSans-63" x="194.384766"/>
      <use xlink:href="#DejaVuSans-65" x="249.365234"/>
      <use xlink:href="#DejaVuSans-6e" x="310.888672"/>
      <use xlink:href="#DejaVuSans-74" x="374.267578"/>
      <use xlink:href="#DejaVuSans-72" x="413.476562"/>
      <use xlink:href="#DejaVuSans-61" x="454.589844"/>
      <use xlink:href="#DejaVuSans-74" x="515.869141"/>
      <use xlink:href="#DejaVuSans-69" x="555.078125"/>
      <use xlink:href="#DejaVuSans-6f" x="582.861328"/>
      <use xlink:href="#DejaVuSans-6e" x="644.042969"/>
      <use xlink:href="#DejaVuSans-20" x="707.421875"/>
      <use xlink:href="#DejaVuSans-28" x="739.208984"/>
      <use xlink:href="#DejaVuSans-b5" x="778.222656"/>
      <use xlink:href="#DejaVuSans-67" x="841.845703"/>
      <use xlink:href="#DejaVuSans-2f" x="905.322266"/>
      <use xlink:href="#DejaVuSans-6d" x="939.013672"/>
      <use xlink:href="#DejaVuSans-b3" x="1036.425781"/>
      <use xlink:href="#DejaVuSans-29" x="1076.513672"/>
     </g>
    </g>
   </g>
   <g id="line2d_37">
    <path d="M 88.44 104.853385 
L 89.955897 114.494078 
L 91.471795 89.545898 
L 92.987692 92.003004 
L 94.50359 99.812912 
L 96.019487 68.714491 
L 97.535385 81.007774 
L 99.051282 75.079043 
L 100.567179 79.292728 
L 102.083077 81.621358 
L 103.598974 104.911532 
L 105.114872 111.509223 
L 106.630769 104.964694 
L 108.146667 107.363653 
L 109.662564 108.606328 
L 111.178462 113.251404 
L 112.694359 108.023201 
L 114.210256 111.114935 
L 115.726154 125.415656 
L 117.242051 128.797569 
L 118.757949 104.770319 
L 120.273846 112.686552 
L 121.789744 89.207145 
L 123.305641 81.417014 
L 124.821538 92.518016 
L 126.337436 113.733189 
L 127.853333 95.58483 
L 129.369231 95.687278 
L 130.885128 119.085992 
L 132.401026 88.741092 
L 133.916923 104.095819 
L 135.432821 111.653205 
L 136.948718 137.445341 
L 138.464615 154.726487 
L 139.980513 104.800222 
L 141.49641 97.345838 
L 143.012308 77.300241 
L 144.528205 79.876408 
L 146.044103 118.210472 
L 147.56 122.689415 
L 149.075897 111.215168 
L 150.591795 85.352703 
L 152.107692 78.38675 
L 153.62359 79.345337 
L 155.139487 64.855224 
L 156.655385 94.66833 
L 158.171282 139.498744 
L 159.687179 126.188174 
L 161.203077 93.201376 
L 162.718974 73.178483 
L 164.234872 68.361736 
L 165.750769 74.361349 
L 167.266667 104.659009 
L 168.782564 113.359944 
L 170.298462 91.592656 
L 171.814359 95.392115 
L 173.330256 99.98126 
L 174.846154 107.250683 
L 176.362051 100.934863 
L 177.877949 116.472721 
L 179.393846 116.826584 
L 180.909744 84.250688 
L 182.425641 73.083787 
L 183.941538 80.897572 
L 185.457436 94.862151 
L 186.973333 79.845397 
L 188.489231 102.021926 
L 190.005128 116.205247 
L 191.521026 108.923641 
L 193.036923 87.890107 
L 194.552821 84.198079 
L 196.068718 81.984081 
L 197.584615 84.590153 
L 199.100513 89.818356 
L 200.61641 120.851985 
L 202.132308 125.66984 
L 203.648205 98.450797 
L 205.164103 61.844009 
L 206.68 84.369196 
L 208.195897 93.287211 
L 209.711795 126.482783 
L 211.227692 124.591637 
L 212.74359 94.533208 
L 214.259487 87.383955 
L 215.775385 113.733189 
L 217.291282 92.992048 
L 220.323077 108.225883 
L 221.838974 130.448376 
L 223.354872 85.807907 
L 224.870769 77.077622 
L 226.386667 72.671778 
L 227.902564 72.605324 
L 229.418462 81.910983 
L 230.934359 106.579506 
L 232.450256 148.024685 
L 233.966154 132.958091 
L 235.482051 89.113952 
L 236.997949 88.410656 
L 238.513846 87.234989 
L 240.029744 85.199861 
L 241.545641 115.819107 
L 244.577436 93.013424 
L 246.093333 85.887651 
L 247.609231 81.134588 
L 249.125128 104.582588 
L 250.641026 93.033028 
L 252.156923 110.468678 
L 253.672821 113.402031 
L 255.188718 84.382487 
L 256.704615 77.78701 
L 258.220513 78.067221 
L 259.73641 84.733027 
L 261.252308 87.360696 
L 262.768205 106.868577 
L 264.284103 121.099523 
L 265.8 89.00652 
L 267.315897 73.904484 
L 268.831795 70.370283 
L 270.347692 73.381165 
L 271.86359 92.393416 
L 273.379487 119.236065 
L 274.895385 127.80797 
L 276.411282 105.657468 
L 277.927179 87.336884 
L 279.443077 77.828543 
L 280.958974 84.407407 
L 282.474872 85.430786 
L 285.506667 121.92022 
L 287.022564 86.530586 
L 288.538462 76.554304 
L 290.054359 81.578163 
L 291.570256 71.696577 
L 293.086154 78.998673 
L 294.602051 113.510571 
L 296.117949 142.341278 
L 297.633846 110.549529 
L 299.149744 114.723342 
L 300.665641 91.886711 
L 302.181538 90.917048 
L 303.697436 85.362671 
L 305.213333 101.041862 
L 306.729231 123.960332 
L 308.245128 101.896219 
L 309.761026 97.480406 
L 311.276923 106.504746 
L 312.792821 111.717443 
L 314.308718 93.926823 
L 315.824615 118.07092 
L 317.340513 130.378046 
L 318.85641 108.368758 
L 320.372308 103.604065 
L 321.888205 113.942517 
L 323.404103 117.270159 
L 324.92 129.075564 
L 326.435897 135.059672 
L 327.951795 139.792799 
L 329.467692 123.142958 
L 330.98359 118.213794 
L 332.499487 115.200143 
L 334.015385 123.06266 
L 335.531282 124.852466 
L 337.047179 136.702727 
L 338.563077 129.602206 
L 340.078974 120.810452 
L 341.594872 114.314101 
L 343.110769 111.222921 
L 344.626667 142.818079 
L 347.658462 119.224357 
L 349.174359 118.526678 
L 350.690256 95.05985 
L 352.206154 93.938452 
L 353.722051 82.870677 
L 355.237949 79.284421 
L 356.753846 79.809401 
L 358.269744 100.713353 
L 359.785641 128.842978 
L 361.301538 123.636373 
L 362.817436 99.538287 
L 364.333333 48.104279 
L 365.849231 80.259068 
L 367.365128 89.366474 
L 368.881026 102.346439 
L 370.396923 109.332882 
L 371.912821 70.651601 
L 373.428718 88.276642 
L 374.944615 76.773045 
L 376.460513 88.389613 
L 377.97641 109.544979 
L 379.492308 120.542978 
L 381.008205 100.203325 
L 382.524103 75.672138 
L 384.04 70.98719 
L 385.555897 72.77478 
L 387.071795 78.908961 
L 388.587692 87.449301 
L 390.10359 130.559685 
L 391.619487 119.391677 
L 393.135385 93.61117 
L 394.651282 72.574313 
L 396.167179 76.147278 
L 397.683077 70.234608 
L 399.198974 66.341752 
L 400.714872 93.518136 
L 402.230769 107.854299 
L 403.746667 71.277922 
L 405.262564 60.63877 
L 406.778462 66.751354 
L 408.294359 68.367274 
L 409.810256 67.890472 
L 411.326154 74.705244 
L 412.842051 113.470699 
L 414.357949 82.310256 
L 415.873846 112.678245 
L 417.389744 130.924624 
L 418.905641 110.781008 
L 420.421538 84.601782 
L 421.937436 114.555547 
L 423.453333 121.036393 
L 424.969231 70.143235 
L 426.485128 56.349218 
L 428.001026 34.223636 
L 429.516923 56.924038 
L 431.032821 60.655384 
L 434.064615 95.321786 
L 435.580513 51.102741 
L 437.09641 52.058005 
L 438.612308 82.41215 
L 440.128205 77.997999 
L 441.644103 87.703484 
L 443.16 76.253049 
L 444.675897 100.640254 
L 446.191795 75.795076 
L 447.707692 43.468933 
L 449.22359 77.870077 
L 450.739487 57.37149 
L 452.255385 62.33831 
L 453.771282 85.387591 
L 455.287179 131.084665 
L 458.318974 98.829959 
L 459.834872 115.876304 
L 461.350769 81.104684 
L 462.866667 113.490635 
L 464.382564 111.709691 
L 465.898462 166.696364 
L 467.414359 126.597415 
L 470.446154 79.073986 
L 471.962051 75.182046 
L 473.477949 88.579004 
L 474.993846 105.336278 
L 476.509744 113.588654 
L 478.025641 52.621749 
L 479.541538 34.542612 
L 481.057436 65.524739 
L 482.573333 74.850888 
L 484.089231 48.150559 
L 485.605128 65.793875 
L 487.121026 116.456108 
L 488.636923 90.813492 
L 490.152821 96.878451 
L 491.668718 82.817515 
L 493.184615 61.766813 
L 494.700513 67.281318 
L 496.21641 100.582108 
L 497.732308 137.535053 
L 499.248205 93.674301 
L 500.764103 93.388552 
L 502.28 114.936546 
L 503.795897 133.584412 
L 505.311795 122.136192 
L 506.827692 107.530894 
L 508.34359 89.492735 
L 509.859487 67.006645 
L 511.375385 71.683873 
L 515.923077 91.057708 
L 517.438974 112.503806 
L 518.954872 101.366255 
L 520.470769 130.213575 
L 521.986667 112.520973 
L 523.502564 111.588413 
L 525.018462 73.578863 
L 526.534359 62.423388 
L 528.050256 77.968095 
L 529.566154 134.923443 
L 531.082051 125.456082 
L 532.597949 103.266816 
L 534.113846 140.07301 
L 535.629744 139.118299 
L 537.145641 139.315997 
L 538.661538 114.193931 
L 540.177436 122.136904 
L 544.725128 77.398981 
L 546.241026 120.942804 
L 547.756923 96.445398 
L 549.272821 92.730666 
L 550.788718 119.184564 
L 552.304615 85.718196 
L 553.820513 79.315433 
L 555.33641 69.220089 
L 556.852308 83.905685 
L 558.368205 77.589312 
L 559.884103 94.4734 
L 561.4 130.841557 
L 562.915897 89.440127 
L 564.431795 78.302022 
L 565.947692 134.31595 
L 568.979487 62.030964 
L 570.495385 74.040713 
L 572.011282 123.53337 
L 573.527179 128.842978 
L 575.043077 152.853061 
L 576.558974 148.900205 
L 578.074872 138.176326 
L 579.590769 139.413723 
L 581.106667 157.30487 
L 582.622564 158.85046 
L 584.138462 100.460831 
L 585.654359 88.238432 
L 587.170256 87.033414 
L 588.686154 86.555505 
L 591.717949 126.751365 
L 593.233846 144.864837 
L 594.749744 134.354715 
L 596.265641 134.489934 
L 600.813333 71.905905 
L 602.329231 68.838537 
L 603.845128 98.409089 
L 605.361026 110.716216 
L 606.876923 129.062274 
L 608.392821 102.640495 
L 609.908718 122.378193 
L 611.424615 119.708991 
L 612.940513 121.268979 
L 614.45641 143.955536 
L 615.972308 119.54618 
L 617.488205 115.954387 
L 619.004103 123.900524 
L 620.52 108.229206 
L 622.035897 100.910497 
L 623.551795 127.83289 
L 625.067692 135.227466 
L 626.58359 153.580724 
L 628.099487 151.662996 
L 629.615385 117.805107 
L 631.131282 109.28415 
L 632.647179 91.677383 
L 634.163077 119.556148 
L 635.678974 142.464216 
L 637.194872 132.436433 
L 638.710769 99.261905 
L 640.226667 93.127724 
L 641.742564 99.253044 
L 643.258462 98.000041 
L 644.774359 126.086833 
L 646.290256 129.417798 
L 647.806154 95.867255 
L 649.322051 96.179585 
L 650.837949 90.731533 
L 652.353846 95.674541 
L 653.869744 89.714246 
L 655.385641 114.489094 
L 656.901538 127.4458 
L 658.417436 95.979118 
L 659.933333 97.558489 
L 661.449231 84.513732 
L 662.965128 82.547272 
L 664.481026 82.71119 
L 665.996923 105.153532 
L 667.512821 135.0198 
L 669.028718 131.509412 
L 670.544615 99.905393 
L 672.060513 105.43485 
L 673.57641 130.841557 
L 675.092308 144.626159 
L 676.608205 152.070022 
L 678.124103 136.379321 
L 679.64 112.846372 
L 679.64 112.846372 
" clip-path="url(#p728523c902)" style="fill: none; stroke: #55a868; stroke-width: 2; stroke-linecap: square"/>
   </g>
   <g id="patch_3">
    <path d="M 58.88 173.32 
L 58.88 27.6 
" style="fill: none; stroke: #ffffff; stroke-linejoin: miter; stroke-linecap: square"/>
   </g>
   <g id="patch_4">
    <path d="M 709.2 173.32 
L 709.2 27.6 
" style="fill: none; stroke: #ffffff; stroke-linejoin: miter; stroke-linecap: square"/>
   </g>
   <g id="patch_5">
    <path d="M 58.88 173.32 
L 709.2 173.32 
" style="fill: none; stroke: #ffffff; stroke-linejoin: miter; stroke-linecap: square"/>
   </g>
   <g id="patch_6">
    <path d="M 58.88 27.6 
L 709.2 27.6 
" style="fill: none; stroke: #ffffff; stroke-linejoin: miter; stroke-linecap: square"/>
   </g>
   <g id="text_21">
    <!-- Daily Average of PT08.S2(NMHC) Concentration -->
    <g transform="translate(216.999219 21.6) scale(0.14 -0.14)">
     <defs>
      <path id="DejaVuSans-66" d="M 2375 4863 
L 2375 4384 
L 1825 4384 
Q 1516 4384 1395 4259 
Q 1275 4134 1275 3809 
L 1275 3500 
L 2222 3500 
L 2222 3053 
L 1275 3053 
L 1275 0 
L 697 0 
L 697 3053 
L 147 3053 
L 147 3500 
L 697 3500 
L 697 3744 
Q 697 4328 969 4595 
Q 1241 4863 1831 4863 
L 2375 4863 
z
" transform="scale(0.015625)"/>
      <path id="DejaVuSans-50" d="M 1259 4147 
L 1259 2394 
L 2053 2394 
Q 2494 2394 2734 2622 
Q 2975 2850 2975 3272 
Q 2975 3691 2734 3919 
Q 2494 4147 2053 4147 
L 1259 4147 
z
M 628 4666 
L 2053 4666 
Q 2838 4666 3239 4311 
Q 3641 3956 3641 3272 
Q 3641 2581 3239 2228 
Q 2838 1875 2053 1875 
L 1259 1875 
L 1259 0 
L 628 0 
L 628 4666 
z
" transform="scale(0.015625)"/>
      <path id="DejaVuSans-54" d="M -19 4666 
L 3928 4666 
L 3928 4134 
L 2272 4134 
L 2272 0 
L 1638 0 
L 1638 4134 
L -19 4134 
L -19 4666 
z
" transform="scale(0.015625)"/>
      <path id="DejaVuSans-2e" d="M 684 794 
L 1344 794 
L 1344 0 
L 684 0 
L 684 794 
z
" transform="scale(0.015625)"/>
      <path id="DejaVuSans-48" d="M 628 4666 
L 1259 4666 
L 1259 2753 
L 3553 2753 
L 3553 4666 
L 4184 4666 
L 4184 0 
L 3553 0 
L 3553 2222 
L 1259 2222 
L 1259 0 
L 628 0 
L 628 4666 
z
" transform="scale(0.015625)"/>
     </defs>
     <use xlink:href="#DejaVuSans-44"/>
     <use xlink:href="#DejaVuSans-61" x="77.001953"/>
     <use xlink:href="#DejaVuSans-69" x="138.28125"/>
     <use xlink:href="#DejaVuSans-6c" x="166.064453"/>
     <use xlink:href="#DejaVuSans-79" x="193.847656"/>
     <use xlink:href="#DejaVuSans-20" x="253.027344"/>
     <use xlink:href="#DejaVuSans-41" x="284.814453"/>
     <use xlink:href="#DejaVuSans-76" x="347.347656"/>
     <use xlink:href="#DejaVuSans-65" x="406.527344"/>
     <use xlink:href="#DejaVuSans-72" x="468.050781"/>
     <use xlink:href="#DejaVuSans-61" x="509.164062"/>
     <use xlink:href="#DejaVuSans-67" x="570.443359"/>
     <use xlink:href="#DejaVuSans-65" x="633.919922"/>
     <use xlink:href="#DejaVuSans-20" x="695.443359"/>
     <use xlink:href="#DejaVuSans-6f" x="727.230469"/>
     <use xlink:href="#DejaVuSans-66" x="788.412109"/>
     <use xlink:href="#DejaVuSans-20" x="823.617188"/>
     <use xlink:href="#DejaVuSans-50" x="855.404297"/>
     <use xlink:href="#DejaVuSans-54" x="915.707031"/>
     <use xlink:href="#DejaVuSans-30" x="976.791016"/>
     <use xlink:href="#DejaVuSans-38" x="1040.414062"/>
     <use xlink:href="#DejaVuSans-2e" x="1104.037109"/>
     <use xlink:href="#DejaVuSans-53" x="1135.824219"/>
     <use xlink:href="#DejaVuSans-32" x="1199.300781"/>
     <use xlink:href="#DejaVuSans-28" x="1262.923828"/>
     <use xlink:href="#DejaVuSans-4e" x="1301.9375"/>
     <use xlink:href="#DejaVuSans-4d" x="1376.742188"/>
     <use xlink:href="#DejaVuSans-48" x="1463.021484"/>
     <use xlink:href="#DejaVuSans-43" x="1538.216797"/>
     <use xlink:href="#DejaVuSans-29" x="1608.041016"/>
     <use xlink:href="#DejaVuSans-20" x="1647.054688"/>
     <use xlink:href="#DejaVuSans-43" x="1678.841797"/>
     <use xlink:href="#DejaVuSans-6f" x="1748.666016"/>
     <use xlink:href="#DejaVuSans-6e" x="1809.847656"/>
     <use xlink:href="#DejaVuSans-63" x="1873.226562"/>
     <use xlink:href="#DejaVuSans-65" x="1928.207031"/>
     <use xlink:href="#DejaVuSans-6e" x="1989.730469"/>
     <use xlink:href="#DejaVuSans-74" x="2053.109375"/>
     <use xlink:href="#DejaVuSans-72" x="2092.318359"/>
     <use xlink:href="#DejaVuSans-61" x="2133.431641"/>
     <use xlink:href="#DejaVuSans-74" x="2194.710938"/>
     <use xlink:href="#DejaVuSans-69" x="2233.919922"/>
     <use xlink:href="#DejaVuSans-6f" x="2261.703125"/>
     <use xlink:href="#DejaVuSans-6e" x="2322.884766"/>
    </g>
   </g>
   <g id="legend_1">
    <g id="patch_7">
     <path d="M 591.032812 50.278125 
L 702.2 50.278125 
Q 704.2 50.278125 704.2 48.278125 
L 704.2 34.6 
Q 704.2 32.6 702.2 32.6 
L 591.032812 32.6 
Q 589.032812 32.6 589.032812 34.6 
L 589.032812 48.278125 
Q 589.032812 50.278125 591.032812 50.278125 
z
" style="fill: #e5e5e5; opacity: 0.8; stroke: #cccccc; stroke-width: 0.5; stroke-linejoin: miter"/>
    </g>
    <g id="line2d_38">
     <path d="M 593.032812 40.698437 
L 603.032812 40.698437 
L 613.032812 40.698437 
" style="fill: none; stroke: #55a868; stroke-width: 2; stroke-linecap: square"/>
    </g>
    <g id="text_22">
     <!-- PT08.S2(NMHC) -->
     <g transform="translate(621.032812 44.198437) scale(0.1 -0.1)">
      <use xlink:href="#DejaVuSans-50"/>
      <use xlink:href="#DejaVuSans-54" x="60.302734"/>
      <use xlink:href="#DejaVuSans-30" x="121.386719"/>
      <use xlink:href="#DejaVuSans-38" x="185.009766"/>
      <use xlink:href="#DejaVuSans-2e" x="248.632812"/>
      <use xlink:href="#DejaVuSans-53" x="280.419922"/>
      <use xlink:href="#DejaVuSans-32" x="343.896484"/>
      <use xlink:href="#DejaVuSans-28" x="407.519531"/>
      <use xlink:href="#DejaVuSans-4e" x="446.533203"/>
      <use xlink:href="#DejaVuSans-4d" x="521.337891"/>
      <use xlink:href="#DejaVuSans-48" x="607.617188"/>
      <use xlink:href="#DejaVuSans-43" x="682.8125"/>
      <use xlink:href="#DejaVuSans-29" x="752.636719"/>
     </g>
    </g>
   </g>
  </g>
 </g>
 <defs>
  <clipPath id="p728523c902">
   <rect x="58.88" y="27.6" width="650.32" height="145.72"/>
  </clipPath>
 </defs>
</svg>
