<?xml version="1.0" encoding="utf-8" standalone="no"?>
<!DOCTYPE svg PUBLIC "-//W3C//DTD SVG 1.1//EN"
  "http://www.w3.org/Graphics/SVG/1.1/DTD/svg11.dtd">
<svg xmlns:xlink="http://www.w3.org/1999/xlink" width="720pt" height="216pt" viewBox="0 0 720 216" xmlns="http://www.w3.org/2000/svg" version="1.1">
 <metadata>
  <rdf:RDF xmlns:dc="http://purl.org/dc/elements/1.1/" xmlns:cc="http://creativecommons.org/ns#" xmlns:rdf="http://www.w3.org/1999/02/22-rdf-syntax-ns#">
   <cc:Work>
    <dc:type rdf:resource="http://purl.org/dc/dcmitype/StillImage"/>
    <dc:date>2024-09-17T19:07:03.867846</dc:date>
    <dc:format>image/svg+xml</dc:format>
    <dc:creator>
     <cc:Agent>
      <dc:title>Matplotlib v3.8.4, https://matplotlib.org/</dc:title>
     </cc:Agent>
    </dc:creator>
   </cc:Work>
  </rdf:RDF>
 </metadata>
 <defs>
  <style type="text/css">*{stroke-linejoin: round; stroke-linecap: butt}</style>
 </defs>
 <g id="figure_1">
  <g id="patch_1">
   <path d="M 0 216 
L 720 216 
L 720 0 
L 0 0 
z
" style="fill: #ffffff"/>
  </g>
  <g id="axes_1">
   <g id="patch_2">
    <path d="M 58.88 173.32 
L 709.2 173.32 
L 709.2 27.6 
L 58.88 27.6 
z
" style="fill: #e5e5e5"/>
   </g>
   <g id="matplotlib.axis_1">
    <g id="xtick_1">
     <g id="line2d_1">
      <path d="M 74.796923 173.32 
L 74.796923 27.6 
" clip-path="url(#p00f84e4966)" style="fill: none; stroke: #ffffff; stroke-width: 0.8; stroke-linecap: square"/>
     </g>
     <g id="line2d_2">
      <defs>
       <path id="m4f2d6f7ed2" d="M 0 0 
L 0 3.5 
" style="stroke: #555555; stroke-width: 0.8"/>
      </defs>
      <g>
       <use xlink:href="#m4f2d6f7ed2" x="74.796923" y="173.32" style="fill: #555555; stroke: #555555; stroke-width: 0.8"/>
      </g>
     </g>
     <g id="text_1">
      <!-- Mar -->
      <g style="fill: #555555" transform="translate(65.363329 187.918437) scale(0.1 -0.1)">
       <defs>
        <path id="DejaVuSans-4d" d="M 628 4666 
L 1569 4666 
L 2759 1491 
L 3956 4666 
L 4897 4666 
L 4897 0 
L 4281 0 
L 4281 4097 
L 3078 897 
L 2444 897 
L 1241 4097 
L 1241 0 
L 628 0 
L 628 4666 
z
" transform="scale(0.015625)"/>
        <path id="DejaVuSans-61" d="M 2194 1759 
Q 1497 1759 1228 1600 
Q 959 1441 959 1056 
Q 959 750 1161 570 
Q 1363 391 1709 391 
Q 2188 391 2477 730 
Q 2766 1069 2766 1631 
L 2766 1759 
L 2194 1759 
z
M 3341 1997 
L 3341 0 
L 2766 0 
L 2766 531 
Q 2569 213 2275 61 
Q 1981 -91 1556 -91 
Q 1019 -91 701 211 
Q 384 513 384 1019 
Q 384 1609 779 1909 
Q 1175 2209 1959 2209 
L 2766 2209 
L 2766 2266 
Q 2766 2663 2505 2880 
Q 2244 3097 1772 3097 
Q 1472 3097 1187 3025 
Q 903 2953 641 2809 
L 641 3341 
Q 956 3463 1253 3523 
Q 1550 3584 1831 3584 
Q 2591 3584 2966 3190 
Q 3341 2797 3341 1997 
z
" transform="scale(0.015625)"/>
        <path id="DejaVuSans-72" d="M 2631 2963 
Q 2534 3019 2420 3045 
Q 2306 3072 2169 3072 
Q 1681 3072 1420 2755 
Q 1159 2438 1159 1844 
L 1159 0 
L 581 0 
L 581 3500 
L 1159 3500 
L 1159 2956 
Q 1341 3275 1631 3429 
Q 1922 3584 2338 3584 
Q 2397 3584 2469 3576 
Q 2541 3569 2628 3553 
L 2631 2963 
z
" transform="scale(0.015625)"/>
       </defs>
       <use xlink:href="#DejaVuSans-4d"/>
       <use xlink:href="#DejaVuSans-61" x="86.279297"/>
       <use xlink:href="#DejaVuSans-72" x="147.558594"/>
      </g>
     </g>
    </g>
    <g id="xtick_2">
     <g id="line2d_3">
      <path d="M 121.789744 173.32 
L 121.789744 27.6 
" clip-path="url(#p00f84e4966)" style="fill: none; stroke: #ffffff; stroke-width: 0.8; stroke-linecap: square"/>
     </g>
     <g id="line2d_4">
      <g>
       <use xlink:href="#m4f2d6f7ed2" x="121.789744" y="173.32" style="fill: #555555; stroke: #555555; stroke-width: 0.8"/>
      </g>
     </g>
     <g id="text_2">
      <!-- Apr -->
      <g style="fill: #555555" transform="translate(113.139744 187.918437) scale(0.1 -0.1)">
       <defs>
        <path id="DejaVuSans-41" d="M 2188 4044 
L 1331 1722 
L 3047 1722 
L 2188 4044 
z
M 1831 4666 
L 2547 4666 
L 4325 0 
L 3669 0 
L 3244 1197 
L 1141 1197 
L 716 0 
L 50 0 
L 1831 4666 
z
" transform="scale(0.015625)"/>
        <path id="DejaVuSans-70" d="M 1159 525 
L 1159 -1331 
L 581 -1331 
L 581 3500 
L 1159 3500 
L 1159 2969 
Q 1341 3281 1617 3432 
Q 1894 3584 2278 3584 
Q 2916 3584 3314 3078 
Q 3713 2572 3713 1747 
Q 3713 922 3314 415 
Q 2916 -91 2278 -91 
Q 1894 -91 1617 61 
Q 1341 213 1159 525 
z
M 3116 1747 
Q 3116 2381 2855 2742 
Q 2594 3103 2138 3103 
Q 1681 3103 1420 2742 
Q 1159 2381 1159 1747 
Q 1159 1113 1420 752 
Q 1681 391 2138 391 
Q 2594 391 2855 752 
Q 3116 1113 3116 1747 
z
" transform="scale(0.015625)"/>
       </defs>
       <use xlink:href="#DejaVuSans-41"/>
       <use xlink:href="#DejaVuSans-70" x="68.408203"/>
       <use xlink:href="#DejaVuSans-72" x="131.884766"/>
      </g>
     </g>
    </g>
    <g id="xtick_3">
     <g id="line2d_5">
      <path d="M 167.266667 173.32 
L 167.266667 27.6 
" clip-path="url(#p00f84e4966)" style="fill: none; stroke: #ffffff; stroke-width: 0.8; stroke-linecap: square"/>
     </g>
     <g id="line2d_6">
      <g>
       <use xlink:href="#m4f2d6f7ed2" x="167.266667" y="173.32" style="fill: #555555; stroke: #555555; stroke-width: 0.8"/>
      </g>
     </g>
     <g id="text_3">
      <!-- May -->
      <g style="fill: #555555" transform="translate(156.929167 187.918437) scale(0.1 -0.1)">
       <defs>
        <path id="DejaVuSans-79" d="M 2059 -325 
Q 1816 -950 1584 -1140 
Q 1353 -1331 966 -1331 
L 506 -1331 
L 506 -850 
L 844 -850 
Q 1081 -850 1212 -737 
Q 1344 -625 1503 -206 
L 1606 56 
L 191 3500 
L 800 3500 
L 1894 763 
L 2988 3500 
L 3597 3500 
L 2059 -325 
z
" transform="scale(0.015625)"/>
       </defs>
       <use xlink:href="#DejaVuSans-4d"/>
       <use xlink:href="#DejaVuSans-61" x="86.279297"/>
       <use xlink:href="#DejaVuSans-79" x="147.558594"/>
      </g>
     </g>
    </g>
    <g id="xtick_4">
     <g id="line2d_7">
      <path d="M 214.259487 173.32 
L 214.259487 27.6 
" clip-path="url(#p00f84e4966)" style="fill: none; stroke: #ffffff; stroke-width: 0.8; stroke-linecap: square"/>
     </g>
     <g id="line2d_8">
      <g>
       <use xlink:href="#m4f2d6f7ed2" x="214.259487" y="173.32" style="fill: #555555; stroke: #555555; stroke-width: 0.8"/>
      </g>
     </g>
     <g id="text_4">
      <!-- Jun -->
      <g style="fill: #555555" transform="translate(206.446987 187.918437) scale(0.1 -0.1)">
       <defs>
        <path id="DejaVuSans-4a" d="M 628 4666 
L 1259 4666 
L 1259 325 
Q 1259 -519 939 -900 
Q 619 -1281 -91 -1281 
L -331 -1281 
L -331 -750 
L -134 -750 
Q 284 -750 456 -515 
Q 628 -281 628 325 
L 628 4666 
z
" transform="scale(0.015625)"/>
        <path id="DejaVuSans-75" d="M 544 1381 
L 544 3500 
L 1119 3500 
L 1119 1403 
Q 1119 906 1312 657 
Q 1506 409 1894 409 
Q 2359 409 2629 706 
Q 2900 1003 2900 1516 
L 2900 3500 
L 3475 3500 
L 3475 0 
L 2900 0 
L 2900 538 
Q 2691 219 2414 64 
Q 2138 -91 1772 -91 
Q 1169 -91 856 284 
Q 544 659 544 1381 
z
M 1991 3584 
L 1991 3584 
z
" transform="scale(0.015625)"/>
        <path id="DejaVuSans-6e" d="M 3513 2113 
L 3513 0 
L 2938 0 
L 2938 2094 
Q 2938 2591 2744 2837 
Q 2550 3084 2163 3084 
Q 1697 3084 1428 2787 
Q 1159 2491 1159 1978 
L 1159 0 
L 581 0 
L 581 3500 
L 1159 3500 
L 1159 2956 
Q 1366 3272 1645 3428 
Q 1925 3584 2291 3584 
Q 2894 3584 3203 3211 
Q 3513 2838 3513 2113 
z
" transform="scale(0.015625)"/>
       </defs>
       <use xlink:href="#DejaVuSans-4a"/>
       <use xlink:href="#DejaVuSans-75" x="29.492188"/>
       <use xlink:href="#DejaVuSans-6e" x="92.871094"/>
      </g>
     </g>
    </g>
    <g id="xtick_5">
     <g id="line2d_9">
      <path d="M 259.73641 173.32 
L 259.73641 27.6 
" clip-path="url(#p00f84e4966)" style="fill: none; stroke: #ffffff; stroke-width: 0.8; stroke-linecap: square"/>
     </g>
     <g id="line2d_10">
      <g>
       <use xlink:href="#m4f2d6f7ed2" x="259.73641" y="173.32" style="fill: #555555; stroke: #555555; stroke-width: 0.8"/>
      </g>
     </g>
     <g id="text_5">
      <!-- Jul -->
      <g style="fill: #555555" transform="translate(253.703598 187.918437) scale(0.1 -0.1)">
       <defs>
        <path id="DejaVuSans-6c" d="M 603 4863 
L 1178 4863 
L 1178 0 
L 603 0 
L 603 4863 
z
" transform="scale(0.015625)"/>
       </defs>
       <use xlink:href="#DejaVuSans-4a"/>
       <use xlink:href="#DejaVuSans-75" x="29.492188"/>
       <use xlink:href="#DejaVuSans-6c" x="92.871094"/>
      </g>
     </g>
    </g>
    <g id="xtick_6">
     <g id="line2d_11">
      <path d="M 306.729231 173.32 
L 306.729231 27.6 
" clip-path="url(#p00f84e4966)" style="fill: none; stroke: #ffffff; stroke-width: 0.8; stroke-linecap: square"/>
     </g>
     <g id="line2d_12">
      <g>
       <use xlink:href="#m4f2d6f7ed2" x="306.729231" y="173.32" style="fill: #555555; stroke: #555555; stroke-width: 0.8"/>
      </g>
     </g>
     <g id="text_6">
      <!-- Aug -->
      <g style="fill: #555555" transform="translate(296.96595 187.918437) scale(0.1 -0.1)">
       <defs>
        <path id="DejaVuSans-67" d="M 2906 1791 
Q 2906 2416 2648 2759 
Q 2391 3103 1925 3103 
Q 1463 3103 1205 2759 
Q 947 2416 947 1791 
Q 947 1169 1205 825 
Q 1463 481 1925 481 
Q 2391 481 2648 825 
Q 2906 1169 2906 1791 
z
M 3481 434 
Q 3481 -459 3084 -895 
Q 2688 -1331 1869 -1331 
Q 1566 -1331 1297 -1286 
Q 1028 -1241 775 -1147 
L 775 -588 
Q 1028 -725 1275 -790 
Q 1522 -856 1778 -856 
Q 2344 -856 2625 -561 
Q 2906 -266 2906 331 
L 2906 616 
Q 2728 306 2450 153 
Q 2172 0 1784 0 
Q 1141 0 747 490 
Q 353 981 353 1791 
Q 353 2603 747 3093 
Q 1141 3584 1784 3584 
Q 2172 3584 2450 3431 
Q 2728 3278 2906 2969 
L 2906 3500 
L 3481 3500 
L 3481 434 
z
" transform="scale(0.015625)"/>
       </defs>
       <use xlink:href="#DejaVuSans-41"/>
       <use xlink:href="#DejaVuSans-75" x="68.408203"/>
       <use xlink:href="#DejaVuSans-67" x="131.787109"/>
      </g>
     </g>
    </g>
    <g id="xtick_7">
     <g id="line2d_13">
      <path d="M 353.722051 173.32 
L 353.722051 27.6 
" clip-path="url(#p00f84e4966)" style="fill: none; stroke: #ffffff; stroke-width: 0.8; stroke-linecap: square"/>
     </g>
     <g id="line2d_14">
      <g>
       <use xlink:href="#m4f2d6f7ed2" x="353.722051" y="173.32" style="fill: #555555; stroke: #555555; stroke-width: 0.8"/>
      </g>
     </g>
     <g id="text_7">
      <!-- Sep -->
      <g style="fill: #555555" transform="translate(344.297051 187.918437) scale(0.1 -0.1)">
       <defs>
        <path id="DejaVuSans-53" d="M 3425 4513 
L 3425 3897 
Q 3066 4069 2747 4153 
Q 2428 4238 2131 4238 
Q 1616 4238 1336 4038 
Q 1056 3838 1056 3469 
Q 1056 3159 1242 3001 
Q 1428 2844 1947 2747 
L 2328 2669 
Q 3034 2534 3370 2195 
Q 3706 1856 3706 1288 
Q 3706 609 3251 259 
Q 2797 -91 1919 -91 
Q 1588 -91 1214 -16 
Q 841 59 441 206 
L 441 856 
Q 825 641 1194 531 
Q 1563 422 1919 422 
Q 2459 422 2753 634 
Q 3047 847 3047 1241 
Q 3047 1584 2836 1778 
Q 2625 1972 2144 2069 
L 1759 2144 
Q 1053 2284 737 2584 
Q 422 2884 422 3419 
Q 422 4038 858 4394 
Q 1294 4750 2059 4750 
Q 2388 4750 2728 4690 
Q 3069 4631 3425 4513 
z
" transform="scale(0.015625)"/>
        <path id="DejaVuSans-65" d="M 3597 1894 
L 3597 1613 
L 953 1613 
Q 991 1019 1311 708 
Q 1631 397 2203 397 
Q 2534 397 2845 478 
Q 3156 559 3463 722 
L 3463 178 
Q 3153 47 2828 -22 
Q 2503 -91 2169 -91 
Q 1331 -91 842 396 
Q 353 884 353 1716 
Q 353 2575 817 3079 
Q 1281 3584 2069 3584 
Q 2775 3584 3186 3129 
Q 3597 2675 3597 1894 
z
M 3022 2063 
Q 3016 2534 2758 2815 
Q 2500 3097 2075 3097 
Q 1594 3097 1305 2825 
Q 1016 2553 972 2059 
L 3022 2063 
z
" transform="scale(0.015625)"/>
       </defs>
       <use xlink:href="#DejaVuSans-53"/>
       <use xlink:href="#DejaVuSans-65" x="63.476562"/>
       <use xlink:href="#DejaVuSans-70" x="125"/>
      </g>
     </g>
    </g>
    <g id="xtick_8">
     <g id="line2d_15">
      <path d="M 399.198974 173.32 
L 399.198974 27.6 
" clip-path="url(#p00f84e4966)" style="fill: none; stroke: #ffffff; stroke-width: 0.8; stroke-linecap: square"/>
     </g>
     <g id="line2d_16">
      <g>
       <use xlink:href="#m4f2d6f7ed2" x="399.198974" y="173.32" style="fill: #555555; stroke: #555555; stroke-width: 0.8"/>
      </g>
     </g>
     <g id="text_8">
      <!-- Oct -->
      <g style="fill: #555555" transform="translate(390.553662 187.918437) scale(0.1 -0.1)">
       <defs>
        <path id="DejaVuSans-4f" d="M 2522 4238 
Q 1834 4238 1429 3725 
Q 1025 3213 1025 2328 
Q 1025 1447 1429 934 
Q 1834 422 2522 422 
Q 3209 422 3611 934 
Q 4013 1447 4013 2328 
Q 4013 3213 3611 3725 
Q 3209 4238 2522 4238 
z
M 2522 4750 
Q 3503 4750 4090 4092 
Q 4678 3434 4678 2328 
Q 4678 1225 4090 567 
Q 3503 -91 2522 -91 
Q 1538 -91 948 565 
Q 359 1222 359 2328 
Q 359 3434 948 4092 
Q 1538 4750 2522 4750 
z
" transform="scale(0.015625)"/>
        <path id="DejaVuSans-63" d="M 3122 3366 
L 3122 2828 
Q 2878 2963 2633 3030 
Q 2388 3097 2138 3097 
Q 1578 3097 1268 2742 
Q 959 2388 959 1747 
Q 959 1106 1268 751 
Q 1578 397 2138 397 
Q 2388 397 2633 464 
Q 2878 531 3122 666 
L 3122 134 
Q 2881 22 2623 -34 
Q 2366 -91 2075 -91 
Q 1284 -91 818 406 
Q 353 903 353 1747 
Q 353 2603 823 3093 
Q 1294 3584 2113 3584 
Q 2378 3584 2631 3529 
Q 2884 3475 3122 3366 
z
" transform="scale(0.015625)"/>
        <path id="DejaVuSans-74" d="M 1172 4494 
L 1172 3500 
L 2356 3500 
L 2356 3053 
L 1172 3053 
L 1172 1153 
Q 1172 725 1289 603 
Q 1406 481 1766 481 
L 2356 481 
L 2356 0 
L 1766 0 
Q 1100 0 847 248 
Q 594 497 594 1153 
L 594 3053 
L 172 3053 
L 172 3500 
L 594 3500 
L 594 4494 
L 1172 4494 
z
" transform="scale(0.015625)"/>
       </defs>
       <use xlink:href="#DejaVuSans-4f"/>
       <use xlink:href="#DejaVuSans-63" x="78.710938"/>
       <use xlink:href="#DejaVuSans-74" x="133.691406"/>
      </g>
     </g>
    </g>
    <g id="xtick_9">
     <g id="line2d_17">
      <path d="M 446.191795 173.32 
L 446.191795 27.6 
" clip-path="url(#p00f84e4966)" style="fill: none; stroke: #ffffff; stroke-width: 0.8; stroke-linecap: square"/>
     </g>
     <g id="line2d_18">
      <g>
       <use xlink:href="#m4f2d6f7ed2" x="446.191795" y="173.32" style="fill: #555555; stroke: #555555; stroke-width: 0.8"/>
      </g>
     </g>
     <g id="text_9">
      <!-- Nov -->
      <g style="fill: #555555" transform="translate(436.43242 187.918437) scale(0.1 -0.1)">
       <defs>
        <path id="DejaVuSans-4e" d="M 628 4666 
L 1478 4666 
L 3547 763 
L 3547 4666 
L 4159 4666 
L 4159 0 
L 3309 0 
L 1241 3903 
L 1241 0 
L 628 0 
L 628 4666 
z
" transform="scale(0.015625)"/>
        <path id="DejaVuSans-6f" d="M 1959 3097 
Q 1497 3097 1228 2736 
Q 959 2375 959 1747 
Q 959 1119 1226 758 
Q 1494 397 1959 397 
Q 2419 397 2687 759 
Q 2956 1122 2956 1747 
Q 2956 2369 2687 2733 
Q 2419 3097 1959 3097 
z
M 1959 3584 
Q 2709 3584 3137 3096 
Q 3566 2609 3566 1747 
Q 3566 888 3137 398 
Q 2709 -91 1959 -91 
Q 1206 -91 779 398 
Q 353 888 353 1747 
Q 353 2609 779 3096 
Q 1206 3584 1959 3584 
z
" transform="scale(0.015625)"/>
        <path id="DejaVuSans-76" d="M 191 3500 
L 800 3500 
L 1894 563 
L 2988 3500 
L 3597 3500 
L 2284 0 
L 1503 0 
L 191 3500 
z
" transform="scale(0.015625)"/>
       </defs>
       <use xlink:href="#DejaVuSans-4e"/>
       <use xlink:href="#DejaVuSans-6f" x="74.804688"/>
       <use xlink:href="#DejaVuSans-76" x="135.986328"/>
      </g>
     </g>
    </g>
    <g id="xtick_10">
     <g id="line2d_19">
      <path d="M 491.668718 173.32 
L 491.668718 27.6 
" clip-path="url(#p00f84e4966)" style="fill: none; stroke: #ffffff; stroke-width: 0.8; stroke-linecap: square"/>
     </g>
     <g id="line2d_20">
      <g>
       <use xlink:href="#m4f2d6f7ed2" x="491.668718" y="173.32" style="fill: #555555; stroke: #555555; stroke-width: 0.8"/>
      </g>
     </g>
     <g id="text_10">
      <!-- Dec -->
      <g style="fill: #555555" transform="translate(481.992937 187.918437) scale(0.1 -0.1)">
       <defs>
        <path id="DejaVuSans-44" d="M 1259 4147 
L 1259 519 
L 2022 519 
Q 2988 519 3436 956 
Q 3884 1394 3884 2338 
Q 3884 3275 3436 3711 
Q 2988 4147 2022 4147 
L 1259 4147 
z
M 628 4666 
L 1925 4666 
Q 3281 4666 3915 4102 
Q 4550 3538 4550 2338 
Q 4550 1131 3912 565 
Q 3275 0 1925 0 
L 628 0 
L 628 4666 
z
" transform="scale(0.015625)"/>
       </defs>
       <use xlink:href="#DejaVuSans-44"/>
       <use xlink:href="#DejaVuSans-65" x="77.001953"/>
       <use xlink:href="#DejaVuSans-63" x="138.525391"/>
      </g>
     </g>
    </g>
    <g id="xtick_11">
     <g id="line2d_21">
      <path d="M 538.661538 173.32 
L 538.661538 27.6 
" clip-path="url(#p00f84e4966)" style="fill: none; stroke: #ffffff; stroke-width: 0.8; stroke-linecap: square"/>
     </g>
     <g id="line2d_22">
      <g>
       <use xlink:href="#m4f2d6f7ed2" x="538.661538" y="173.32" style="fill: #555555; stroke: #555555; stroke-width: 0.8"/>
      </g>
     </g>
     <g id="text_11">
      <!-- Jan -->
      <g style="fill: #555555" transform="translate(530.953726 187.918437) scale(0.1 -0.1)">
       <use xlink:href="#DejaVuSans-4a"/>
       <use xlink:href="#DejaVuSans-61" x="29.492188"/>
       <use xlink:href="#DejaVuSans-6e" x="90.771484"/>
      </g>
     </g>
    </g>
    <g id="xtick_12">
     <g id="line2d_23">
      <path d="M 585.654359 173.32 
L 585.654359 27.6 
" clip-path="url(#p00f84e4966)" style="fill: none; stroke: #ffffff; stroke-width: 0.8; stroke-linecap: square"/>
     </g>
     <g id="line2d_24">
      <g>
       <use xlink:href="#m4f2d6f7ed2" x="585.654359" y="173.32" style="fill: #555555; stroke: #555555; stroke-width: 0.8"/>
      </g>
     </g>
     <g id="text_12">
      <!-- Feb -->
      <g style="fill: #555555" transform="translate(576.802796 187.918437) scale(0.1 -0.1)">
       <defs>
        <path id="DejaVuSans-46" d="M 628 4666 
L 3309 4666 
L 3309 4134 
L 1259 4134 
L 1259 2759 
L 3109 2759 
L 3109 2228 
L 1259 2228 
L 1259 0 
L 628 0 
L 628 4666 
z
" transform="scale(0.015625)"/>
        <path id="DejaVuSans-62" d="M 3116 1747 
Q 3116 2381 2855 2742 
Q 2594 3103 2138 3103 
Q 1681 3103 1420 2742 
Q 1159 2381 1159 1747 
Q 1159 1113 1420 752 
Q 1681 391 2138 391 
Q 2594 391 2855 752 
Q 3116 1113 3116 1747 
z
M 1159 2969 
Q 1341 3281 1617 3432 
Q 1894 3584 2278 3584 
Q 2916 3584 3314 3078 
Q 3713 2572 3713 1747 
Q 3713 922 3314 415 
Q 2916 -91 2278 -91 
Q 1894 -91 1617 61 
Q 1341 213 1159 525 
L 1159 0 
L 581 0 
L 581 4863 
L 1159 4863 
L 1159 2969 
z
" transform="scale(0.015625)"/>
       </defs>
       <use xlink:href="#DejaVuSans-46"/>
       <use xlink:href="#DejaVuSans-65" x="52.019531"/>
       <use xlink:href="#DejaVuSans-62" x="113.542969"/>
      </g>
     </g>
    </g>
    <g id="xtick_13">
     <g id="line2d_25">
      <path d="M 628.099487 173.32 
L 628.099487 27.6 
" clip-path="url(#p00f84e4966)" style="fill: none; stroke: #ffffff; stroke-width: 0.8; stroke-linecap: square"/>
     </g>
     <g id="line2d_26">
      <g>
       <use xlink:href="#m4f2d6f7ed2" x="628.099487" y="173.32" style="fill: #555555; stroke: #555555; stroke-width: 0.8"/>
      </g>
     </g>
     <g id="text_13">
      <!-- Mar -->
      <g style="fill: #555555" transform="translate(618.665893 187.918437) scale(0.1 -0.1)">
       <use xlink:href="#DejaVuSans-4d"/>
       <use xlink:href="#DejaVuSans-61" x="86.279297"/>
       <use xlink:href="#DejaVuSans-72" x="147.558594"/>
      </g>
     </g>
    </g>
    <g id="xtick_14">
     <g id="line2d_27">
      <path d="M 675.092308 173.32 
L 675.092308 27.6 
" clip-path="url(#p00f84e4966)" style="fill: none; stroke: #ffffff; stroke-width: 0.8; stroke-linecap: square"/>
     </g>
     <g id="line2d_28">
      <g>
       <use xlink:href="#m4f2d6f7ed2" x="675.092308" y="173.32" style="fill: #555555; stroke: #555555; stroke-width: 0.8"/>
      </g>
     </g>
     <g id="text_14">
      <!-- Apr -->
      <g style="fill: #555555" transform="translate(666.442308 187.918437) scale(0.1 -0.1)">
       <use xlink:href="#DejaVuSans-41"/>
       <use xlink:href="#DejaVuSans-70" x="68.408203"/>
       <use xlink:href="#DejaVuSans-72" x="131.884766"/>
      </g>
     </g>
    </g>
    <g id="text_15">
     <!-- Date -->
     <g style="fill: #555555" transform="translate(369.699063 203.11625) scale(0.12 -0.12)">
      <use xlink:href="#DejaVuSans-44"/>
      <use xlink:href="#DejaVuSans-61" x="77.001953"/>
      <use xlink:href="#DejaVuSans-74" x="138.28125"/>
      <use xlink:href="#DejaVuSans-65" x="177.490234"/>
     </g>
    </g>
   </g>
   <g id="matplotlib.axis_2">
    <g id="ytick_1">
     <g id="line2d_29">
      <path d="M 58.88 154.045329 
L 709.2 154.045329 
" clip-path="url(#p00f84e4966)" style="fill: none; stroke: #ffffff; stroke-width: 0.8; stroke-linecap: square"/>
     </g>
     <g id="line2d_30">
      <defs>
       <path id="m2c7149242a" d="M 0 0 
L -3.5 0 
" style="stroke: #555555; stroke-width: 0.8"/>
      </defs>
      <g>
       <use xlink:href="#m2c7149242a" x="58.88" y="154.045329" style="fill: #555555; stroke: #555555; stroke-width: 0.8"/>
      </g>
     </g>
     <g id="text_16">
      <!-- 800 -->
      <g style="fill: #555555" transform="translate(32.7925 157.844548) scale(0.1 -0.1)">
       <defs>
        <path id="DejaVuSans-38" d="M 2034 2216 
Q 1584 2216 1326 1975 
Q 1069 1734 1069 1313 
Q 1069 891 1326 650 
Q 1584 409 2034 409 
Q 2484 409 2743 651 
Q 3003 894 3003 1313 
Q 3003 1734 2745 1975 
Q 2488 2216 2034 2216 
z
M 1403 2484 
Q 997 2584 770 2862 
Q 544 3141 544 3541 
Q 544 4100 942 4425 
Q 1341 4750 2034 4750 
Q 2731 4750 3128 4425 
Q 3525 4100 3525 3541 
Q 3525 3141 3298 2862 
Q 3072 2584 2669 2484 
Q 3125 2378 3379 2068 
Q 3634 1759 3634 1313 
Q 3634 634 3220 271 
Q 2806 -91 2034 -91 
Q 1263 -91 848 271 
Q 434 634 434 1313 
Q 434 1759 690 2068 
Q 947 2378 1403 2484 
z
M 1172 3481 
Q 1172 3119 1398 2916 
Q 1625 2713 2034 2713 
Q 2441 2713 2670 2916 
Q 2900 3119 2900 3481 
Q 2900 3844 2670 4047 
Q 2441 4250 2034 4250 
Q 1625 4250 1398 4047 
Q 1172 3844 1172 3481 
z
" transform="scale(0.015625)"/>
        <path id="DejaVuSans-30" d="M 2034 4250 
Q 1547 4250 1301 3770 
Q 1056 3291 1056 2328 
Q 1056 1369 1301 889 
Q 1547 409 2034 409 
Q 2525 409 2770 889 
Q 3016 1369 3016 2328 
Q 3016 3291 2770 3770 
Q 2525 4250 2034 4250 
z
M 2034 4750 
Q 2819 4750 3233 4129 
Q 3647 3509 3647 2328 
Q 3647 1150 3233 529 
Q 2819 -91 2034 -91 
Q 1250 -91 836 529 
Q 422 1150 422 2328 
Q 422 3509 836 4129 
Q 1250 4750 2034 4750 
z
" transform="scale(0.015625)"/>
       </defs>
       <use xlink:href="#DejaVuSans-38"/>
       <use xlink:href="#DejaVuSans-30" x="63.623047"/>
       <use xlink:href="#DejaVuSans-30" x="127.246094"/>
      </g>
     </g>
    </g>
    <g id="ytick_2">
     <g id="line2d_31">
      <path d="M 58.88 120.444574 
L 709.2 120.444574 
" clip-path="url(#p00f84e4966)" style="fill: none; stroke: #ffffff; stroke-width: 0.8; stroke-linecap: square"/>
     </g>
     <g id="line2d_32">
      <g>
       <use xlink:href="#m2c7149242a" x="58.88" y="120.444574" style="fill: #555555; stroke: #555555; stroke-width: 0.8"/>
      </g>
     </g>
     <g id="text_17">
      <!-- 1000 -->
      <g style="fill: #555555" transform="translate(26.43 124.243793) scale(0.1 -0.1)">
       <defs>
        <path id="DejaVuSans-31" d="M 794 531 
L 1825 531 
L 1825 4091 
L 703 3866 
L 703 4441 
L 1819 4666 
L 2450 4666 
L 2450 531 
L 3481 531 
L 3481 0 
L 794 0 
L 794 531 
z
" transform="scale(0.015625)"/>
       </defs>
       <use xlink:href="#DejaVuSans-31"/>
       <use xlink:href="#DejaVuSans-30" x="63.623047"/>
       <use xlink:href="#DejaVuSans-30" x="127.246094"/>
       <use xlink:href="#DejaVuSans-30" x="190.869141"/>
      </g>
     </g>
    </g>
    <g id="ytick_3">
     <g id="line2d_33">
      <path d="M 58.88 86.843819 
L 709.2 86.843819 
" clip-path="url(#p00f84e4966)" style="fill: none; stroke: #ffffff; stroke-width: 0.8; stroke-linecap: square"/>
     </g>
     <g id="line2d_34">
      <g>
       <use xlink:href="#m2c7149242a" x="58.88" y="86.843819" style="fill: #555555; stroke: #555555; stroke-width: 0.8"/>
      </g>
     </g>
     <g id="text_18">
      <!-- 1200 -->
      <g style="fill: #555555" transform="translate(26.43 90.643038) scale(0.1 -0.1)">
       <defs>
        <path id="DejaVuSans-32" d="M 1228 531 
L 3431 531 
L 3431 0 
L 469 0 
L 469 531 
Q 828 903 1448 1529 
Q 2069 2156 2228 2338 
Q 2531 2678 2651 2914 
Q 2772 3150 2772 3378 
Q 2772 3750 2511 3984 
Q 2250 4219 1831 4219 
Q 1534 4219 1204 4116 
Q 875 4013 500 3803 
L 500 4441 
Q 881 4594 1212 4672 
Q 1544 4750 1819 4750 
Q 2544 4750 2975 4387 
Q 3406 4025 3406 3419 
Q 3406 3131 3298 2873 
Q 3191 2616 2906 2266 
Q 2828 2175 2409 1742 
Q 1991 1309 1228 531 
z
" transform="scale(0.015625)"/>
       </defs>
       <use xlink:href="#DejaVuSans-31"/>
       <use xlink:href="#DejaVuSans-32" x="63.623047"/>
       <use xlink:href="#DejaVuSans-30" x="127.246094"/>
       <use xlink:href="#DejaVuSans-30" x="190.869141"/>
      </g>
     </g>
    </g>
    <g id="ytick_4">
     <g id="line2d_35">
      <path d="M 58.88 53.243064 
L 709.2 53.243064 
" clip-path="url(#p00f84e4966)" style="fill: none; stroke: #ffffff; stroke-width: 0.8; stroke-linecap: square"/>
     </g>
     <g id="line2d_36">
      <g>
       <use xlink:href="#m2c7149242a" x="58.88" y="53.243064" style="fill: #555555; stroke: #555555; stroke-width: 0.8"/>
      </g>
     </g>
     <g id="text_19">
      <!-- 1400 -->
      <g style="fill: #555555" transform="translate(26.43 57.042283) scale(0.1 -0.1)">
       <defs>
        <path id="DejaVuSans-34" d="M 2419 4116 
L 825 1625 
L 2419 1625 
L 2419 4116 
z
M 2253 4666 
L 3047 4666 
L 3047 1625 
L 3713 1625 
L 3713 1100 
L 3047 1100 
L 3047 0 
L 2419 0 
L 2419 1100 
L 313 1100 
L 313 1709 
L 2253 4666 
z
" transform="scale(0.015625)"/>
       </defs>
       <use xlink:href="#DejaVuSans-31"/>
       <use xlink:href="#DejaVuSans-34" x="63.623047"/>
       <use xlink:href="#DejaVuSans-30" x="127.246094"/>
       <use xlink:href="#DejaVuSans-30" x="190.869141"/>
      </g>
     </g>
    </g>
    <g id="text_20">
     <!-- Concentration (µg/m³) -->
     <g style="fill: #555555" transform="translate(19.934375 167.391875) rotate(-90) scale(0.12 -0.12)">
      <defs>
       <path id="DejaVuSans-43" d="M 4122 4306 
L 4122 3641 
Q 3803 3938 3442 4084 
Q 3081 4231 2675 4231 
Q 1875 4231 1450 3742 
Q 1025 3253 1025 2328 
Q 1025 1406 1450 917 
Q 1875 428 2675 428 
Q 3081 428 3442 575 
Q 3803 722 4122 1019 
L 4122 359 
Q 3791 134 3420 21 
Q 3050 -91 2638 -91 
Q 1578 -91 968 557 
Q 359 1206 359 2328 
Q 359 3453 968 4101 
Q 1578 4750 2638 4750 
Q 3056 4750 3426 4639 
Q 3797 4528 4122 4306 
z
" transform="scale(0.015625)"/>
       <path id="DejaVuSans-69" d="M 603 3500 
L 1178 3500 
L 1178 0 
L 603 0 
L 603 3500 
z
M 603 4863 
L 1178 4863 
L 1178 4134 
L 603 4134 
L 603 4863 
z
" transform="scale(0.015625)"/>
       <path id="DejaVuSans-20" transform="scale(0.015625)"/>
       <path id="DejaVuSans-28" d="M 1984 4856 
Q 1566 4138 1362 3434 
Q 1159 2731 1159 2009 
Q 1159 1288 1364 580 
Q 1569 -128 1984 -844 
L 1484 -844 
Q 1016 -109 783 600 
Q 550 1309 550 2009 
Q 550 2706 781 3412 
Q 1013 4119 1484 4856 
L 1984 4856 
z
" transform="scale(0.015625)"/>
       <path id="DejaVuSans-b5" d="M 544 -1331 
L 544 3500 
L 1119 3500 
L 1119 1325 
Q 1119 872 1334 640 
Q 1550 409 1972 409 
Q 2434 409 2667 671 
Q 2900 934 2900 1459 
L 2900 3500 
L 3475 3500 
L 3475 806 
Q 3475 619 3529 530 
Q 3584 441 3700 441 
Q 3728 441 3778 458 
Q 3828 475 3916 513 
L 3916 50 
Q 3788 -22 3673 -56 
Q 3559 -91 3450 -91 
Q 3234 -91 3106 31 
Q 2978 153 2931 403 
Q 2775 156 2548 32 
Q 2322 -91 2016 -91 
Q 1697 -91 1473 31 
Q 1250 153 1119 397 
L 1119 -1331 
L 544 -1331 
z
" transform="scale(0.015625)"/>
       <path id="DejaVuSans-2f" d="M 1625 4666 
L 2156 4666 
L 531 -594 
L 0 -594 
L 1625 4666 
z
" transform="scale(0.015625)"/>
       <path id="DejaVuSans-6d" d="M 3328 2828 
Q 3544 3216 3844 3400 
Q 4144 3584 4550 3584 
Q 5097 3584 5394 3201 
Q 5691 2819 5691 2113 
L 5691 0 
L 5113 0 
L 5113 2094 
Q 5113 2597 4934 2840 
Q 4756 3084 4391 3084 
Q 3944 3084 3684 2787 
Q 3425 2491 3425 1978 
L 3425 0 
L 2847 0 
L 2847 2094 
Q 2847 2600 2669 2842 
Q 2491 3084 2119 3084 
Q 1678 3084 1418 2786 
Q 1159 2488 1159 1978 
L 1159 0 
L 581 0 
L 581 3500 
L 1159 3500 
L 1159 2956 
Q 1356 3278 1631 3431 
Q 1906 3584 2284 3584 
Q 2666 3584 2933 3390 
Q 3200 3197 3328 2828 
z
" transform="scale(0.015625)"/>
       <path id="DejaVuSans-b3" d="M 1638 3500 
Q 1925 3444 2083 3273 
Q 2241 3103 2241 2847 
Q 2241 2459 1944 2250 
Q 1647 2041 1094 2041 
Q 916 2041 720 2073 
Q 525 2106 306 2169 
L 306 2547 
Q 469 2463 655 2422 
Q 841 2381 1050 2381 
Q 1391 2381 1578 2504 
Q 1766 2628 1766 2847 
Q 1766 3078 1592 3197 
Q 1419 3316 1081 3316 
L 813 3316 
L 813 3653 
L 1106 3653 
Q 1400 3653 1551 3751 
Q 1703 3850 1703 4038 
Q 1703 4219 1547 4314 
Q 1391 4409 1094 4409 
Q 969 4409 809 4381 
Q 650 4353 397 4281 
L 397 4641 
Q 625 4694 825 4722 
Q 1025 4750 1197 4750 
Q 1647 4750 1911 4565 
Q 2175 4381 2175 4072 
Q 2175 3856 2034 3706 
Q 1894 3556 1638 3500 
z
" transform="scale(0.015625)"/>
       <path id="DejaVuSans-29" d="M 513 4856 
L 1013 4856 
Q 1481 4119 1714 3412 
Q 1947 2706 1947 2009 
Q 1947 1309 1714 600 
Q 1481 -109 1013 -844 
L 513 -844 
Q 928 -128 1133 580 
Q 1338 1288 1338 2009 
Q 1338 2731 1133 3434 
Q 928 4138 513 4856 
z
" transform="scale(0.015625)"/>
      </defs>
      <use xlink:href="#DejaVuSans-43"/>
      <use xlink:href="#DejaVuSans-6f" x="69.824219"/>
      <use xlink:href="#DejaVuSans-6e" x="131.005859"/>
      <use xlink:href="#DejaVuSans-63" x="194.384766"/>
      <use xlink:href="#DejaVuSans-65" x="249.365234"/>
      <use xlink:href="#DejaVuSans-6e" x="310.888672"/>
      <use xlink:href="#DejaVuSans-74" x="374.267578"/>
      <use xlink:href="#DejaVuSans-72" x="413.476562"/>
      <use xlink:href="#DejaVuSans-61" x="454.589844"/>
      <use xlink:href="#DejaVuSans-74" x="515.869141"/>
      <use xlink:href="#DejaVuSans-69" x="555.078125"/>
      <use xlink:href="#DejaVuSans-6f" x="582.861328"/>
      <use xlink:href="#DejaVuSans-6e" x="644.042969"/>
      <use xlink:href="#DejaVuSans-20" x="707.421875"/>
      <use xlink:href="#DejaVuSans-28" x="739.208984"/>
      <use xlink:href="#DejaVuSans-b5" x="778.222656"/>
      <use xlink:href="#DejaVuSans-67" x="841.845703"/>
      <use xlink:href="#DejaVuSans-2f" x="905.322266"/>
      <use xlink:href="#DejaVuSans-6d" x="939.013672"/>
      <use xlink:href="#DejaVuSans-b3" x="1036.425781"/>
      <use xlink:href="#DejaVuSans-29" x="1076.513672"/>
     </g>
    </g>
   </g>
   <g id="line2d_37">
    <path d="M 88.44 67.271379 
L 89.955897 79.441153 
L 91.471795 73.141011 
L 92.987692 64.909993 
L 94.50359 59.807461 
L 96.019487 44.505117 
L 97.535385 63.386875 
L 99.051282 59.508205 
L 100.567179 61.211576 
L 102.083077 69.336426 
L 103.598974 71.980735 
L 105.114872 78.014871 
L 106.630769 98.744086 
L 108.146667 99.938197 
L 109.662564 95.422512 
L 111.178462 106.199254 
L 112.694359 106.254089 
L 114.210256 104.482465 
L 115.726154 110.436099 
L 117.242051 121.811938 
L 118.757949 89.048869 
L 120.273846 90.042308 
L 121.789744 79.405652 
L 123.305641 71.926484 
L 124.821538 68.844664 
L 126.337436 86.399309 
L 127.853333 72.820754 
L 129.369231 86.774984 
L 130.885128 111.780129 
L 132.401026 94.056416 
L 133.916923 90.87591 
L 135.432821 111.82738 
L 136.948718 130.542301 
L 138.464615 132.217089 
L 139.980513 101.817156 
L 141.49641 96.298698 
L 143.012308 65.696344 
L 144.528205 65.011495 
L 146.044103 109.59783 
L 147.56 108.514556 
L 149.075897 111.124448 
L 150.591795 95.109255 
L 152.107692 91.193833 
L 153.62359 93.773975 
L 155.139487 69.640932 
L 156.655385 80.026249 
L 158.171282 134.51314 
L 159.687179 127.516483 
L 162.718974 71.222968 
L 164.234872 66.26569 
L 165.750769 65.001578 
L 167.266667 104.074706 
L 168.782564 111.110448 
L 170.298462 92.748452 
L 171.814359 96.323782 
L 173.330256 107.177526 
L 174.846154 120.388573 
L 176.362051 120.55716 
L 177.877949 120.078816 
L 179.393846 116.953246 
L 182.425641 85.849797 
L 183.941538 84.531434 
L 185.457436 99.295349 
L 186.973333 99.988364 
L 188.489231 113.14341 
L 190.005128 114.669444 
L 191.521026 122.726625 
L 193.036923 93.921561 
L 196.068718 80.582178 
L 197.584615 85.030778 
L 199.100513 80.897185 
L 202.132308 140.699529 
L 203.648205 120.915427 
L 205.164103 103.970871 
L 206.68 105.726743 
L 208.195897 114.228434 
L 209.711795 140.457441 
L 211.227692 141.310293 
L 214.259487 97.681813 
L 215.775385 124.25266 
L 217.291282 121.860356 
L 218.807179 125.894197 
L 220.323077 126.746466 
L 221.838974 145.671974 
L 223.354872 124.851173 
L 224.870769 108.787562 
L 226.386667 99.937613 
L 227.902564 100.060116 
L 229.418462 114.538775 
L 230.934359 116.543736 
L 232.450256 146.254154 
L 233.966154 140.818532 
L 235.482051 120.521576 
L 236.997949 110.472267 
L 238.513846 112.25439 
L 240.029744 113.262413 
L 241.545641 125.699692 
L 244.577436 128.762861 
L 246.093333 116.472568 
L 247.609231 106.999022 
L 249.125128 113.388416 
L 250.641026 118.253525 
L 252.156923 123.634896 
L 253.672821 123.099384 
L 255.188718 103.953954 
L 256.704615 92.890205 
L 258.220513 94.245319 
L 259.73641 98.534082 
L 261.252308 104.027455 
L 262.768205 122.163113 
L 264.284103 127.719488 
L 265.8 110.814691 
L 267.315897 100.214119 
L 268.831795 92.301608 
L 270.347692 85.56104 
L 271.86359 111.202616 
L 273.379487 134.219134 
L 274.895385 138.235474 
L 276.411282 127.031722 
L 277.927179 125.169097 
L 280.958974 114.866032 
L 282.474872 114.748196 
L 283.990769 118.615783 
L 285.506667 122.021943 
L 287.022564 98.868339 
L 288.538462 88.67611 
L 290.054359 90.027724 
L 291.570256 84.131258 
L 293.086154 97.833483 
L 294.602051 112.585148 
L 296.117949 131.84258 
L 297.633846 123.322222 
L 299.149744 133.61187 
L 300.665641 127.84549 
L 303.697436 105.929748 
L 305.213333 113.498592 
L 306.729231 124.802172 
L 308.245128 111.193866 
L 309.761026 103.7807 
L 311.276923 114.331687 
L 312.792821 112.715234 
L 314.308718 107.165276 
L 315.824615 132.589847 
L 317.340513 131.361903 
L 318.85641 117.195101 
L 320.372308 109.671332 
L 321.888205 110.725439 
L 323.404103 120.26607 
L 324.92 133.061191 
L 326.435897 136.245679 
L 327.951795 146.108901 
L 329.467692 138.713818 
L 330.98359 122.779127 
L 332.499487 120.70008 
L 334.015385 120.662746 
L 335.531282 123.38989 
L 337.047179 145.393718 
L 338.563077 144.871623 
L 340.078974 138.366727 
L 341.594872 125.852196 
L 343.110769 117.994519 
L 344.626667 146.597162 
L 347.658462 129.372775 
L 349.174359 122.583122 
L 350.690256 109.190071 
L 352.206154 108.658059 
L 353.722051 110.283262 
L 355.237949 106.315923 
L 356.753846 98.670585 
L 358.269744 107.660537 
L 359.785641 132.540846 
L 361.301538 124.070656 
L 362.817436 116.463615 
L 364.333333 77.123601 
L 365.849231 101.412896 
L 367.365128 106.950021 
L 368.881026 102.354418 
L 371.912821 85.713294 
L 373.428718 95.511764 
L 374.944615 85.953632 
L 377.97641 129.673698 
L 379.492308 131.604575 
L 381.008205 112.917655 
L 382.524103 98.633834 
L 384.04 89.908138 
L 385.555897 92.452695 
L 387.071795 93.692306 
L 388.587692 97.524309 
L 390.10359 145.149879 
L 391.619487 135.461662 
L 394.651282 105.906997 
L 396.167179 99.834361 
L 397.683077 75.451063 
L 399.198974 67.449122 
L 400.714872 85.020278 
L 402.230769 98.917924 
L 405.262564 75.543815 
L 406.778462 70.820459 
L 408.294359 68.760663 
L 409.810256 72.19774 
L 411.326154 63.302873 
L 412.842051 101.619401 
L 414.357949 94.670578 
L 415.873846 130.339297 
L 417.389744 141.357544 
L 418.905641 119.607472 
L 420.421538 101.5739 
L 421.937436 123.414391 
L 423.453333 132.014084 
L 424.969231 93.794975 
L 426.485128 74.570793 
L 428.001026 41.103041 
L 429.516923 63.720549 
L 431.032821 69.954189 
L 432.548718 80.848184 
L 434.064615 96.962546 
L 435.580513 68.783413 
L 437.09641 71.406722 
L 438.612308 96.623622 
L 440.128205 95.496013 
L 441.644103 94.696245 
L 443.16 86.762734 
L 444.675897 102.01316 
L 446.191795 79.558405 
L 447.707692 68.568158 
L 449.22359 94.309487 
L 450.739487 73.205762 
L 452.255385 76.338333 
L 453.771282 88.635859 
L 455.287179 141.208791 
L 456.803077 136.105676 
L 458.318974 120.312738 
L 459.834872 126.94072 
L 461.350769 97.869067 
L 462.866667 118.860205 
L 464.382564 111.486123 
L 465.898462 166.696364 
L 467.414359 146.987421 
L 468.930256 121.001087 
L 470.446154 88.245017 
L 471.962051 82.388219 
L 473.477949 92.589198 
L 474.993846 136.525102 
L 476.509744 121.489348 
L 478.025641 75.794071 
L 479.541538 34.223636 
L 481.057436 70.925461 
L 482.573333 90.691572 
L 484.089231 46.613915 
L 485.605128 48.874966 
L 487.121026 105.282817 
L 488.636923 87.025823 
L 490.152821 99.093511 
L 491.668718 91.33967 
L 493.184615 69.131671 
L 494.700513 67.661055 
L 497.732308 130.230794 
L 499.248205 102.432003 
L 500.764103 100.443375 
L 502.28 104.849974 
L 503.795897 131.503073 
L 505.311795 141.331294 
L 506.827692 120.803332 
L 508.34359 93.644472 
L 509.859487 77.038349 
L 511.375385 82.379366 
L 515.923077 83.872252 
L 517.438974 125.873196 
L 518.954872 106.012 
L 520.470769 134.835148 
L 521.986667 133.487617 
L 523.502564 124.786422 
L 525.018462 82.963982 
L 526.534359 55.62017 
L 528.050256 46.668166 
L 529.566154 107.053273 
L 531.082051 110.969861 
L 532.597949 100.205369 
L 534.113846 132.017584 
L 535.629744 141.061788 
L 537.145641 137.225701 
L 538.661538 101.26881 
L 540.177436 104.750221 
L 544.725128 62.934325 
L 546.241026 102.109412 
L 547.756923 88.175599 
L 549.272821 79.467403 
L 550.788718 99.918946 
L 552.304615 73.482269 
L 553.820513 70.071442 
L 555.33641 69.717351 
L 556.852308 83.711249 
L 558.368205 81.110107 
L 559.884103 94.610494 
L 561.4 128.69776 
L 562.915897 100.127784 
L 564.431795 74.763297 
L 565.947692 126.066867 
L 567.46359 105.318984 
L 568.979487 56.730892 
L 570.495385 72.872088 
L 572.011282 112.928155 
L 573.527179 125.962448 
L 575.043077 144.651118 
L 576.558974 142.124061 
L 578.074872 135.266241 
L 579.590769 133.996055 
L 581.106667 144.339293 
L 582.622564 143.185169 
L 584.138462 106.248255 
L 585.654359 78.44013 
L 587.170256 90.692739 
L 588.686154 79.481404 
L 590.202051 105.14923 
L 591.717949 120.344822 
L 593.233846 133.723873 
L 594.749744 123.605145 
L 596.265641 120.565636 
L 600.813333 41.370797 
L 602.329231 39.686092 
L 603.845128 63.521045 
L 605.361026 117.389005 
L 606.876923 129.017433 
L 608.392821 98.92084 
L 609.908718 110.384765 
L 611.424615 111.127365 
L 612.940513 106.45476 
L 614.45641 115.244624 
L 615.972308 102.588923 
L 617.488205 106.45126 
L 619.004103 113.871426 
L 620.52 96.630039 
L 622.035897 98.700919 
L 623.551795 120.157568 
L 625.067692 125.213431 
L 626.58359 148.302284 
L 628.099487 150.669503 
L 629.615385 125.342934 
L 631.131282 89.496295 
L 632.647179 84.367513 
L 634.163077 111.95455 
L 635.678974 129.254272 
L 637.194872 128.195498 
L 638.710769 106.709682 
L 640.226667 82.281466 
L 641.742564 97.461308 
L 643.258462 91.86628 
L 644.774359 100.866884 
L 646.290256 97.964736 
L 647.806154 80.690681 
L 649.322051 83.681498 
L 650.837949 81.840457 
L 652.353846 83.861752 
L 653.869744 81.41228 
L 655.385641 89.10662 
L 656.901538 101.869657 
L 658.417436 82.368968 
L 659.933333 87.214827 
L 662.965128 62.775528 
L 664.481026 63.045034 
L 665.996923 84.078757 
L 667.512821 102.611673 
L 669.028718 107.079524 
L 670.544615 93.024958 
L 672.060513 102.676425 
L 675.092308 136.717023 
L 676.608205 138.774486 
L 678.124103 123.610979 
L 679.64 105.257033 
L 679.64 105.257033 
" clip-path="url(#p00f84e4966)" style="fill: none; stroke: #55a868; stroke-width: 2; stroke-linecap: square"/>
   </g>
   <g id="patch_3">
    <path d="M 58.88 173.32 
L 58.88 27.6 
" style="fill: none; stroke: #ffffff; stroke-linejoin: miter; stroke-linecap: square"/>
   </g>
   <g id="patch_4">
    <path d="M 709.2 173.32 
L 709.2 27.6 
" style="fill: none; stroke: #ffffff; stroke-linejoin: miter; stroke-linecap: square"/>
   </g>
   <g id="patch_5">
    <path d="M 58.88 173.32 
L 709.2 173.32 
" style="fill: none; stroke: #ffffff; stroke-linejoin: miter; stroke-linecap: square"/>
   </g>
   <g id="patch_6">
    <path d="M 58.88 27.6 
L 709.2 27.6 
" style="fill: none; stroke: #ffffff; stroke-linejoin: miter; stroke-linecap: square"/>
   </g>
   <g id="text_21">
    <!-- Daily Average of PT08.S1(CO) Concentration -->
    <g transform="translate(228.029687 21.6) scale(0.14 -0.14)">
     <defs>
      <path id="DejaVuSans-66" d="M 2375 4863 
L 2375 4384 
L 1825 4384 
Q 1516 4384 1395 4259 
Q 1275 4134 1275 3809 
L 1275 3500 
L 2222 3500 
L 2222 3053 
L 1275 3053 
L 1275 0 
L 697 0 
L 697 3053 
L 147 3053 
L 147 3500 
L 697 3500 
L 697 3744 
Q 697 4328 969 4595 
Q 1241 4863 1831 4863 
L 2375 4863 
z
" transform="scale(0.015625)"/>
      <path id="DejaVuSans-50" d="M 1259 4147 
L 1259 2394 
L 2053 2394 
Q 2494 2394 2734 2622 
Q 2975 2850 2975 3272 
Q 2975 3691 2734 3919 
Q 2494 4147 2053 4147 
L 1259 4147 
z
M 628 4666 
L 2053 4666 
Q 2838 4666 3239 4311 
Q 3641 3956 3641 3272 
Q 3641 2581 3239 2228 
Q 2838 1875 2053 1875 
L 1259 1875 
L 1259 0 
L 628 0 
L 628 4666 
z
" transform="scale(0.015625)"/>
      <path id="DejaVuSans-54" d="M -19 4666 
L 3928 4666 
L 3928 4134 
L 2272 4134 
L 2272 0 
L 1638 0 
L 1638 4134 
L -19 4134 
L -19 4666 
z
" transform="scale(0.015625)"/>
      <path id="DejaVuSans-2e" d="M 684 794 
L 1344 794 
L 1344 0 
L 684 0 
L 684 794 
z
" transform="scale(0.015625)"/>
     </defs>
     <use xlink:href="#DejaVuSans-44"/>
     <use xlink:href="#DejaVuSans-61" x="77.001953"/>
     <use xlink:href="#DejaVuSans-69" x="138.28125"/>
     <use xlink:href="#DejaVuSans-6c" x="166.064453"/>
     <use xlink:href="#DejaVuSans-79" x="193.847656"/>
     <use xlink:href="#DejaVuSans-20" x="253.027344"/>
     <use xlink:href="#DejaVuSans-41" x="284.814453"/>
     <use xlink:href="#DejaVuSans-76" x="347.347656"/>
     <use xlink:href="#DejaVuSans-65" x="406.527344"/>
     <use xlink:href="#DejaVuSans-72" x="468.050781"/>
     <use xlink:href="#DejaVuSans-61" x="509.164062"/>
     <use xlink:href="#DejaVuSans-67" x="570.443359"/>
     <use xlink:href="#DejaVuSans-65" x="633.919922"/>
     <use xlink:href="#DejaVuSans-20" x="695.443359"/>
     <use xlink:href="#DejaVuSans-6f" x="727.230469"/>
     <use xlink:href="#DejaVuSans-66" x="788.412109"/>
     <use xlink:href="#DejaVuSans-20" x="823.617188"/>
     <use xlink:href="#DejaVuSans-50" x="855.404297"/>
     <use xlink:href="#DejaVuSans-54" x="915.707031"/>
     <use xlink:href="#DejaVuSans-30" x="976.791016"/>
     <use xlink:href="#DejaVuSans-38" x="1040.414062"/>
     <use xlink:href="#DejaVuSans-2e" x="1104.037109"/>
     <use xlink:href="#DejaVuSans-53" x="1135.824219"/>
     <use xlink:href="#DejaVuSans-31" x="1199.300781"/>
     <use xlink:href="#DejaVuSans-28" x="1262.923828"/>
     <use xlink:href="#DejaVuSans-43" x="1301.9375"/>
     <use xlink:href="#DejaVuSans-4f" x="1371.761719"/>
     <use xlink:href="#DejaVuSans-29" x="1450.472656"/>
     <use xlink:href="#DejaVuSans-20" x="1489.486328"/>
     <use xlink:href="#DejaVuSans-43" x="1521.273438"/>
     <use xlink:href="#DejaVuSans-6f" x="1591.097656"/>
     <use xlink:href="#DejaVuSans-6e" x="1652.279297"/>
     <use xlink:href="#DejaVuSans-63" x="1715.658203"/>
     <use xlink:href="#DejaVuSans-65" x="1770.638672"/>
     <use xlink:href="#DejaVuSans-6e" x="1832.162109"/>
     <use xlink:href="#DejaVuSans-74" x="1895.541016"/>
     <use xlink:href="#DejaVuSans-72" x="1934.75"/>
     <use xlink:href="#DejaVuSans-61" x="1975.863281"/>
     <use xlink:href="#DejaVuSans-74" x="2037.142578"/>
     <use xlink:href="#DejaVuSans-69" x="2076.351562"/>
     <use xlink:href="#DejaVuSans-6f" x="2104.134766"/>
     <use xlink:href="#DejaVuSans-6e" x="2165.316406"/>
    </g>
   </g>
   <g id="legend_1">
    <g id="patch_7">
     <path d="M 606.790625 50.278125 
L 702.2 50.278125 
Q 704.2 50.278125 704.2 48.278125 
L 704.2 34.6 
Q 704.2 32.6 702.2 32.6 
L 606.790625 32.6 
Q 604.790625 32.6 604.790625 34.6 
L 604.790625 48.278125 
Q 604.790625 50.278125 606.790625 50.278125 
z
" style="fill: #e5e5e5; opacity: 0.8; stroke: #cccccc; stroke-width: 0.5; stroke-linejoin: miter"/>
    </g>
    <g id="line2d_38">
     <path d="M 608.790625 40.698437 
L 618.790625 40.698437 
L 628.790625 40.698437 
" style="fill: none; stroke: #55a868; stroke-width: 2; stroke-linecap: square"/>
    </g>
    <g id="text_22">
     <!-- PT08.S1(CO) -->
     <g transform="translate(636.790625 44.198437) scale(0.1 -0.1)">
      <use xlink:href="#DejaVuSans-50"/>
      <use xlink:href="#DejaVuSans-54" x="60.302734"/>
      <use xlink:href="#DejaVuSans-30" x="121.386719"/>
      <use xlink:href="#DejaVuSans-38" x="185.009766"/>
      <use xlink:href="#DejaVuSans-2e" x="248.632812"/>
      <use xlink:href="#DejaVuSans-53" x="280.419922"/>
      <use xlink:href="#DejaVuSans-31" x="343.896484"/>
      <use xlink:href="#DejaVuSans-28" x="407.519531"/>
      <use xlink:href="#DejaVuSans-43" x="446.533203"/>
      <use xlink:href="#DejaVuSans-4f" x="516.357422"/>
      <use xlink:href="#DejaVuSans-29" x="595.068359"/>
     </g>
    </g>
   </g>
  </g>
 </g>
 <defs>
  <clipPath id="p00f84e4966">
   <rect x="58.88" y="27.6" width="650.32" height="145.72"/>
  </clipPath>
 </defs>
</svg>
